<?xml version="1.0" encoding="UTF-8"?>
<svg id="Laag_1" xmlns="http://www.w3.org/2000/svg" version="1.1" xmlns:xlink="http://www.w3.org/1999/xlink" viewBox="0 0 760 760">
  <!-- Generator: Adobe Illustrator 29.5.1, SVG Export Plug-In . SVG Version: 2.1.0 Build 141)  -->
  <defs>
    <style>
      .st0 {
        stroke-miterlimit: 4;
      }

      .st0, .st1, .st2, .st3, .st4 {
        fill: #f6b40e;
        stroke: #85340a;
      }

      .st0, .st4 {
        stroke-width: 1.11px;
      }

      .st5 {
        fill: #74acdf;
      }

      .st1 {
        stroke-width: 1.5px;
      }

      .st6 {
        fill: #fff;
      }

      .st2 {
        stroke-miterlimit: 4;
        stroke-width: 1.11px;
      }

      .st7 {
        fill: none;
      }

      .st3 {
        stroke-width: 1.11px;
      }

      .st8 {
        fill: #85340a;
      }

      .st9 {
        fill: #843511;
      }

      .st4 {
        stroke-miterlimit: 4;
      }

      .st10 {
        clip-path: url(#clippath);
      }
    </style>
    <clipPath id="clippath">
      <circle class="st7" cx="380" cy="380" r="379.98"/>
    </clipPath>
  </defs>
  <g class="st10">
    <rect class="st5" x="-244.2" y="-10.13" width="1248.41" height="780.26"/>
    <rect class="st6" x="-244.2" y="249.96" width="1248.41" height="260.09"/>
    <g id="rays">
      <path id="ray1" class="st3" d="M375.07,382.04l44.4,96.74s.76,1.85,2,1.34c1.23-.51.47-2.36.47-2.36l-37.01-99.8M383.87,415.6c-.54,14.71,8.51,22.8,7.33,35.94-1.18,13.14,6.03,20.57,7.71,25.68,1.67,5.11-1.81,8.17-.31,8.89,1.5.73,4.79-3.31,3.72-10.57-1.07-7.26-6.59-9.42-5.29-25.47,1.3-16.05-6.56-19.78-4.65-34.42"/>
      <path id="ray11" data-name="ray1" class="st0" d="M374.66,380l4,106.37s0,2,1.33,2c1.33,0,1.33-2,1.33-2l4-106.37M369.95,414.37c-6.13,13.39-.87,24.32-6.99,36.01-6.12,11.69-2.3,21.31-2.7,26.67-.41,5.36-4.8,6.85-3.69,8.1,1.11,1.25,5.69-1.22,7.48-8.35,1.79-7.12-2.48-11.22,4.86-25.55,7.34-14.33,1.51-20.79,8.88-33.58"/>
      <path id="ray12" data-name="ray1" class="st2" d="M375.07,377.96l-37.01,99.8s-.77,1.85.46,2.36c1.23.51,2-1.34,2-1.34l44.4-96.74M357.56,407.91c-10.79,10.02-10.11,22.14-20.23,30.59-10.13,8.46-10.28,18.81-12.71,23.61-2.43,4.8-7.05,4.49-6.51,6.07.55,1.58,5.73,1.05,10.11-4.85,4.38-5.89,2-11.32,14.27-21.75,12.26-10.43,9.35-18.63,21.05-27.63"/>
      <path id="ray13" data-name="ray1" class="st4" d="M376.22,376.23l-72.38,78.04s-1.42,1.41-.47,2.36c.94.94,2.36-.47,2.36-.47l78.04-72.38M348.59,397.2c-13.8,5.13-17.81,16.59-30.4,20.52-12.59,3.94-16.69,13.45-20.77,16.95-4.08,3.5-8.24,1.45-8.33,3.12-.1,1.67,4.89,3.16,11.19-.61,6.3-3.77,6.18-9.69,21.5-14.63,15.32-4.94,15.77-13.63,30.02-17.47"/>
      <path id="ray2" class="st8" d="M386.73,418.09c.71,14.13,8.72,20.38,7.15,33.26,3.45-10.18-4.87-18.08-4.4-33.11M377.53,381.17l30.41,66.44-25.48-68.49"/>
      <path id="ray21" data-name="ray2" class="st8" d="M371.64,417.77c-4.75,13.32.25,22.17-6.13,33.46,7.09-8.09,2.41-18.56,8.61-32.28M377.28,380.13l2.67,73.02,2.67-73.02"/>
      <path id="ray22" data-name="ray2" class="st8" d="M357.82,411.69c-9.49,10.49-8.25,20.58-18.47,28.57,9.64-4.76,9.33-16.23,20.3-26.53M377.43,379.08l-25.48,68.48,30.41-66.45"/>
      <path id="ray23" data-name="ray2" class="st8" d="M347.38,400.79c-12.78,6.06-15.5,15.86-27.99,19.33,10.73-.71,14.83-11.42,28.91-16.74M377.98,378.17l-49.75,53.52,53.52-49.75"/>
    </g>
    <g id="rays1" data-name="rays">
      <path id="ray14" data-name="ray1" class="st3" d="M377.96,375.07l-96.74,44.4s-1.85.76-1.34,2c.51,1.23,2.36.47,2.36.47l99.8-37.01M344.4,383.87c-14.71-.54-22.8,8.51-35.94,7.33-13.14-1.18-20.57,6.03-25.68,7.71-5.11,1.67-8.17-1.81-8.89-.31-.73,1.5,3.31,4.79,10.57,3.72,7.26-1.07,9.42-6.59,25.47-5.29,16.05,1.3,19.78-6.56,34.42-4.65"/>
      <path id="ray15" data-name="ray1" class="st4" d="M380,374.66l-106.37,4s-2,0-2,1.33c0,1.33,2,1.33,2,1.33l106.37,4M345.63,369.95c-13.39-6.13-24.32-.87-36.01-6.99-11.69-6.12-21.31-2.3-26.67-2.7-5.36-.41-6.85-4.8-8.1-3.69-1.25,1.11,1.22,5.69,8.35,7.48,7.12,1.79,11.22-2.48,25.55,4.86,14.33,7.34,20.79,1.51,33.58,8.88"/>
      <path id="ray16" data-name="ray1" class="st2" d="M382.04,375.07l-99.8-37.01s-1.85-.77-2.36.46c-.51,1.23,1.34,2,1.34,2l96.74,44.4M352.09,357.56c-10.02-10.79-22.14-10.11-30.59-20.23-8.46-10.13-18.81-10.28-23.61-12.71-4.8-2.43-4.49-7.05-6.07-6.51-1.58.55-1.05,5.73,4.85,10.11,5.89,4.38,11.32,2,21.75,14.27,10.43,12.26,18.63,9.35,27.63,21.05"/>
      <path id="ray17" data-name="ray1" class="st0" d="M383.77,376.22l-78.04-72.38s-1.41-1.42-2.36-.47c-.94.94.47,2.36.47,2.36l72.38,78.04M362.8,348.59c-5.13-13.8-16.59-17.81-20.52-30.4-3.94-12.59-13.45-16.69-16.95-20.77-3.5-4.08-1.45-8.24-3.12-8.33-1.67-.1-3.16,4.89.61,11.19,3.77,6.3,9.69,6.18,14.63,21.5,4.94,15.32,13.63,15.77,17.47,30.02"/>
      <path id="ray24" data-name="ray2" class="st8" d="M341.91,386.73c-14.13.71-20.38,8.72-33.26,7.15,10.18,3.45,18.08-4.87,33.11-4.4M378.83,377.53l-66.44,30.41,68.49-25.48"/>
      <path id="ray25" data-name="ray2" class="st8" d="M342.23,371.64c-13.32-4.75-22.17.25-33.46-6.13,8.09,7.09,18.56,2.41,32.28,8.61M379.87,377.28l-73.02,2.67,73.02,2.67"/>
      <path id="ray26" data-name="ray2" class="st8" d="M348.31,357.82c-10.49-9.49-20.58-8.25-28.57-18.47,4.76,9.64,16.23,9.33,26.53,20.3M380.92,377.43l-68.48-25.48,66.45,30.41"/>
      <path id="ray27" data-name="ray2" class="st8" d="M359.21,347.38c-6.06-12.78-15.86-15.5-19.33-27.99.71,10.73,11.42,14.83,16.74,28.91M381.83,377.98l-53.52-49.75,49.75,53.52"/>
    </g>
    <g id="rays2" data-name="rays">
      <path id="ray18" data-name="ray1" class="st3" d="M384.93,377.96l-44.4-96.74s-.76-1.85-2-1.34c-1.23.51-.47,2.36-.47,2.36l37.01,99.8M376.13,344.4c.54-14.71-8.51-22.8-7.33-35.94,1.18-13.14-6.03-20.57-7.71-25.68-1.67-5.11,1.81-8.17.31-8.89-1.5-.73-4.79,3.31-3.72,10.57,1.07,7.26,6.59,9.42,5.29,25.47-1.3,16.05,6.56,19.78,4.65,34.42"/>
      <path id="ray19" data-name="ray1" class="st0" d="M385.34,380l-4-106.37s0-2-1.33-2c-1.33,0-1.33,2-1.33,2l-4,106.37M390.05,345.63c6.13-13.39.87-24.32,6.99-36.01,6.12-11.69,2.3-21.31,2.7-26.67.41-5.36,4.8-6.85,3.69-8.1-1.11-1.25-5.69,1.22-7.48,8.35-1.79,7.12,2.48,11.22-4.86,25.55-7.34,14.33-1.51,20.79-8.88,33.58"/>
      <path id="ray110" data-name="ray1" class="st2" d="M384.93,382.04l37.01-99.8s.77-1.85-.46-2.36c-1.23-.51-2,1.34-2,1.34l-44.4,96.74M402.44,352.09c10.79-10.02,10.11-22.14,20.23-30.59,10.13-8.46,10.28-18.81,12.71-23.61,2.43-4.8,7.05-4.49,6.51-6.07-.55-1.58-5.73-1.05-10.11,4.85-4.38,5.89-2,11.32-14.27,21.75-12.26,10.43-9.35,18.63-21.05,27.63"/>
      <path id="ray111" data-name="ray1" class="st4" d="M383.78,383.77l72.38-78.04s1.42-1.41.47-2.36c-.94-.94-2.36.47-2.36.47l-78.04,72.38M411.41,362.8c13.8-5.13,17.81-16.59,30.4-20.52,12.59-3.94,16.69-13.45,20.77-16.95,4.08-3.5,8.24-1.45,8.33-3.12.1-1.67-4.89-3.16-11.19.61-6.3,3.77-6.18,9.69-21.5,14.63-15.32,4.94-15.77,13.63-30.02,17.47"/>
      <path id="ray28" data-name="ray2" class="st8" d="M373.27,341.91c-.71-14.13-8.72-20.38-7.15-33.26-3.45,10.18,4.87,18.08,4.4,33.11M382.47,378.83l-30.41-66.44,25.48,68.49"/>
      <path id="ray29" data-name="ray2" class="st8" d="M388.36,342.23c4.75-13.32-.25-22.17,6.13-33.46-7.09,8.09-2.41,18.56-8.61,32.28M382.72,379.87l-2.67-73.02-2.67,73.02"/>
      <path id="ray210" data-name="ray2" class="st8" d="M402.18,348.31c9.49-10.49,8.25-20.58,18.47-28.57-9.64,4.76-9.33,16.23-20.3,26.53M382.57,380.92l25.48-68.48-30.41,66.45"/>
      <path id="ray211" data-name="ray2" class="st8" d="M412.62,359.21c12.78-6.06,15.5-15.86,27.99-19.33-10.73.71-14.83,11.42-28.91,16.74M382.02,381.83l49.75-53.52-53.52,49.75"/>
    </g>
    <g id="rays3" data-name="rays">
      <path id="ray112" data-name="ray1" class="st3" d="M382.04,384.93l96.74-44.4s1.85-.76,1.34-2c-.51-1.23-2.36-.47-2.36-.47l-99.8,37.01M415.6,376.13c14.71.54,22.8-8.51,35.94-7.33,13.14,1.18,20.57-6.03,25.68-7.71,5.11-1.67,8.17,1.81,8.89.31.73-1.5-3.31-4.79-10.57-3.72-7.26,1.07-9.42,6.59-25.47,5.29-16.05-1.3-19.78,6.56-34.42,4.65"/>
      <path id="ray113" data-name="ray1" class="st4" d="M380,385.34l106.37-4s2,0,2-1.33c0-1.33-2-1.33-2-1.33l-106.37-4M414.37,390.05c13.39,6.13,24.32.87,36.01,6.99,11.69,6.12,21.31,2.3,26.67,2.7,5.36.41,6.85,4.8,8.1,3.69,1.25-1.11-1.22-5.69-8.35-7.48-7.12-1.79-11.22,2.48-25.55-4.86-14.33-7.34-20.79-1.51-33.58-8.88"/>
      <path id="ray114" data-name="ray1" class="st2" d="M377.96,384.93l99.8,37.01s1.85.77,2.36-.46c.51-1.23-1.34-2-1.34-2l-96.74-44.4M407.91,402.44c10.02,10.79,22.14,10.11,30.59,20.23,8.46,10.13,18.81,10.28,23.61,12.71,4.8,2.43,4.49,7.05,6.07,6.51,1.58-.55,1.05-5.73-4.85-10.11-5.89-4.38-11.32-2-21.75-14.27-10.43-12.26-18.63-9.35-27.63-21.05"/>
      <path id="ray115" data-name="ray1" class="st0" d="M376.23,383.78l78.04,72.38s1.41,1.42,2.36.47c.94-.94-.47-2.36-.47-2.36l-72.38-78.04M397.2,411.41c5.13,13.8,16.59,17.81,20.52,30.4,3.94,12.59,13.45,16.69,16.95,20.77,3.5,4.08,1.45,8.24,3.12,8.33,1.67.1,3.16-4.89-.61-11.19-3.77-6.3-9.69-6.18-14.63-21.5-4.94-15.32-13.63-15.77-17.47-30.02"/>
      <path id="ray212" data-name="ray2" class="st8" d="M418.09,373.27c14.13-.71,20.38-8.72,33.26-7.15-10.18-3.45-18.08,4.87-33.11,4.4M381.17,382.47l66.44-30.41-68.49,25.48"/>
      <path id="ray213" data-name="ray2" class="st8" d="M417.77,388.36c13.32,4.75,22.17-.25,33.46,6.13-8.09-7.09-18.56-2.41-32.28-8.61M380.13,382.72l73.02-2.67-73.02-2.67"/>
      <path id="ray214" data-name="ray2" class="st8" d="M411.69,402.18c10.49,9.49,20.58,8.25,28.57,18.47-4.76-9.64-16.23-9.33-26.53-20.3M379.08,382.57l68.48,25.48-66.45-30.41"/>
      <path id="ray215" data-name="ray2" class="st8" d="M400.79,412.62c6.06,12.78,15.86,15.5,19.33,27.99-.71-10.73-11.42-14.83-16.74-28.91M378.17,382.02l53.52,49.75-49.75-53.52"/>
    </g>
    <circle class="st1" cx="380" cy="380" r="43.35"/>
    <path id="loweyecontour" class="st9" d="M394.78,370.73c-2.96,0-5.79,1.28-7.46,3.95,3.33,3,10.7,3.33,15.7-.34-2.17-2.33-5.28-3.61-8.24-3.61h0ZM394.73,371.41c2.88-.05,5.57,1.27,5.95,2.58-3.33,3.67-8.66,3.35-12,.68,1.46-2.33,3.81-3.23,6.05-3.27h0Z"/>
    <path id="uppalpebra" class="st8" d="M395.34,368.67c-4.33,0-5.33,1-7.34,2.67-2,1.67-3,1.33-3.33,1.67-.33.33,0,1.33.67,1s2-1,4-2.67c2-1.67,4-1.67,6-1.67,6,0,9.34,5,10,4.67.67-.33-3.33-5.67-10-5.67h0Z"/>
    <path id="eyebrow_nose" class="st8" d="M407.34,370.67c-7.67-6.67-17.34-7.67-22.67-2.67-1.31,1.75-2.14,3.62-2.49,5.57-.67,3.8.52,7.9,3.49,12.1-.34,0-1,.33-1.34.67-2.65-5.06-3.58-10.26-2.72-15.21.23-1.29.58-2.56,1.04-3.8,7.34-6,17.34-6.67,24.67,3.34h0Z"/>
    <circle id="pupil" class="st8" cx="394.67" cy="373.99" r="3"/>
    <path id="lowpalpebra" class="st8" d="M403.35,376.01c-5.67,4.34-11.34,4-14.67,2-3.33-2-3.33-2.67-2.67-2.67s1.33.67,4,2c2.67,1.34,6.67,1.34,13.34-1.33h0Z"/>
    <path class="st8" d="M373.37,385.99c-1.43.26-2.44,1.53-2.44,2.97,0,1.66,1.37,2.97,3.02,2.97.98,0,1.88-.46,2.44-1.27,1.15.87,2.75.96,3.61.98.13,0,.3,0,.39,0,.86-.02,2.45-.11,3.61-.98.56.8,1.46,1.27,2.44,1.27,1.65,0,3.02-1.32,3.02-2.97,0-1.45-1.01-2.71-2.44-2.97.8.28,1.32,1.06,1.32,1.9,0,1.1-.89,2-2,2s-1.94-.84-2-1.9c-.33.65-1.61,2.58-4.15,2.68-2.53-.1-3.82-2.03-4.15-2.68-.06,1.06-.94,1.9-2,1.9s-2-.9-2-2c0-.85.52-1.62,1.32-1.9h0Z"/>
    <path class="st8" d="M376.63,394.87c-3.34,0-4.65,3.02-7.66,5.02,1.67-.67,2.98-1.98,5.32-3.32,2.33-1.33,4.33.29,5.66.29h.05c1.33,0,3.32-1.63,5.66-.29,2.34,1.34,3.7,2.65,5.36,3.32-3-2-4.37-5.02-7.71-5.02-.67,0-1.98.36-3.32,1.02h-.05c-1.33-.67-2.65-1.02-3.32-1.02Z"/>
    <path class="st8" d="M375.51,398.82c-1.32.06-3.06.32-5.56,1.07,6-1.33,7.33.68,10,.68h.05c2.67,0,3.99-2.02,10-.68-6.67-2-8-.68-10-.68h-.05c-1.25,0-2.24-.49-4.44-.39h0Z"/>
    <path class="st8" d="M370.25,399.85c-.39,0-.81,0-1.27.05,7,.67,3.64,4.68,10.97,4.68h.05c7.34,0,4.02-4.01,11.02-4.68-7.34-.67-5.02,3.66-11.02,3.66h-.05c-5.63,0-3.89-3.78-9.7-3.71h0Z"/>
    <path class="st8" d="M386.01,410.68c0-3.31-2.69-6-6-6s-6,2.69-6,6c.66-2.78,3.15-4.74,6-4.74s5.34,1.96,6,4.74h0Z"/>
    <path id="eyebrow_nose1" data-name="eyebrow_nose" class="st8" d="M353.05,370.67c7.67-6.67,17.34-7.67,22.67-2.67,1.31,1.75,2.14,3.62,2.49,5.57.67,3.8-.52,7.9-3.49,12.1.34,0,1,.33,1.34.67,2.65-5.06,3.58-10.26,2.72-15.21-.23-1.29-.58-2.56-1.04-3.8-7.34-6-17.34-6.67-24.67,3.34h0Z"/>
    <path id="uppalpebra1" data-name="uppalpebra" class="st8" d="M365.05,368.67c4.33,0,5.33,1,7.34,2.67,2,1.67,3,1.33,3.33,1.67.33.33,0,1.33-.67,1s-2-1-4-2.67c-2-1.67-4-1.67-6-1.67-6,0-9.34,5-10,4.67-.67-.33,3.33-5.67,10-5.67h0Z"/>
    <path id="loweyecontour1" data-name="loweyecontour" class="st9" d="M364.85,370.73c-2.96,0-5.79,1.28-7.46,3.95,3.33,3,10.7,3.33,15.7-.34-2.17-2.33-5.28-3.61-8.24-3.61h0ZM364.8,371.41c2.88-.05,5.57,1.27,5.95,2.58-3.33,3.67-8.66,3.35-12,.68,1.46-2.33,3.81-3.23,6.05-3.27h0Z"/>
    <circle id="pupil1" data-name="pupil" class="st8" cx="365.24" cy="373.99" r="3"/>
    <path id="lowpalpebra1" data-name="lowpalpebra" class="st8" d="M357.04,376.01c5.67,4.34,11.34,4,14.67,2,3.33-2,3.33-2.67,2.67-2.67s-1.33.67-4,2c-2.67,1.34-6.67,1.34-13.34-1.33h0Z"/>
  </g>
</svg>