<?xml version="1.0" encoding="UTF-8"?>
<svg id="Laag_1" data-name="Laag 1" xmlns="http://www.w3.org/2000/svg" xmlns:xlink="http://www.w3.org/1999/xlink" viewBox="0 0 760 760">
  <defs>
    <style>
      .cls-1 {
        fill: #fff;
      }

      .cls-2 {
        fill: none;
      }

      .cls-3 {
        fill: red;
      }

      .cls-4 {
        clip-path: url(#clippath);
      }
    </style>
    <clipPath id="clippath">
      <circle class="cls-2" cx="380" cy="380" r="380"/>
    </clipPath>
  </defs>
  <g class="cls-4">
    <rect class="cls-3" x="-407.5" y="-13.84" width="1575" height="787.69"/>
    <rect class="cls-1" x="158.17" y="-13.84" width="443.66" height="787.69"/>
    <path class="cls-3" d="M389.95,679.75l-4.97-95.4c-.27-5.79,4.21-10.71,10.01-10.97.76-.03,1.52.01,2.26.14l94.95,16.69-12.82-35.37c-1.07-2.89-.18-6.13,2.21-8.07l104.02-84.23-23.43-10.94c-3.27-1.55-4.89-5.29-3.76-8.73l20.56-63.23-59.91,12.71c-3.35.7-6.72-1.06-8.07-4.2l-11.61-27.3-46.76,50.18c-2.73,2.88-7.28,3-10.16.27-1.78-1.69-2.58-4.16-2.11-6.57l22.55-116.29-36.15,20.89c-3.42,2.01-7.83.86-9.83-2.57-.08-.14-.16-.28-.23-.42l-36.7-72.07-36.7,72.07c-1.78,3.55-6.09,4.99-9.64,3.21-.14-.07-.28-.15-.42-.23l-36.15-20.89,22.55,116.29c.75,3.9-1.8,7.66-5.7,8.41-2.41.46-4.88-.33-6.57-2.11l-46.76-50.18-11.61,27.3c-1.35,3.14-4.72,4.9-8.07,4.2l-59.91-12.71,20.56,63.23c1.13,3.44-.48,7.19-3.76,8.73l-23.43,10.94,104.02,84.23c2.39,1.94,3.28,5.18,2.21,8.07l-12.82,35.37,94.95-16.69c5.72-.98,11.15,2.85,12.13,8.57.13.75.18,1.51.14,2.26l-4.97,95.4h19.9Z"/>
  </g>
</svg>