<?xml version="1.0" encoding="UTF-8"?>
<svg id="Laag_1" xmlns="http://www.w3.org/2000/svg" version="1.1" xmlns:xlink="http://www.w3.org/1999/xlink" viewBox="0 0 760 760">
  <!-- Generator: Adobe Illustrator 29.5.1, SVG Export Plug-In . SVG Version: 2.1.0 Build 141)  -->
  <defs>
    <style>
      .st0 {
        stroke-width: 2.38px;
      }

      .st0, .st1, .st2, .st3, .st4, .st5, .st6, .st7, .st8, .st9, .st10, .st11 {
        stroke: #ffcd00;
      }

      .st0, .st1, .st12, .st13, .st4, .st5, .st6, .st7, .st9 {
        fill: #fff;
      }

      .st0, .st1, .st5, .st6, .st9, .st11 {
        stroke-linejoin: round;
      }

      .st1 {
        stroke-width: 1.27px;
      }

      .st2 {
        stroke-width: 1.27px;
      }

      .st2, .st14, .st8, .st11 {
        fill: none;
      }

      .st3 {
        stroke-width: .35px;
      }

      .st3, .st15, .st16, .st10 {
        fill: #ffcd00;
      }

      .st13, .st16 {
        fill-rule: evenodd;
      }

      .st4 {
        stroke-width: 1.15px;
      }

      .st4, .st8, .st10 {
        stroke-miterlimit: 10;
      }

      .st5 {
        stroke-width: .89px;
      }

      .st17 {
        clip-path: url(#clippath-1);
      }

      .st6, .st11 {
        stroke-width: 1.27px;
      }

      .st7 {
        stroke-width: 1.22px;
      }

      .st8 {
        stroke-width: .92px;
      }

      .st9 {
        stroke-width: 1.19px;
      }

      .st10 {
        stroke-width: 1.07px;
      }

      .st18 {
        fill: #c8102e;
      }

      .st19 {
        clip-path: url(#clippath);
      }
    </style>
    <clipPath id="clippath">
      <circle class="st14" cx="380" cy="380" r="379.98"/>
    </clipPath>
    <clipPath id="clippath-1">
      <path class="st14" d="M418.18,334.97l-1.19.04c-8.71,0-28.92-4.46-36.71-11.16-8.16,6.19-28.71,11.16-37.28,11.16-.4,0-.8-.04-1.19-.12l.2,5.81c.45,6.88,1.66,13.77,3.49,20.41,5.76,20.89,17.56,38.65,34.47,52.12,16.92-13.48,28.74-31.25,34.51-52.16,1.85-6.67,3.02-13.51,3.5-20.41.12-1.89.19-3.79.21-5.69h0Z"/>
    </clipPath>
  </defs>
  <g class="st19">
    <path d="M-258.03-45.36H1018.03v850.71H-258.03V-45.36Z"/>
    <path class="st12" d="M-258.03-45.36H1018.03v567.14H-258.03V-45.36Z"/>
    <path class="st18" d="M-258.03-45.36H1018.03V238.21H-258.03V-45.36Z"/>
    <g>
      <path class="st1" d="M381.14,383.41l97.11,90.15-6.91-163.72c-1.02-24.81-22.58-19.12-38.24-10.17-15.87,10.17-33.97,10.17-53.09,3.45-19.12,6.71-37.22,6.71-53.09-3.46-15.66-8.95-37.22-14.64-38.24,10.17l-6.92,163.72,99.39-90.15Z"/>
      <path id="C" class="st15" d="M299.84,304.13l-6.71,159.25-11.39,10.16,6.92-163.72c3.25-2.24,8.95-5.7,11.19-5.7h0ZM313.48,315.53l-5.7,133.21-11.39,11.65,6.91-153.82c2.24,2.24,8.95,7.73,10.17,8.95h0ZM325.89,325.7l-4.47,111.11-9.15,8.95,5.7-126.76c2.23,2.24,6.71,5.49,7.93,6.71h0ZM339.31,331.4l-4.47,94.69-8.95,7.26,4.47-105.41c2.24,1.02,6.71,3.46,8.95,3.46h0ZM351.72,331.4l-3.26,78.91-9.15,8.95,3.46-86.85c2.23,0,7.93,0,8.95-1.02h0Z"/>
      <path id="C1" data-name="C" class="st15" d="M460.14,304.13l6.71,159.25,11.39,10.16-6.92-163.72c-3.25-2.24-8.95-5.7-11.19-5.7h0ZM446.5,315.53l5.7,133.21,11.39,11.65-6.91-153.82c-2.24,2.24-8.95,7.73-10.17,8.95h0ZM434.1,325.7l4.47,111.11,9.15,8.95-5.7-126.76c-2.23,2.24-6.71,5.49-7.93,6.71h0ZM420.67,331.4l4.47,94.69,8.95,7.26-4.47-105.41c-2.24,1.02-6.71,3.46-8.95,3.46h0ZM408.26,331.4l3.26,78.91,9.15,8.95-3.46-86.85c-2.23,0-7.93,0-8.95-1.02h0Z"/>
      <path class="st10" d="M384.47,401.36l13.63,62.04-4.48,4.47-4.68-3.46-7.73-55.32,3.26,55.32-4.48,5.69-4.47-5.69,3.26-55.32-7.73,55.32-4.68,3.46-4.47-4.47,13.63-62.04h8.95,0Z"/>
      <g id="D">
        <path class="st9" d="M349.48,374.11l-27.05,96,37.23,5.7,15.86-72.2-26.04-29.49h0Z"/>
        <g>
          <path class="st11" d="M340.53,406.86l3.25,7.93,17.59-16.8"/>
          <path class="st11" d="M352.71,386.98l3.68,34.52,11.19-14.64M363.11,412.54l6.11,21.09M371.61,425.89l-12.36,18.77M363.11,463.4l-3.96-18.71-3.45-19.03-8.28,11.21-3.63-12.93-11.59,11.89,5.89,21.62,8.14-13.38,4.47,13.63,8.35-12.99M330.35,467.87l7.51-10.55,4.9,16.24,6.71-11.39,4.48,13.63"/>
        </g>
      </g>
      <g id="D1" data-name="D">
        <path class="st9" d="M410.5,374.11l27.05,96-37.23,5.7-15.86-72.2,26.04-29.49h0Z"/>
        <g>
          <path class="st11" d="M419.45,406.86l-3.25,7.93-17.59-16.8"/>
          <path class="st11" d="M407.27,386.98l-3.68,34.52-11.19-14.64M396.88,412.54l-6.11,21.09M388.37,425.89l12.36,18.77M396.88,463.4l3.96-18.71,3.45-19.03,8.28,11.21,3.63-12.93,11.59,11.89-5.89,21.62-8.14-13.38-4.47,13.63-8.35-12.99M429.63,467.87l-7.51-10.55-4.9,16.24-6.71-11.39-4.48,13.63"/>
        </g>
      </g>
      <g>
        <path class="st0" d="M379.99,513.01c28.28,0,55.33-2.24,71.19-6.71,6.71-1.22,6.71-4.68,6.71-9.15,6.71-2.24,3.25-10.17,7.93-10.17-4.68,1.22-5.69-7.93-11.39-6.71,0-7.94-7.93-8.95-14.65-6.72-13.43,4.48-37.23,5.49-59.81,5.49-22.58-1.02-46.17-1.02-59.8-5.49-6.71-2.23-14.64-1.22-14.64,6.72-5.7-1.22-6.71,7.93-11.39,6.71,4.68,0,1.22,7.93,7.93,10.17,0,4.48,0,7.94,6.92,9.15,15.66,4.48,42.72,6.71,70.99,6.71h0Z"/>
        <g>
          <path class="st6" d="M341.55,470.09c9.15,1.22,19.32,2.24,27.26,1.22,4.47,0,7.73,7.73-1.22,8.95-7.93,1.01-20.34,0-27.05-1.22-5.7-1.02-18.1-3.25-26.04-5.49-7.93-3.45-2.23-10.16,2.24-9.15,6.92,2.24,15.87,4.47,24.82,5.69h0ZM418.44,470.09c-9.15,1.22-19.32,2.24-27.05,1.22-4.68,0-7.93,7.73,1.02,8.95,7.93,1.01,20.34,0,27.05-1.22,5.7-1.02,18.1-3.25,26.04-5.49,7.94-3.45,2.24-10.16-2.24-9.15-6.92,2.24-15.87,4.47-24.81,5.69h0Z"/>
          <path class="st6" d="M313.48,465.63c-6.91-1.22-10.17,6.71-7.93,11.18,1.02-2.24,5.69-2.24,6.71-4.47,1.22-3.46-1.02-3.46,1.22-6.71h0ZM340.53,486.43c0-4.47,4.47-3.92,4.47-8.4,0-2.24-1.22-5.7-3.45-5.7s-4.48,2.24-4.48,4.47c-1.02,4.48,3.46,5.15,3.46,9.62ZM372.73,473.55c6.71,0,6.04,8.95,2.79,13.43,0-3.25-5.69-4.47-5.69-6.71,0-3.46,5.14-3.46,2.91-6.72ZM446.5,465.63c6.92-1.22,10.17,6.71,7.93,11.18-1.02-2.24-5.7-2.24-6.71-4.47-1.22-3.46,1.02-3.46-1.22-6.71h0ZM419.45,486.43c0-4.47-4.47-3.92-4.47-8.4,0-2.24,1.22-5.7,3.46-5.7s4.47,2.24,4.47,4.47c1.02,4.48-3.46,5.15-3.46,9.62h0ZM387.25,473.55c-6.71,0-6.04,8.95-2.79,13.43,0-3.25,5.69-4.47,5.69-6.71,0-3.46-5.14-3.46-2.9-6.72h0Z"/>
        </g>
        <path class="st5" d="M315.72,467.87c2.24,0,5.7,1.02,6.71,2.24l-6.72-2.24h0ZM326.89,471.33c1.22,0,5.7,1.02,7.93,2.23l-7.94-2.24h0ZM367.59,475.79c-2.24,0-6.71,0-7.93,1.01l7.93-1.02h0ZM355.18,475.79c-1.22-1.22-5.69-1.22-7.93,0h7.93ZM444.28,467.87c-2.24,0-5.49,1.02-6.71,2.24l6.71-2.24ZM433.09,471.33c-1.22,0-5.7,1.02-7.93,2.23l7.94-2.24h0ZM392.4,475.79c2.24,0,6.71,0,7.93,1.01l-7.94-1.02h0ZM404.8,475.79c1.22-1.22,5.7-1.22,7.93,0h-7.94,0Z"/>
      </g>
      <path class="st15" d="M313.84,485.75c-.76-.14-1.15-.74-.96-1.45.23-.86.92-1.36,1.58-1.13.42.15,1.18.91,1.18,1.19,0,.32-.4,1.07-.57,1.07-.07,0-.19.07-.26.14-.14.17-.59.25-.96.18h0ZM391.72,491.31c-.28-.1-.73-.74-.73-1.03,0-.55.81-1.44,1.32-1.45.25,0,.93.35,1.18.62.46.48.36,1.27-.22,1.71-.28.22-1.13.3-1.55.15h0ZM392.23,494.82c-.6-.2-.81-.49-.86-1.15-.05-.69.02-.8.74-1.19l.52-.28.49.22c.68.3.98.63,1.01,1.09.03.49-.34,1-.91,1.25-.5.22-.53.23-.99.07h0ZM320.09,479.38c-.49-.02-1.16.44-1.55.66-.92.22-1.99.78-2.88.18-.88-.27-2.04-.06-2.17,1.02.22.92,1.52,1.45,2.3.84.58-.76,2.17-1.21,2.35.09-.65.98-.57,2.28-1.11,3.32-.09.65-.36,1.27-.71,1.82-.66.07-1.35-.01-1.91.4-.89.05-1.79.49-2.3,1.24-.57.82-1.12,1.65-1.28,2.66.15,1.03,1.33,1.32,2.22,1.37.95.26,1.89.6,2.84.89,1.54.34,2.98.9,4.52,1.24,2.25.68,4.61.99,6.87,1.6.24.08.46.15.71.18.94.19,1.43-.83,1.51-1.59.47-1.64.82-3.32,1.28-4.96.32-.66.7-2.15-.58-1.82-.73.44-1.35,1.1-2.26,1.15-1.24.07-.53,1.34-.04,1.86.11.83-.16,1.83-.71,2.48-.74.47-1.66-.08-2.44-.27-.81.01-2.44-.4-1.68-1.51.27-.82.29-1.71.62-2.53.42-.87.48-1.82.66-2.75-.51-1.1-1.39.36-2.08.49-.48.33-2.28.47-1.33,1.33.82.62.19,1.7.04,2.48-.05,1.09-1.19,1.35-2.08,1.11-.89-.04-2.13-.71-1.37-1.68.17-.82.46-1.62.62-2.44l.97-2.92c.15-.88.47-1.71.89-2.48.02-.97.68-1.81.66-2.79-.07-.48-.28-.66-.58-.66h0ZM314.99,489.66c.12-.02.2,0,.31.04.35.15.36.44,0,.75-.16.14-.34.27-.4.27-.66-.06-.86-.16-.89-.4-.02-.21.04-.28.49-.49.22-.11.37-.16.49-.18ZM313.52,496.78c-.7-.66-.59-1.14.45-1.92.45-.33.71-.29,1.22.17.78.71.81,1.17.12,1.78-.34.3-.49.36-.89.37-.42,0-.53-.05-.91-.4ZM317.85,498.08c-.66-.16-1.06-.81-.9-1.47,0-.02.01-.05.02-.07.18-.62.29-.68,1.19-.69,1.01,0,1.21.16,1.22,1.05,0,.5-.03.62-.28.85-.29.27-.86.42-1.25.32h0ZM444.19,498.2c-.32-.27-.39-.39-.39-.73,0-.58.33-1.01,1.06-1.34.97-.44,1.36-.38,1.73.26.48.85.46,1.2-.12,1.78-.32.32-.38.34-1.11.34-.72,0-.8-.01-1.16-.31ZM323.59,499.83c-.52-.14-.78-.52-.79-1.14,0-.47.03-.55.36-.81.21-.17.55-.31.82-.35.38-.05.52-.02.82.19.78.55.95,1.09.49,1.62-.48.56-.94.69-1.71.49ZM354.67,501.22c-.11-.14-.37-.23-.39-.41.05-.79.08-1.58.33-2.34.14-.74.02-1.52.28-2.24.27-1.31.26-2.67.57-3.98.01-.67.08-1.35.27-1.99.22-1.02.02-2.09.32-3.1-.03-.38.4-1.39.79-.79.56.82,1.29,1.48,2.01,2.15.62.36.05.89-.38,1.06-.59.23-.73.88-.69,1.45-.08.59-.32,1.14-.34,1.74-.12.88-.1,1.78-.21,2.66-.26.86-.16,1.79-.25,2.68.01.57-.26,1.08-.22,1.65-.07.58-.09,1.27-.58,1.66-.47.24-1.14.19-1.51-.2h0ZM396.78,487.32c-.68.52-1.3,1.13-1.91,1.73-.84.64.69,1.01.89,1.55.22.83.21,1.72.27,2.57.25.78.37,1.61.31,2.44-.07.88-1.22.7-1.73,1.2-.7.29-.98.98-1.51,1.46-.35.68-.44,1.53-.49,2.3.05.63-.43,1.35,0,1.91.06.08.12.19.18.27.14.21.49.04.71.09.71-.04,1.46.07,2.13-.22,1.72-.3,3.45-.32,5.18-.4,1.06.03,2.08-.34,3.15-.31.83.18,1.21-.72,1.2-1.37-.47-.93-.06-2.03-.44-2.97-.33-.95-.2-2.02-.35-3.01-.02-.78-1.01-1.07-1.51-.49-.48.49-1.27.59-1.64,1.2-.42.85.89.85,1.11,1.51.25.66.17,1.39.22,2.08.16.84-.75.89-1.33.97-.76.29-1.83.48-2.26-.44-.27-.68-.23-1.41-.31-2.13-.02-1.26-.32-2.51-.4-3.77-.07-1.56-.34-3.1-.44-4.65-.01-.65-.1-1.7-1.02-1.51h0ZM395.89,499.02l.44.04.04.53.04.53-.58.18c-.19.06-.38.1-.58.13-.09-.06-.18-.11-.27-.18-.31-.22-.23-.55.18-.97.23-.24.34-.29.71-.27h0ZM353.41,485.86c-.54.19-1.22.98-1.77.97-1.25.09-1.07,1.3-.18,1.73.12.37,0,.83.04,1.24.17,1.12-.53,2.02-.4,3.15-.06,1.23-.44,2.44-.49,3.68-.35,1.28-.35,2.6-.58,3.9-.15,1.17-.99.76-1.73.44,0-.51-.04-1-.04-1.51.31-1.16-.63-1.5-1.55-1.64-.97.09-1.45-.74-1.24-1.6.42-.5,1.47-.36,2.13-.44,1.39.29,1.34-1.58.62-2.22-.49-.9-1.7-1.29-2.04-2.22.14-1.23-.68-2.46-1.68-3.06-1.54-.11-2.71,1.22-3.28,2.53-.64.19-1.28.38-1.91.62-1.01.25-2.44,1.99-1.06,2.66.77.21,3.12.75,2.08,1.82-.58,1-1.7,1.02-2.7.75-1.03,0-2.17-.5-2.13-1.68-.21-1.06-.17-2.21-.66-3.19-.21-1.19-1.56-.91-1.64.18-1.04.76-.9,1.98-.18,2.88.45,1.03,0,2.24-.44,3.19-.27,1.24-1.64,1.28-2.61,1.68-.48.19-2.31-.11-1.64.93,1.07.38,2.34.72,3.46.44,1.17-.14,2.18-.94,2.75-1.95.78-.79,2.13-.38,3.15-.4,1.1,0,2.22.77,3.28.27.31-.8,1.73-2.12,2.17-.75-.07,1.22,1.01,1.88,2.13,1.73,1.22-.07.77.87.75,1.59.08,1.32.94,2.02,2.04,2.57.38.1.77.07,1.15,0,1.06-.33,2.2-.81,2.53-1.99.43-.97.44-2.06.75-3.06.25-1.6.58-3.2.62-4.83.39-1.47.28-3.03.58-4.52.19-1.11.33-2.22.44-3.32-.13-.59-.39-.69-.71-.58h0ZM343.79,491.75c.21.03.33.29.35.75.02.52.29.94.62,1.02.26.06.24.34-.04.53-.16.11-.46.18-.97.18-.82,0-1.33-.22-1.77-.66l-.27-.27.4-.27c.28-.22.55-.46.8-.71.4-.41.67-.6.89-.58ZM437.42,480.59c-.8.04-1.61.17-2.35.35-1.47-.09-2.22,1.46-.8,2.22.85,2.18,2.18-.45,3.54-.27,2.04.4,2.21,2.6,2.53,4.25.11,1.64.59,3.24,1.06,4.79,1.36,1.52-1.02,2.47-2.04,1.28-.87-.94-2.72-2.1-3.77-.8-1.28.54-1.33,2.25-2.39,2.75-1.71.52-1.93-1.59-2.84-2.48-.83-1.17-2.43-1.27-3.72-1.68-.61-1.23-.29-3.33-1.55-4.16-1.06.43-3,2.41-1.37,3.32,1.58,1.36-.69,1.99-1.42,2.92-1.04,1.16-1.2,2.75-1.37,4.21-1.79.99-2.13-1.12-2.35-2.44-.14-1.58-1.47-1.11-2.39-.53-1.35.55-2.02,1.83-2.97,2.84-.11.92.05,1.92.04,2.88.31,1.15,1.7.61,2.57.53,1.39-.58,1.96.89.84,1.73-.75.96-3.15.46-2.92,1.99.77.09,1.57.06,2.35,0,1.55-.42,3.21-1.51,3.37-3.23.2-1.5,2.36-1.23,3.54-1.55,1.48-.43,3.25-.53,3.59,1.33,1.01,1.06,3.19,2.25,4.3.8,1.13-.69,1.67-1.9,1.59-3.19-.23-1.11,1.8-1.15,2.3-.53.74,1.22,3.05.86,4.17.18,1.19-.88,1.44-2.42,3.15-2.44,2.53-.76,5.15-1.19,7.62-2.13,2-.44-.3-1.7-.8-2.44-1.52-.75-2.85,2.33-4.56.8-1.33-1.02-1.24-2.94-1.73-4.43-.34-1.92-.25-4.14-1.64-5.67-.95-1.01-2.25-1.26-3.59-1.2h0ZM427.76,494.01c.18,0,.38.08.71.27.62.34,1.06.91,1.06,1.37,0,.3-.08.32-.53.53-.28.13-.6.27-.71.27-.26,0-.89-.51-.89-.71,0-.08-.08-.41-.18-.66-.17-.45-.14-.45.09-.75.15-.19.26-.31.44-.31h0ZM437.02,494.5c.53-.03.84.13,1.06.53.26.47.08.82-.58,1.11-.29.12-.58.23-.62.22s-.28-.15-.53-.31c-.38-.25-.44-.37-.44-.66,0-.45.5-.85,1.11-.89h0ZM424.34,494.63c.15-.02.3.06.49.22.26.22.34.4.4.84.04.31.04.71,0,.89-.07.32-.08.31-.8.31-.91,0-.99-.09-.97-.93.01-.53.02-.68.31-.97.23-.23.42-.33.58-.35h0ZM416.55,496.67c.28.07.55.28.62.62.09.45.01.66-.35.84-.31.16-1.04.21-1.24.09-.06-.04-.2-.15-.27-.27-.1-.17-.08-.25.04-.35.09-.07.18-.17.18-.22s.1-.23.22-.4c.21-.27.51-.38.8-.31h0ZM429.66,498.35c.25,0,.47.09.62.22.26.23.25.57-.04.8-.19.15-1.24.13-1.59,0-.16-.06-.22-.14-.22-.31,0-.2.05-.32.4-.49.29-.14.59-.22.84-.22h0ZM405.32,505.19c-.14-.09-.34-.17-.13-.31.24-.43.73-.58,1.17-.74.78-.34,1.45-.91,1.95-1.59.07-.47.6-.73.6-1.22,0-.67.04-1.36-.12-2.02-.18-.6-.64-1.07-1.17-1.38-.36-.29-.96-.36-1.09-.87-.07-.49.36-.86.51-1.29.32-.6.58-1.22.92-1.81.37-.41.93-.02,1.12.37.27.39.51.82.64,1.27.43.47.81,1.02.96,1.65.21.44.54.85.52,1.37,0,.59.33,1.12.31,1.71.02.79.02,1.62-.27,2.37-.2.42-.6.67-.86,1.04-.45.42-.95.82-1.53,1.04-.41.13-.65.6-1.16.49-.73.01-1.47.11-2.19,0,.05.08-.22-.13-.18-.08h0ZM395.6,505.82c-.34-.35-.42-.5-.42-.85,0-.35.06-.49.4-.83.62-.63.93-.64,2-.1,1.03.52,1.37.57,1.46.2.09-.35.68-.68,1.24-.68.35,0,.56.07.84.29.36.28.37.32.38.96,0,.66,0,.68-.41,1.04-.39.35-.46.37-.94.32-.62-.06-.99-.35-1.09-.83-.07-.35-.2-.44-.29-.2-.03.08-.18.17-.34.21-.29.07-.78.38-1.13.71-.13.12-.36.18-.74.19-.5,0-.57-.03-.96-.42h0ZM367.5,493.21c-.94,0-1.96.8-2.08,1.73.22,1.07,1.1,2.11.53,3.23.39,1.44-1.08,1.98-2.08,1.15-.61-1.38-.91-2.89-1.82-4.12-1.14-.32-1.64,1.5-2.44,2.13.4,1.07,1.55,2.03,1.68,3.37.28,1.3-.51,2.74-1.64,3.41-.97.93-2.3.6-3.5.8-1.45.85,1.07,1.16,1.73,1.2,1.49.15,3.03-.04,4.12-1.15,1.09-.52,1.01-2.41,2.3-2.61,2.25-.1,4.48.35,6.73.4,1.2.29,3.07-.14,3.9.75,0,1.57,1.33,2.54,2.61,3.15.71.2,1.45-.68,2.17-.84,1.37-.44.95-2.13,1.77-2.79,2.34-.13,4.7-.1,7.04-.13.45.01.58-.62.89-.89-.05-.91-.08-1.8-.22-2.7-.45-1.14.07-2.62-.75-3.59-1.18-.32-2.18.76-3.37.84-1.31.58-2.42,1.8-2.48,3.28-.78,1.27-2.02-.23-1.6-1.28-.05-.46.1-1-.04-1.42-.72-.86-1.98-.58-2.97-.71-1.44.06-2.85-.25-4.3-.22-1.27-.1-2.58.11-3.81-.22-1.46-.04-1.26-1.47-1.51-2.48-.26-.19-.57-.27-.89-.27ZM370.34,498.43c.49,0,.94.07,1.42.13.61.1,1.26-.21,1.86,0,1.38.24,2.77.18,4.17.31.37,0,.63.26.89.49v2.92c-.04.37.11.85-.22,1.11-.11.07-.22.15-.35.18-.38-.1-.79-.35-.97-.71-.06-.51.03-1,.04-1.51,0-.13.06-.34,0-.44-.3-.21-.64-.35-1.02-.35-1.2-.04-2.38-.13-3.59-.18-1-.06-2.03.09-3.01-.18-.38-.14-.88-.09-1.11-.49-.33-.39.15-.85.49-1.02.45-.21.93-.28,1.42-.27h0ZM386.33,498.79c.23,0,.3.07.4.49l.18.71c.05.17-.03.22-.27.31-.7.26-1.4.24-1.64-.09-.11-.15.02-.62.22-.8.41-.37.86-.62,1.11-.62h0Z"/>
      <g>
        <path class="st7" d="M397.45,313.49c.95.06-1.28-5.06-1.28-5.06,2.5,2.56,11.95,3.17,11.95,3.17-5.67-2.5-11.34-21.4-10.67-36.47.61-15.12-2.17-21.07-4.39-23.29-2.84-2.84-11.95-5.34-17.96-5.67-3.39-.17-2.84,2.56-2.84,2.56-6.28-1.61-12.56-2.22-15.4-.33-2.67,1.78-3.23,10.67-1.28,9.12,4.72-3.78,8.84-.33,11.67,3.78,2.5,3.61,2.34,13.84-1.28,25.79-3.78,12.56-14.12,25.13-14.12,25.13,5.61,0,13.51-5,13.51-5l-1.89,7.84c5.95-2.84,10.67-7.23,10.67-7.23l5.67,5.95c1.89-2.5,5.67-5.95,5.67-5.95,0,0,4.72,5,11.95,5.67h0Z"/>
        <path class="st2" d="M374.49,277.31s-3.17,23.29-9.12,29.91M379.5,276.7s-1.22,23.57-5.34,31.13M383.94,277.65s0,25.79,1.56,30.18M389.55,278.93s1.28,21.68,6.62,29.52"/>
        <path class="st3" d="M368.76,266.02c-.28-2.06-.78-3.67-1.5-4.73-2.84-4.11-6.95-7.56-11.67-3.78,0,0,1.61-5,5.06-5.17,2.67-.17,8.73,2,14.07,11.12,0,0-3.95-.89-4.89-.06-1.78,1.56-1.06,2.61-1.06,2.61h0ZM355.1,251.35c.39-1.28,1-2.45,1.78-2.95,2.84-1.89,9.12-1.28,15.4.33,0,0-.56-2.72,2.84-2.56,6,.33,15.12,2.84,17.95,5.67.67.72,1.45,1.78,2.11,3.39h-.11c-1.39-1.95-5.34-1.83-6.28-1.72-1.5.17-2.45.11-4.45.61-.94.22-2.39.5-3.17,1.11-.61.5-1.11,2.34-2.06,2.34-1.5,0-1.39-.39-1.78-.83-.5-.61-.78-1.5-1.28-1.45-1.56.28-4.06-.94-7.23-3.45s-4.39-3.11-8.51-2.84c-4.06.33-5.34,2.61-5.34,2.61l.11-.28Z"/>
        <circle class="st12" cx="378.33" cy="253.35" r="1.67"/>
      </g>
      <path class="st4" d="M379.96,418.61c46.28-35.6,42.31-87.74,42.31-87.74-1.22.24-2.38.37-3.6.37-9.71,0-32.86-5.55-38.26-12.61-5.79,6.39-29.45,12.61-39.1,12.61-1.22,0-2.44-.12-3.6-.37,0,0-4.03,52.14,42.25,87.74h0Z"/>
      <path class="st8" d="M418.59,334.69l-1.2.04c-8.8,0-29.23-4.51-37.11-11.28-8.25,6.25-29.02,11.28-37.68,11.28-.41,0-.81-.05-1.2-.12-.02,1.97.08,4.02.2,5.88.46,6.95,1.68,13.92,3.53,20.63,5.82,21.12,17.75,39.07,34.84,52.68,17.11-13.63,29.04-31.59,34.88-52.72,1.85-6.71,3.08-13.68,3.54-20.63.11-1.95.22-4.33.21-5.75h0Z"/>
      <g class="st17">
        <g>
          <path id="B" class="st16" d="M341.16,322.95h25.89v91.18h-25.89v-91.18Z"/>
          <path class="st13" d="M367.05,322.95h25.89v91.18h-25.89v-91.18Z"/>
          <path class="st16" d="M392.94,322.95h25.89v91.18h-25.89v-91.18Z"/>
        </g>
      </g>
    </g>
  </g>
</svg>