<?xml version="1.0" encoding="UTF-8"?>
<svg id="Laag_1" xmlns="http://www.w3.org/2000/svg" version="1.1" xmlns:xlink="http://www.w3.org/1999/xlink" viewBox="0 0 760 760">
  <!-- Generator: Adobe Illustrator 29.5.1, SVG Export Plug-In . SVG Version: 2.1.0 Build 141)  -->
  <defs>
    <style>
      .st0 {
        stroke-width: .29px;
      }

      .st0, .st1, .st2, .st3, .st4, .st5, .st6, .st7, .st8, .st9, .st10, .st11, .st12, .st13, .st14, .st15, .st16, .st17, .st18, .st19, .st20, .st21, .st22, .st23, .st24, .st25, .st26, .st27, .st28, .st29, .st30, .st31, .st32, .st33, .st34, .st35, .st36, .st37, .st38, .st39, .st40, .st41, .st42, .st43, .st44, .st45, .st46, .st47, .st48 {
        stroke: #000;
      }

      .st0, .st2, .st5, .st49, .st14, .st26, .st27, .st33, .st34, .st44 {
        fill: #fff;
      }

      .st1 {
        stroke-width: .16px;
      }

      .st1, .st36 {
        fill: green;
      }

      .st2, .st7, .st23, .st41 {
        stroke-width: .32px;
      }

      .st3, .st10, .st11, .st21, .st50, .st28, .st47 {
        fill: #d21034;
      }

      .st3, .st17, .st19, .st30 {
        stroke-width: .29px;
      }

      .st4 {
        isolation: isolate;
        opacity: .98;
      }

      .st4, .st5, .st10, .st25, .st29, .st32, .st34, .st40, .st42, .st45, .st46, .st47 {
        stroke-width: .15px;
      }

      .st4, .st8, .st51, .st17, .st18, .st30, .st37, .st39, .st41, .st43, .st46 {
        fill: none;
      }

      .st4, .st17, .st27, .st29, .st31, .st32, .st34, .st47 {
        stroke-linecap: round;
      }

      .st6 {
        stroke-width: .24px;
      }

      .st6, .st7, .st9, .st12, .st15, .st20, .st22, .st31, .st32, .st52, .st38, .st40 {
        fill: #f1b517;
      }

      .st6, .st15 {
        stroke-miterlimit: 6.31;
      }

      .st9, .st14, .st21, .st24, .st27, .st35, .st43 {
        stroke-width: .3px;
      }

      .st11, .st13, .st18, .st36, .st44 {
        stroke-width: .26px;
      }

      .st12 {
        stroke-width: .12px;
      }

      .st13, .st53, .st23, .st25, .st35, .st48 {
        fill: #00209f;
      }

      .st15 {
        stroke-width: .47px;
      }

      .st16, .st19, .st24, .st54 {
        fill: #016a16;
      }

      .st20, .st26, .st28, .st31, .st48 {
        stroke-width: .57px;
      }

      .st22, .st39 {
        stroke-width: 1.23px;
      }

      .st29 {
        fill: #f4cf0e;
      }

      .st33 {
        stroke-width: .31px;
      }

      .st37 {
        stroke-width: .6px;
      }

      .st38 {
        stroke-width: .16px;
      }

      .st42 {
        fill: #f1b617;
      }

      .st55 {
        clip-path: url(#clippath);
      }
    </style>
    <clipPath id="clippath">
      <circle class="st51" cx="380" cy="380" r="379.98"/>
    </clipPath>
  </defs>
  <g class="st55">
    <path id="path1" class="st50" d="M-260.2-4.12H1020.2v768.23H-260.2V-4.12Z"/>
    <path id="path2" class="st53" d="M-260.2-.37H1020.2v384.12H-260.2V-.37Z"/>
    <g id="g346">
      <path id="path3" class="st49" d="M155.15,196.3h449.7v366.75H155.15V196.3Z"/>
      <path id="path4" class="st54" d="M379.08,456.41v.2c-9.67,1.02-113.51,12.39-141.73,33.46-29.59,22.09-82.2,45.23-82.2,45.23v28.4h449.7v-28.4s-52.61-23.14-82.2-45.23c-28.22-21.07-132.06-32.44-141.73-33.46v-.2s-.8.09-.92.1c-.12-.01-.92-.1-.92-.1h0Z"/>
      <g id="g13">
        <path id="path5" class="st14" d="M303.96,521.47c-1.24-3.15-11.43-2.9-19.39-.48-7.95,2.42-12.43,1.69-29.58,1.94-17.15.24-26.84,4.11-28.33,4.6s-27.34,12.82-37.28,15.97-19.39,0-19.39,0c0,0,11.43,10.89,27.59,2.18,0,0-13.42,7.26-22.12,8.23,0,0,12.98,2.65,23.95-1.97.98-.41,1.95-.88,2.89-1.42,6.87-3.32,12.99-5.9,18.52-7.9,31.45-11.39,43.68-4.14,65.24-9.52"/>
        <path id="path6" class="st33" d="M303.9,521.01c-1.47,2.78-9.93,1.22-15.37,2.95,1.31,1.12,5.04,3.09,15.54,5.04,1.74-6.36-.17-7.99-.17-7.99h0Z"/>
        <path id="path7" class="st43" d="M219.62,542.02c-10.1,3.32-14.98,6.38-20.51,8.38M218.38,540.18c-8.77,3.03-13.8,5.94-19.17,7.96M217.14,538.34c-7.43,2.74-12.62,5.5-17.84,7.53M215.89,536.5c-6.1,2.45-11.44,5.05-16.51,7.1M214.65,534.66c-4.76,2.16-10.26,4.61-15.18,6.67"/>
        <path id="path8" class="st18" d="M231.46,537.15s14.15-4.16,25.09-2.86M233.06,534.55s13.28-3.64,24.96-2.66M234.66,531.95s12.41-3.12,24.82-2.47M236.26,529.35s11.54-2.6,24.69-2.27M237.87,526.76s10.68-2.08,24.56-2.08"/>
        <path id="path9" class="st43" d="M275.5,524.42s6.38-1.52,12.8-2.42c5.47-.77,10.96-1.09,12.56.34"/>
        <path id="path10" class="st43" d="M274.3,526.63s7.46-.81,13.47-2.27"/>
        <path id="path11" class="st43" d="M273.1,528.84s8.53-.11,14.14-2.12"/>
        <path id="path12" class="st43" d="M271.9,531.04s9.6.6,14.81-1.97"/>
        <path id="path13" class="st43" d="M270.69,533.04s10.69,1.16,15.5-1.62"/>
      </g>
      <g id="g34">
        <path id="path14" class="st22" d="M326.48,339.39l15.45,31.81,3.53-1.72,27.6,50.72.22-8.6-26.17-44.85,1.23-.93-1.77-1.93-.86.48-.03-.05s-1.77-.21-1.99.43l-17.22-25.36Z"/>
        <path id="path15" class="st26" d="M326.48,339.39l15.45,31.81,3.53-1.72-1.86-4.87-17.12-25.22ZM357.78,385.05c-.9.32-2.23.83-3.1,1.37l3.81,7c.63-.46,1.85-1.23,3.09-1.38.1-.01.17-.05.23-.1l-4.03-6.9Z"/>
        <path id="path16" class="st8" d="M346.57,363.89l-.8.44,1.36,2.4,1.2-.91-1.77-1.93Z"/>
        <path id="path17" class="st39" d="M326.48,339.39l15.45,31.81,3.53-1.72,27.6,50.72.22-8.6-26.17-44.85,1.23-.93-1.77-1.93-.86.48-.03-.05s-1.77-.21-1.99.43l-17.22-25.36Z"/>
        <g id="g25">
          <g id="g21">
            <path id="path18" class="st22" d="M336.55,327.38l12.12,33.15,3.69-1.37,22.26,53.14,1.1-8.53-21.45-47.16,1.32-.81-1.56-2.1-.9.39-.02-.05s-1.73-.38-2.02.24l-14.54-26.9Z"/>
            <path id="path19" class="st26" d="M336.55,327.38l12.12,33.15,3.69-1.37-1.35-5.02-14.46-26.75Z"/>
            <path id="path20" class="st8" d="M354.03,353.71l-.84.36,1.11,2.52,1.29-.79-1.56-2.1Z"/>
            <path id="path21" class="st39" d="M336.55,327.38l12.12,33.15,3.69-1.37,22.26,53.14,1.1-8.53-21.45-47.16,1.32-.81-1.56-2.1-.9.39-.02-.05s-1.73-.38-2.02.24l-14.54-26.9Z"/>
          </g>
          <path id="path22" class="st5" d="M336.55,327.38l12.12,33.15,3.69-1.37-1.35-5.02-14.46-26.75Z"/>
          <path id="path23" class="st18" d="M354.03,353.71l-.84.36,1.11,2.52,1.29-.79-1.56-2.1Z"/>
          <path id="path24" class="st26" d="M359.65,368.43c-1.07.28-2.02.94-2.75,1.56l2.93,7c.88-.53,2.04-1.01,3.08-1.39l-3.26-7.17Z"/>
          <path id="path25" class="st41" d="M336.55,327.38l12.12,33.15,3.69-1.37,22.26,53.14,1.1-8.53-21.45-47.16,1.32-.81-1.56-2.1-.9.39-.02-.05s-1.73-.38-2.02.24l-14.54-26.9Z"/>
        </g>
        <g id="g33">
          <g id="g29">
            <path id="path26" class="st22" d="M349.73,323.34l9.62,33.91,3.78-1.1,18.25,54.57,1.73-8.43-17.89-48.55,1.37-.71-1.4-2.2-.93.33-.02-.05s-1.7-.51-2.03.09l-12.5-27.86Z"/>
            <path id="path27" class="st26" d="M349.73,323.34l9.62,33.91,3.78-1.1-.98-5.11-12.43-27.7Z"/>
            <path id="path28" class="st8" d="M365.21,350.83l-.86.3.92,2.59,1.34-.69-1.4-2.2Z"/>
            <path id="path29" class="st39" d="M349.73,323.34l9.62,33.91,3.78-1.1,18.25,54.57,1.73-8.43-17.89-48.55,1.37-.71-1.4-2.2-.93.33-.02-.05s-1.7-.51-2.03.09l-12.5-27.86Z"/>
          </g>
          <path id="path30" class="st5" d="M349.73,323.34l9.62,33.91,3.78-1.1-.98-5.11-12.43-27.7Z"/>
          <path id="path31" class="st18" d="M365.21,350.83l-.86.3.92,2.59,1.34-.69-1.4-2.2Z"/>
          <path id="path32" class="st26" d="M369.72,365.91c-1.09.21-2.09.79-2.86,1.36l2.4,7.19c.92-.47,2.11-.86,3.18-1.16l-2.72-7.38Z"/>
          <path id="path33" class="st41" d="M349.73,323.34l9.62,33.91,3.78-1.1,18.25,54.57,1.73-8.43-17.89-48.55,1.37-.71-1.4-2.2-.93.33-.02-.05s-1.7-.51-2.03.09l-12.5-27.86Z"/>
        </g>
      </g>
      <g id="g144">
        <path id="path34" class="st50" d="M319.02,436.58l3.26,31.4,41.01-2.66-44.27-28.74Z"/>
        <path id="path35" class="st53" d="M240.25,401.93s2.98,50.08,18.64,75.25l63.88-9.19-1.74-30.49-80.78-53.47v17.9Z"/>
        <path id="path36" class="st13" d="M300.05,325.01c3.82,1.63,7.25.33,7.25.33,0,0,1.68,2.12-2.85,2.37,0,0-1.8.16-.59,2.12"/>
        <path id="path37" class="st21" d="M294.69,321.22s6.83-5.43,11.15-5.1c4.32.33,4.53.24,4.91.98.38.73,1.13,4.12-.8,6.61-1.93,2.49-2.73,1.88-3.06,1.35-.34-.53-3.06-2.08-8.22-.94"/>
        <path id="path38" class="st48" d="M305.43,316.1c.14,0,.28,0,.41.01,4.32.33,4.53.25,4.91.98.26.51.7,2.27.32,4.13-.64-.6-1.97-1.17-4.72-1.03-5.45.29-8.64,2.45-8.64,2.45l-.54.37-2.48-1.8s6.41-5.09,10.74-5.12Z"/>
        <path id="path39" class="st50" d="M374.4,445.85l-48.88-43.36c-10.91,4.66-10.07,13.14-2.51,23.79l-.23,10.67,39.98,27.13,10.96-2.67.46-9.78.23-5.78Z"/>
        <path id="path40" class="st50" d="M372.91,417.93l-29.96-37.58-7.58,16.37,2.37,15.45,35.76,32.73-.59-26.97Z"/>
        <path id="path41" class="st53" d="M342.84,381.04s-6.04,13.49-5.09,30.89l-36.47-33.08-17.41-15.33.36.23,2.25-10.6,1.07-5.99,2.84.69v-3.46l.47-3,2.49-4.73,2.01-5.07.47-4.26-.95-5.07,1.3.58,46.65,58.21Z"/>
        <path id="path42" class="st13" d="M234.85,383.58s-3.55,3.46-4.03,11.3c-.47,7.84-.36,13.26-.36,13.26,0,0,5.8,3.34,11.25,1.96,0,0-.95-2.31-1.07-5.53-.12-3.23.12-19.94.12-19.94l-5.92-1.04Z"/>
        <path id="path43" class="st28" d="M238.16,384.62l2.6.17c0,.32-.23,16.58-.12,19.77.12,3.23,1.07,5.53,1.07,5.53-1.99.51-4.03.38-5.82.01-.04-.63-.69-10.21-.58-15.23.12-5.19,2.84-10.26,2.84-10.26h0Z"/>
        <path id="path44" class="st52" d="M192.09,526.28c-1.09-2.76-4.03-3.4-4.03-3.4,0,0-.22-.21.65-2.23.87-2.02.44-3.5.44-3.5-.33-10.72.76-13.58.76-13.58-.76,0-4.25,4.03-4.25,4.03.11-10.19,15.59-14.96,15.59-14.96-5.67,14.01-3.49,15.6-3.49,15.6-3.6-1.49-4.03-3.82-4.03-3.82-.65,3.82-.11,11.25-.11,11.25,0,0-.22,3.5,3.16,1.8,3.38-1.7,17-8.06,17-8.06l1.42,2.76-18.75,8.49s-2.72,1.17-1.96,3.18c.76,2.02,1.2,2.33,1.2,2.33l-3.6.11Z"/>
        <path id="path45" class="st43" d="M193.61,515.67s-.55-7.43.11-11.25c0,0,.44,2.33,4.03,3.82,0,0-2.18-1.59,3.49-15.6,0,0-15.48,4.77-15.59,14.96,0,0,3.49-4.03,4.25-4.03,0,0-1.09,2.86-.76,13.58"/>
        <path id="path46" class="st46" d="M192.09,526.28c-1.09-2.76-4.03-3.4-4.03-3.4,0,0-.22-.21.65-2.23.87-2.02.44-3.5.44-3.5-.33-10.72.76-13.58.76-13.58-.76,0-4.25,4.03-4.25,4.03.11-10.19,15.59-14.96,15.59-14.96-5.67,14.01-3.49,15.6-3.49,15.6-3.6-1.49-4.03-3.82-4.03-3.82-.65,3.82-.11,11.25-.11,11.25,0,0-.22,3.5,3.16,1.8,3.38-1.7,17-8.06,17-8.06l1.42,2.76-18.75,8.49s-2.72,1.17-1.96,3.18c.76,2.02,1.2,2.33,1.2,2.33"/>
        <path id="path47" class="st40" d="M220.65,505.67c.43,0,1.29.09,2,.64.36.27.66.69.75,1.21s-.02,1.15-.38,1.87c-.74,1.49-2.21,2.04-3.41,2.2-1.2.16-2.22-.05-2.22-.05l.18-.88s.89.17,1.92.04,2.12-.54,2.7-1.7c.3-.61.35-1.04.3-1.33s-.2-.49-.41-.65c-.43-.33-1.21-.45-1.43-.45-.38,0-.7-.06-1.32.24-.62.3-1.5.99-2.67,2.55l-.74-.53c1.23-1.63,2.2-2.42,3-2.81.8-.39,1.46-.34,1.73-.34h0Z"/>
        <path id="path48" class="st40" d="M219.23,515.24s-.44-7-5.01-9.44c0,0-1.09.11-1.2.95-.11.85,4.25,8.28,4.25,8.28l1.96.21Z"/>
        <path id="path49" class="st12" d="M218.71,514.45s-.36-5.83-4.18-7.87c0,0-.91.09-1,.8-.09.71,3.54,6.9,3.54,6.9l1.63.18Z"/>
        <ellipse id="circle49" class="st32" cx="260.65" cy="497.36" rx="4.9" ry="4.77"/>
        <path id="path50" class="st50" d="M197.73,447.76s-8.25.46-8.16,4.43,1.33,7.85-1.42,8.59c-2.75.74-8.44.74-9.86,2.22s-1.42,3.14-1.42,3.14c0,0,7.11-2.49,10.24-.74s6.41-1.01,6.92-1.94c1.14-2.03.47-6,2.66-6.74,2.18-.74,9.11-.83,9.11-.83l-8.06-8.13Z"/>
        <path id="path51" class="st53" d="M257.61,393.11c-1.29-21.66,2.58-47.09,2.58-47.09l.32-3.77,66.76,62.16s-4.52,6.61-3.85,32.96l-5.18-3.45-60.63-40.81Z"/>
        <path id="path52" class="st18" d="M257.61,393.11c-1.29-21.66,2.58-47.09,2.58-47.09l.32-3.77"/>
        <g id="g56">
          <path id="path53" class="st9" d="M275.47,295.02l8.94,20.29s2.6-2.57,4.7.1l2.1,2.66M275.51,294.99l17.25,14.33s-3.29,1.65-1.3,4.4l1.98,2.74-2.23,1.6"/>
          <g id="g55">
            <path id="path54" class="st9" d="M298.04,311.97l-12.28,8.74,3.22,4.29,12.28-8.74-3.22-4.29Z"/>
            <path id="path55" class="st40" d="M297.77,313.29l-10.63,7.57,2.12,2.82,10.63-7.57-2.12-2.82Z"/>
          </g>
        </g>
        <g id="g59">
          <path id="path56" class="st9" d="M235.8,320.15l12.13,18.65s2.15-2.94,4.66-.63l2.5,2.3M235.83,320.12l19.37,11.49s-2.98,2.14-.57,4.54l2.4,2.4-1.94,1.92"/>
          <g id="g58">
            <path id="path57" class="st15" d="M260.84,333.41l-10.7,10.52,3.88,3.74,10.7-10.52-3.88-3.74Z"/>
            <path id="path58" class="st6" d="M260.79,334.75l-9.26,9.11,2.55,2.46,9.26-9.11-2.55-2.46Z"/>
          </g>
        </g>
        <g id="g62">
          <path id="path59" class="st9" d="M209.97,362.57l15.23,16.35s1.6-3.25,4.48-1.4l2.87,1.85M210,362.54l21.1,8.09s-2.56,2.61.24,4.57l2.79,1.96-1.57,2.22"/>
          <g id="g61">
            <path id="path60" class="st9" d="M236.98,371.46l-8.69,12.15,4.48,3.03,8.69-12.15-4.48-3.03Z"/>
            <path id="path61" class="st40" d="M237.16,372.79l-7.52,10.52,2.95,2,7.52-10.52-2.95-2Z"/>
          </g>
        </g>
        <path id="path62" class="st9" d="M295.64,320.28l77.55,95.88-.5,1.49-78.26-96.45,1.21-.92Z"/>
        <path id="path63" class="st9" d="M262.15,343.71l112.13,101.25-1.04,1.1-112.13-101.26,1.04-1.09Z"/>
        <path id="path64" class="st9" d="M244.1,384.26l119.38,79.54-.87,1.23-119.38-79.54.87-1.23Z"/>
        <path id="path65" class="st13" d="M256.88,345.05s11.25-2.1,13.99-.48c2.74,1.62-4.8,1.71-6.26,1.24l2.84,2.76s6.46-1.52,7.54-7.43-3.23-5.91-4.21-5.81c-.98.1-6.65.95-13.9,9.72Z"/>
        <path id="path66" class="st10" d="M273.04,338.84c1.24.36,2.17,1.2,1.85,2.78,0,0-.49,1.81-.98,2.76-.03-.06-.09-.12-.15-.17-.37.56-.79,1.06-1.24,1.5-.38-.14-.75-.26-1.1-.35.14-.21,0-.47-.54-.79-.3-.18-.72-.31-1.2-.41-2.04-.76-5.1.03-5.75-.07l-3.43.19s10.2-6.12,12.54-5.44h0Z"/>
        <path id="path67" class="st46" d="M261.38,343.9s12.54-3.65,12.54-.13"/>
        <path id="path68" class="st43" d="M256.88,345.05s11.25-2.1,13.99-.48c2.74,1.62-4.8,1.71-6.26,1.24l2.84,2.76s6.46-1.52,7.54-7.43-3.23-5.91-4.21-5.81c-.98.1-6.65.95-13.9,9.72Z"/>
        <path id="path69" class="st25" d="M258.34,344.96c.29,1.38.62,3.18.45,3.99-3.66,9.11-8.65,9.31-6.69,20.38l-3.86-.11c-.42-5.14.42-10,1.39-12.17.49-1.08,1.56-2.37,2.74-3.62,1.18-1.25,2.47-2.47,3.37-3.41,1.81-1.89.56-4.33.56-4.33l2.05-.75Z"/>
        <path id="path70" class="st11" d="M260.74,344.08s.68,1.74.68,4.19c0,1.22-.17,2.62-.68,4.06-.51,1.44-.94,2.87-1.3,4.45-.71,3.16-1.11,6.95-1.2,12.72l-6.14-.17c-1.95-11.07,3.03-11.27,6.69-20.38.17-.81-.16-2.62-.45-3.99l2.39-.87Z"/>
        <path id="path71" class="st43" d="M256.3,345.71s1.25,2.43-.56,4.33c-.9.95-2.19,2.16-3.37,3.41-1.18,1.25-2.26,2.53-2.74,3.62-.97,2.16-1.81,7.03-1.39,12.17M248.24,369.23l10,.27c.09-5.77.49-9.55,1.2-12.72.35-1.58.79-3.01,1.3-4.45s.68-2.84.68-4.06c0-2.44-.68-4.19-.68-4.19l-4.44,1.62"/>
        <path id="path72" class="st46" d="M255.04,369.37s-1.39-6.08,1.81-11.49c3.22-5.53,4.18-13.94,2.5-13.38"/>
        <path id="path73" class="st38" d="M266.23,457.68l8.64,14.71,34.13,2.47,3.22.42s4.99,11.44,10.52,12.96c5.53,1.52,42.56,12.76,42.56,12.76l1.14-8.24-23.99-7.54s-7.04-2.52-9.13-5.19-19.54-18.94-19.54-18.94l-47.54-3.43Z"/>
        <g id="g75">
          <path id="path74" class="st9" d="M281.52,420.16l49.6,80.48-1.05.62-49.6-80.48,1.05-.62Z"/>
          <path id="path75" class="st14" d="M282.52,423.41s-1.4,1.29-3.14-.77c-1.74-2.07-6.82-10.59-7.8-12.14s-2.23-2.84-.57-3.87c1.65-1.03,3.96.26,5.87,4.13s8.15,10.59,5.64,12.65Z"/>
        </g>
        <g id="g90">
          <path id="path76" class="st20" d="M238.62,434.47c-1.85-.24-5.01,3.28-5.86,9.41-.85,6.13-.03,11.29,1.82,11.54.68.08,1.43-.51,2.17-1.71l99.03,12.97,2.08-18.21-98.25-11.36c-.32-2.34-.06-2.5-.99-2.63Z"/>
          <path id="path77" class="st29" d="M333.94,448.1s-.57.91-.81,1.49M331.79,447.86s-.57.91-.81,1.49M329.65,447.61s-.57.91-.81,1.49M327.51,447.37s-.57.91-.81,1.49M325.37,447.12s-.57.91-.81,1.49M323.22,446.88s-.57.91-.81,1.49M321.08,446.63s-.57.91-.81,1.49M318.94,446.39s-.57.91-.81,1.49M316.8,446.15s-.57.91-.81,1.49M314.65,445.9s-.57.91-.81,1.49M312.51,445.66s-.57.91-.81,1.49M310.37,445.41s-.57.91-.81,1.49M308.23,445.17s-.57.91-.81,1.49M306.09,444.92s-.57.91-.81,1.49M303.94,444.68s-.57.91-.81,1.49M301.8,444.43s-.57.91-.81,1.49M299.66,444.19s-.57.91-.81,1.49M297.52,443.94s-.57.91-.81,1.49M295.37,443.7s-.57.91-.81,1.49M293.23,443.45s-.57.91-.81,1.49M291.09,443.21s-.57.91-.81,1.49M288.95,442.96s-.57.91-.81,1.49M286.8,442.72s-.57.91-.81,1.49M284.66,442.48s-.57.91-.81,1.49M282.52,442.23s-.57.91-.81,1.49M280.38,441.99s-.57.91-.81,1.49M278.23,441.74s-.57.91-.81,1.49M276.09,441.5s-.57.91-.81,1.49M273.95,441.25s-.57.91-.81,1.49M271.81,441.01s-.57.91-.81,1.49M269.66,440.76s-.57.91-.81,1.49M267.52,440.52s-.57.91-.81,1.49M265.38,440.27s-.57.91-.81,1.49M263.24,440.03s-.57.91-.81,1.49M261.1,439.78s-.57.91-.81,1.49M258.95,439.54s-.57.91-.81,1.49M256.81,439.29s-.57.91-.81,1.49M254.67,439.05s-.57.91-.81,1.49M252.53,438.81s-.57.91-.81,1.49M250.38,438.56s-.57.91-.81,1.49M248.24,438.32s-.57.91-.81,1.49M246.1,438.07s-.57.91-.81,1.49M243.96,437.83s-.57.91-.81,1.49M241.81,437.58s-.57.91-.81,1.49M239.67,437.34s-.57.91-.81,1.49"/>
          <path id="path78" class="st18" d="M236.22,443.1l100.29,13.13"/>
          <path id="path79" class="st18" d="M235.92,445.29l100.29,13.13"/>
          <path id="path80" class="st18" d="M235.61,447.48l100.29,13.13"/>
          <path id="path81" class="st18" d="M235.46,448.58l100.29,13.13"/>
          <path id="path82" class="st18" d="M235.31,449.68l100.29,13.13"/>
          <path id="path83" class="st18" d="M235.16,450.77l100.29,13.13"/>
          <path id="path84" class="st18" d="M235.01,451.87l100.29,13.13"/>
          <path id="path85" class="st18" d="M234.86,452.97l100.29,13.13"/>
          <path id="path86" class="st32" d="M253.53,437.16c-1.74-.11-3.48,4.34-3.88,9.93,0,0,0,0,0,0-.4,5.59.69,10.21,2.44,10.32,0,0,0,0,0,0,.33.02.66-.13.99-.43-1.14-1.53-1.7-5.37-1.39-9.62.32-4.4,1.48-8.25,2.89-9.5-.32-.43-.67-.67-1.04-.7h0Z"/>
          <path id="path87" class="st32" d="M323.66,446.34c-1.74-.11-3.48,4.34-3.88,9.93,0,0,0,0,0,0-.4,5.59.69,10.21,2.44,10.32h0c.33.02.66-.13.99-.43-1.14-1.53-1.7-5.37-1.39-9.62.32-4.4,1.48-8.25,2.89-9.5-.32-.43-.67-.67-1.04-.7h0Z"/>
          <g id="g89">
            <path id="path88" class="st40" d="M338.35,454.49l5.59-.37s3.43,1.15,3.65,2.58c.21,1.43.33,3.54.05,4.1s-6.8,1.71-9.09-.29l-.19-6.02Z"/>
            <path id="path89" d="M347.59,456.7c-2.24.53-6.18.32-9.17.04l.12,3.77c2.29,2,8.81.85,9.09.29.28-.56.16-2.68-.05-4.1,0,0,0,0,0,0h0Z"/>
          </g>
          <path id="path90" class="st31" d="M337.31,447.97c-.22-.02-.45.12-.68.4.48,1.96.61,5.25.36,8.75-.29,4.02-1.05,7.64-1.94,9.27.26.73.57,1.13.92,1.16,1.21.11,2.49-4.19,2.86-9.6,0,0,0,0,0,0,.37-5.41-.31-9.88-1.52-9.98,0,0,0,0,0,0h0Z"/>
        </g>
        <g id="g108">
          <path id="path91" class="st31" d="M280.91,448.12v.07c1.13.25,1.97,1.23,1.97,2.41v16.48l-11.97-11.66c-.86-.83-.97-2.1-.35-3.06l-.05-.05-5.19,5.05.02.02c1-.78,2.45-.73,3.37.18l12.17,11.85h-17.34c-1.21,0-2.22-.82-2.47-1.92h-.07v7.14h.03c.14-1.24,1.2-2.2,2.51-2.2h17.22l-12.26,11.93c-.86.83-2.16.95-3.15.34l-.05.05,5.19,5.05.02-.02c-.8-.97-.75-2.38.18-3.28l12.17-11.85v16.87c0,1.18-.84,2.16-1.97,2.41v.07h7.34v-.03c-1.27-.14-2.26-1.17-2.26-2.44v-17.15l12.46,12.13c.93.9.98,2.31.18,3.28l.02.02,5.19-5.05-.05-.05c-.98.6-2.29.49-3.14-.34l-12.26-11.93h17.22c1.31,0,2.37.96,2.51,2.2h.03v-7.14h-.07c-.26,1.1-1.26,1.92-2.47,1.92h-17.33l12.17-11.85c.93-.9,2.37-.95,3.37-.18l.02-.02-5.19-5.05-.05.05c.62.96.51,2.23-.35,3.06l-12.26,11.93v-16.76c0-1.28.99-2.31,2.26-2.44v-.03h-7.34Z"/>
          <ellipse id="circle91" class="st32" cx="284.43" cy="471.27" rx="4.67" ry="4.55"/>
          <path id="path92" class="st31" d="M284.43,440.97c-17.07,0-30.9,13.47-30.9,30.08h0c0,16.61,13.83,30.08,30.9,30.08h0c17.07,0,30.9-13.47,30.9-30.08h0c0-16.61-13.83-30.08-30.9-30.08h0ZM284.43,448.63c12.72,0,23.04,10.04,23.04,22.43,0,12.39-10.31,22.43-23.04,22.43-12.72,0-23.04-10.04-23.04-22.43,0-12.39,10.31-22.43,23.04-22.43Z"/>
          <ellipse id="circle92" cx="284.43" cy="444.68" rx=".99" ry=".96"/>
          <ellipse id="circle93" cx="284.43" cy="497.15" rx=".99" ry=".96"/>
          <g id="g95">
            <ellipse id="circle94" cx="303.49" cy="452.37" rx=".99" ry=".96"/>
            <ellipse id="circle95" cx="265.38" cy="489.47" rx=".99" ry=".96"/>
          </g>
          <g id="g97">
            <ellipse id="circle96" cx="265.38" cy="452.37" rx=".99" ry=".96"/>
            <ellipse id="circle97" cx="303.49" cy="489.47" rx=".99" ry=".96"/>
          </g>
          <g id="g99">
            <ellipse id="circle98" cx="257.48" cy="470.92" rx=".99" ry=".96"/>
            <ellipse id="circle99" cx="311.38" cy="470.92" rx=".99" ry=".96"/>
          </g>
          <g id="g101">
            <ellipse id="circle100" cx="259.46" cy="480.77" rx=".99" ry=".96"/>
            <ellipse id="circle101" cx="309.41" cy="461.06" rx=".99" ry=".96"/>
          </g>
          <g id="g103">
            <ellipse id="circle102" cx="309.17" cy="481.33" rx=".99" ry=".96"/>
            <ellipse id="circle103" cx="259.7" cy="460.5" rx=".99" ry=".96"/>
          </g>
          <g id="g105">
            <ellipse id="circle104" cx="295" cy="446.78" rx=".99" ry=".96"/>
            <ellipse id="circle105" cx="273.87" cy="495.05" rx=".99" ry=".96"/>
          </g>
          <g id="g107">
            <ellipse id="circle106" cx="273.87" cy="446.78" rx=".99" ry=".96"/>
            <ellipse id="circle107" cx="295" cy="495.05" rx=".99" ry=".96"/>
          </g>
        </g>
        <ellipse id="circle108" class="st32" cx="248.74" cy="497.36" rx="4.9" ry="4.77"/>
        <g id="g111">
          <path id="path108" class="st5" d="M369.04,434.18s-12.04,5.05-13.08-3.64c0,0-7.27,8.89,2.7,14.55,0,0-4.57-7.07,10.38-7.88,0,0,2.08.2,1.87-1.41s-1.87-1.62-1.87-1.62Z"/>
          <path id="path109" d="M370.92,436.07c-1.7.15-5.6.56-11.64,1.74-2.68.52-4.56.2-5.88-.48-.02,2.57,1.17,5.43,5.25,7.75,0,0-4.57-7.07,10.38-7.88,0,0,1.83.18,1.88-1.13h0Z"/>
          <path id="path110" class="st5" d="M363.73,434.1l-1.01.15,4.15,27.08,1.01-.15-4.15-27.08Z"/>
          <path id="path111" class="st5" d="M364.14,434.05l-1.82.26.84,5.45,1.82-.26-.84-5.45Z"/>
        </g>
        <g id="g114">
          <ellipse id="ellipse111" class="st5" cx="340.61" cy="506.23" rx="7.31" ry="3.35"/>
          <g id="g113">
            <path id="path112" class="st20" d="M341.26,466.49c-.67-.03-1.33.08-1.51.47-.36.79.72.96.72.96v4.47c0,1.4-1.17,22.5-1.71,26.61-.19,1.48-.56,2.72-.96,3.69,0,0-5.16.6-4.89,2.88.27,2.28,3.06,3.78,7.73,3.68,5.77-.13,7.37-1.31,7.64-2.71.27-1.4-1.35-2.71-3.78-3.15l-1.26-7s.27,1.05,3.6.35c3.33-.7,3.24-5.6,3.24-5.6,0,0,.09-14.71-.09-17.42-.18-2.71-1.71-4.03-3.87-4.81-1.71-.26-2.88.09-3.06,1.05-.18.96-.63,1.23-.9.88s0-2.98,0-2.98c0,0,1.26-.61.72-.96-.27-.18-.97-.35-1.64-.38h0ZM345.6,471.51l1.17.61.36,3.15v15.93l-.18,1.05-1.53,1.23-1.71-.35-.9-1.05-.63-14.27-.18-4.55,2.16-1.4,1.44-.35Z"/>
            <path id="path113" class="st46" d="M344.97,505.04s-1.98-4.9-2.43-17.77c-.45-12.87-.63-13.92,0-14.53.63-.61,2.43-1.66,3.51-1.05,1.08.61.81.79.99,2.98.18,2.19.18,16.37.18,16.37,0,0-.54,2.36-1.89,2.28-1.35-.09-2.34-.61-2.52-1.58"/>
          </g>
          <path id="path114" class="st46" d="M336.34,505.31s1.89-2.19,2.43-6.3c.54-4.11,1.71-25.21,1.71-26.61v-4.46"/>
        </g>
        <g id="g116">
          <path id="path115" class="st44" d="M314.6,490.01s6.6.19,8.74,4.16c2.14,3.97.97,7.75-1.55,9.26s-7.96,2.65-10.49,1.13-4.27-6.43-1.36-6.99c2.91-.57,7.77-1.51,7.19-3.4-.58-1.89-3.11-1.89-3.11-1.89l.58-2.27Z"/>
          <path id="path116" class="st5" d="M315.49,489.15l-1.21-.19-.96,4.18,1.21.19.96-4.18Z"/>
        </g>
        <path id="path117" class="st14" d="M221.8,469.35l27.89,14.13-.15.28-1.96.34-26.49-13.42.71-1.32Z"/>
        <path id="path118" class="st14" d="M220.97,470.01l15.71,27.08-2.55-1.36-14.5-24.99,1.34-.73Z"/>
        <path id="path119" d="M194.11,443.68s0,0,0,0c.2,0,.39.09.53.23l26.47,25.58c.3.29.3.76,0,1.06-.3.29-.78.3-1.09,0,0,0,0,0,0,0l-26.02-25.14v-1.71s.07,0,.1,0h0Z"/>
        <path id="path120" class="st27" d="M216.81,465.65c.2,0,.39.09.53.23l26.28,25.39-2.3-.11-25.06-24.21c-.31-.28-.32-.76-.03-1.06.15-.15.36-.24.58-.23h0Z"/>
        <ellipse id="circle120" class="st32" cx="316.35" cy="516.46" rx="4.9" ry="4.77"/>
        <ellipse id="circle121" class="st32" cx="304.67" cy="506.91" rx="4.9" ry="4.77"/>
        <ellipse id="circle122" class="st32" cx="286.69" cy="508.05" rx="4.9" ry="4.77"/>
        <ellipse id="circle123" class="st32" cx="273.03" cy="515.32" rx="4.9" ry="4.77"/>
        <ellipse id="circle124" class="st32" cx="261.12" cy="515.32" rx="4.9" ry="4.77"/>
        <ellipse id="circle125" class="st32" cx="249.21" cy="515.32" rx="4.9" ry="4.77"/>
        <ellipse id="circle126" class="st32" cx="237.3" cy="515.32" rx="4.9" ry="4.77"/>
        <ellipse id="circle127" class="st32" cx="266.96" cy="506.45" rx="4.9" ry="4.77"/>
        <ellipse id="circle128" class="st32" cx="255.05" cy="506.45" rx="4.9" ry="4.77"/>
        <ellipse id="circle129" class="st32" cx="243.14" cy="506.45" rx="4.9" ry="4.77"/>
        <path id="path129" class="st21" d="M292.22,323.5s.38,3.74-2.88,5.99c-3.27,2.24-7.11,4.68-8.65,11.04-1.54,6.36-.38,5.61-.38,5.61l10.18,1.68s-1.15-4.49,1.35-8.04,6.15-13.84,2.69-17.96l-2.31,1.68Z"/>
        <path id="path130" class="st48" d="M292.54,323.27c.61,1.45,1.67,4.88-.71,7.34-3.07,3.18-5.96,4.68-7.11,8.98-.69,2.58-1.15,5.23-1.43,7.04l-2.99-.49s-1.15.75.38-5.61c1.54-6.36,5.38-8.79,8.65-11.03,3.27-2.24,2.88-5.99,2.88-5.99l.32-.24Z"/>
        <path id="path131" class="st46" d="M293.75,321.63s1.92,4.3-.19,8.6c-2.11,4.3-4.23,6.36-5.38,9.16-1.15,2.81,0,5.42-1.35,7.48"/>
        <path id="path132" class="st34" d="M214.05,510.62c.22.02.39.22.37.44-.02.22-.22.38-.45.36-.01,0-.03,0-.04,0,0,0-6.96-1.06-12.13,4.07-.15.17-.41.19-.58.04-.17-.14-.19-.39-.04-.56.01-.01.02-.03.04-.04,5.47-5.43,12.84-4.3,12.84-4.3h0Z"/>
        <path id="path133" class="st5" d="M201.91,518.28s.01,1.07-.88,2.09c-.89,1.02-2.67,2-6.07,2.11l-.02-.8c3.25-.1,4.75-1,5.47-1.83.72-.82.68-1.55.68-1.55l.82-.02Z"/>
        <path id="path134" class="st52" d="M192.09,526.28c-1.09-2.76-4.03-3.4-4.03-3.4,0,0-.22-.21.65-2.23.87-2.02.44-3.5.44-3.5-.33-10.72.76-13.58.76-13.58-.76,0-4.25,4.03-4.25,4.03.11-10.19,15.59-14.96,15.59-14.96-5.67,14.01-3.49,15.6-3.49,15.6-3.6-1.49-4.03-3.82-4.03-3.82-.65,3.82-.11,11.25-.11,11.25,0,0-.22,3.5,3.16,1.8,1.81-.91,10.57-5.05,10.57-5.05l.84,2.92-11.73,5.31s-2.72,1.17-1.96,3.18c.76,2.02,1.2,2.33,1.2,2.33l-3.6.11Z"/>
        <path id="path135" d="M212.14,510.53c-.14.25-.28.52-.42.81-.2,0-.4.02-.61.04.14-.29.28-.56.41-.82.22-.01.43-.02.62-.02h0ZM210.06,510.69c-.1.26-.19.54-.29.84-.19.03-.39.07-.6.11.09-.3.19-.59.28-.86.21-.04.4-.06.6-.09ZM207.83,511.14c-.05.27-.1.56-.14.87-.19.06-.38.12-.57.18.04-.31.08-.6.13-.87.19-.06.39-.12.57-.18ZM205.59,511.93c0,.28.01.56.03.87-.18.08-.35.17-.53.26-.02-.3-.03-.59-.04-.87.18-.09.36-.18.54-.26h0ZM203.53,513.05c.06.27.12.55.19.83-.16.11-.32.22-.48.34-.08-.29-.13-.57-.19-.85.16-.11.32-.22.48-.33Z"/>
        <path id="path136" d="M200.59,519.61l.39.81c-.12.13-.26.26-.41.39l-.36-.76c.07-.07.14-.14.2-.2.07-.08.13-.16.19-.24ZM199.48,520.6l.1.87c-.16.08-.34.16-.52.24l-.1-.83c.19-.09.36-.18.51-.27ZM198.18,521.18l-.16.88c-.18.05-.38.09-.57.13l.16-.85c.2-.05.4-.1.58-.16ZM197.02,521.47l-.38.86c-.2.03-.41.06-.63.08l.38-.85c.22-.03.43-.05.63-.09Z"/>
        <path id="path137" class="st35" d="M241.01,374.93s6.16-2.88,7.58-.46,2.01,7.26,0,10.14c0,0-8.76,1.04-13.26-.46l-.59-.35,6.28-8.88Z"/>
        <path id="path138" class="st28" d="M247.11,377.58c.98-.02,1.91.28,2.65.61.3,2.21.04,4.68-1.18,6.43,0,0-7.76.92-12.42-.22,2.24-.69,6.11-4.29,8.75-6.12.71-.49,1.47-.69,2.2-.7Z"/>
        <path id="path139" class="st46" d="M249.77,382.43s-2.96-1.96-7.7.12c-4.74,2.07-4.74,1.73-4.74,1.73"/>
        <path id="path140" class="st43" d="M241.01,374.93s6.16-2.88,7.58-.46,2.01,7.26,0,10.14c0,0-8.76,1.04-13.26-.46l-.59-.35,6.28-8.88Z"/>
        <path id="path141" class="st46" d="M239.23,384.73s-.95,3.92-1.18,12.1c-.24,8.18,1.54,13.72,2.25,13.6"/>
        <path id="path142" class="st18" d="M234.85,383.58s-3.55,3.46-4.03,11.3c-.47,7.84-.36,13.26-.36,13.26,0,0,5.8,3.34,11.25,1.96,0,0-.95-2.31-1.07-5.53-.12-3.23.12-19.94.12-19.94"/>
        <path id="path143" class="st43" d="M287.78,347.16s-2.84,11.41-3.2,16.71"/>
        <path id="path144" class="st46" d="M309.78,323.71s-2.89-3.84-11.45-.49"/>
      </g>
      <path id="path145" class="st19" d="M374.35,308.59l1.56-49.73,7.26-3.79,2.07,53.52h-10.89Z"/>
      <path id="path146" class="st23" d="M377.33,213.36s-.7,0-1.87-1.14c-1.17-1.14-1.87-1.14-.94-2.73.94-1.59,2.1-3.64,6.08-3.41,3.97.23,7.01.46,8.42,4.55s1.87,15.02.7,19.57c-6.08-.23-15.2-5.01-16.6-8.19-1.4-3.19,4.21-8.65,4.21-8.65Z"/>
      <g id="g167">
        <path id="path147" class="st22" d="M433.15,339.39l-15.45,31.81-3.53-1.72-27.6,50.72-.22-8.6,26.17-44.85-1.23-.93,1.77-1.93.86.48.03-.05s1.77-.21,1.99.43l17.22-25.36Z"/>
        <path id="path148" class="st26" d="M433.15,339.39l-15.45,31.81-3.53-1.72,1.86-4.87,17.12-25.22ZM401.84,385.05c.9.32,2.23.83,3.1,1.37l-3.81,7c-.63-.46-1.85-1.23-3.09-1.38-.1-.01-.17-.05-.23-.1l4.03-6.9Z"/>
        <path id="path149" class="st8" d="M413.06,363.89l.8.44-1.36,2.4-1.2-.91,1.77-1.93Z"/>
        <path id="path150" class="st39" d="M433.15,339.39l-15.45,31.81-3.53-1.72-27.6,50.72-.22-8.6,26.17-44.85-1.23-.93,1.77-1.93.86.48.03-.05s1.77-.21,1.99.43l17.22-25.36Z"/>
        <g id="g158">
          <g id="g154">
            <path id="path151" class="st22" d="M423.07,327.38l-12.12,33.15-3.69-1.37-22.26,53.14-1.1-8.53,21.45-47.16-1.32-.81,1.56-2.1.9.39.02-.05s1.73-.38,2.02.24l14.54-26.9Z"/>
            <path id="path152" class="st26" d="M423.07,327.38l-12.12,33.15-3.69-1.37,1.35-5.02,14.46-26.75Z"/>
            <path id="path153" class="st8" d="M405.59,353.71l.84.36-1.11,2.52-1.29-.79,1.56-2.1Z"/>
            <path id="path154" class="st39" d="M423.07,327.38l-12.12,33.15-3.69-1.37-22.26,53.14-1.1-8.53,21.45-47.16-1.32-.81,1.56-2.1.9.39.02-.05s1.73-.38,2.02.24l14.54-26.9Z"/>
          </g>
          <path id="path155" class="st5" d="M423.07,327.38l-12.12,33.15-3.69-1.37,1.35-5.02,14.46-26.75Z"/>
          <path id="path156" class="st18" d="M405.59,353.71l.84.36-1.11,2.52-1.29-.79,1.56-2.1Z"/>
          <path id="path157" class="st26" d="M399.97,368.43c1.07.28,2.02.94,2.75,1.56l-2.93,7c-.88-.53-2.04-1.01-3.08-1.39l3.26-7.17Z"/>
          <path id="path158" class="st41" d="M423.07,327.38l-12.12,33.15-3.69-1.37-22.26,53.14-1.1-8.53,21.45-47.16-1.32-.81,1.56-2.1.9.39.02-.05s1.73-.38,2.02.24l14.54-26.9Z"/>
        </g>
        <g id="g166">
          <g id="g162">
            <path id="path159" class="st22" d="M409.89,323.34l-9.62,33.91-3.78-1.1-18.25,54.57-1.73-8.43,17.89-48.55-1.37-.71,1.4-2.2.93.33.02-.05s1.7-.51,2.03.09l12.5-27.86Z"/>
            <path id="path160" class="st26" d="M409.89,323.34l-9.62,33.91-3.78-1.1.98-5.11,12.43-27.7Z"/>
            <path id="path161" class="st8" d="M394.42,350.83l.86.3-.92,2.59-1.34-.69,1.4-2.2Z"/>
            <path id="path162" class="st39" d="M409.89,323.34l-9.62,33.91-3.78-1.1-18.25,54.57-1.73-8.43,17.89-48.55-1.37-.71,1.4-2.2.93.33.02-.05s1.7-.51,2.03.09l12.5-27.86Z"/>
          </g>
          <path id="path163" class="st5" d="M409.89,323.34l-9.62,33.91-3.78-1.1.98-5.11,12.43-27.7Z"/>
          <path id="path164" class="st18" d="M394.42,350.83l.86.3-.92,2.59-1.34-.69,1.4-2.2Z"/>
          <path id="path165" class="st26" d="M389.91,365.91c1.09.21,2.09.79,2.86,1.36l-2.4,7.19c-.92-.47-2.11-.86-3.18-1.16l2.72-7.38Z"/>
          <path id="path166" class="st41" d="M409.89,323.34l-9.62,33.91-3.78-1.1-18.25,54.57-1.73-8.43,17.89-48.55-1.37-.71,1.4-2.2.93.33.02-.05s1.7-.51,2.03.09l12.5-27.86Z"/>
        </g>
      </g>
      <path id="path167" class="st17" d="M385.51,215.04s-4.91.91-4.68,3.19"/>
      <path id="path168" class="st30" d="M383.17,209.94s-5.61,1.37-7.48,6.14"/>
      <path id="path169" class="st30" d="M380.6,210.63s-3.27,2.73-4.68,1.82"/>
      <path id="path170" class="st3" d="M375.08,217.21c-.22,0-.33.02-.33.02l-.65.18c-.94,1.56-1.57,3.27-.99,4.6.1.23.24.46.42.7l.52-.25s10.75-.91,15.43,7.05l.28.48c.45-1.88.63-4.72.61-7.71-7.45-4.99-13.8-5.12-15.29-5.07h0Z"/>
      <path id="path171" class="st17" d="M387.61,217.54s-2.57,1.14-2.57,2.28"/>
      <g id="g289">
        <path id="path172" class="st50" d="M438.47,437.5l-.75,30.49-41.01-2.66,41.76-27.82Z"/>
        <path id="path173" class="st53" d="M519.74,401.93s-2.98,50.08-18.64,75.25l-63.88-9.19,1.74-30.49,80.78-53.47v17.9Z"/>
        <path id="path174" class="st13" d="M459.94,325.01c-3.82,1.63-7.25.33-7.25.33,0,0-1.68,2.12,2.85,2.37,0,0,1.8.16.59,2.12"/>
        <path id="path175" class="st21" d="M465.31,321.22s-6.83-5.43-11.15-5.1c-4.32.33-4.53.24-4.91.98-.38.73-1.13,4.12.8,6.61,1.93,2.49,2.73,1.88,3.06,1.35.34-.53,3.06-2.08,8.22-.94"/>
        <path id="path176" class="st48" d="M454.57,316.1c-.14,0-.28,0-.41.01-4.32.33-4.53.25-4.91.98-.26.51-.7,2.27-.32,4.13.64-.6,1.97-1.17,4.72-1.03,5.45.29,8.64,2.45,8.64,2.45l.54.37,2.48-1.8s-6.41-5.09-10.74-5.12Z"/>
        <path id="path177" class="st50" d="M385.59,445.85l48.88-43.36,7.23,16.3-4.49,18.17-39.98,27.13-10.96-2.67-.46-9.78-.23-5.78Z"/>
        <path id="path178" class="st50" d="M387.08,417.93l29.96-37.58,7.58,16.37-2.37,15.45-35.76,32.73.59-26.97Z"/>
        <path id="path179" class="st53" d="M417.16,381.04s6.04,13.49,5.09,30.89l36.47-33.08,17.41-15.33-.36.23-2.25-10.6-1.07-5.99-2.84.69v-3.46l-.47-3-2.49-4.73-2.01-5.07-.47-4.26.95-5.07-1.3.58-46.65,58.21Z"/>
        <path id="path180" class="st13" d="M525.15,383.58s3.55,3.46,4.03,11.3c.47,7.84.36,13.26.36,13.26,0,0-5.8,3.34-11.25,1.96,0,0,.95-2.31,1.07-5.53.12-3.23-.12-19.94-.12-19.94l5.92-1.04Z"/>
        <path id="path181" class="st28" d="M521.83,384.62l-2.6.17c0,.32.23,16.58.12,19.77-.12,3.23-1.07,5.53-1.07,5.53,1.99.51,4.03.38,5.82.01.04-.63.69-10.21.58-15.23-.12-5.19-2.84-10.26-2.84-10.26h0Z"/>
        <path id="path182" class="st52" d="M567.91,526.28c1.09-2.76,4.03-3.4,4.03-3.4,0,0,.22-.21-.65-2.23-.87-2.02-.44-3.5-.44-3.5.33-10.72-.76-13.58-.76-13.58.76,0,4.25,4.03,4.25,4.03-.11-10.19-15.59-14.96-15.59-14.96,5.67,14.01,3.49,15.6,3.49,15.6,3.6-1.49,4.03-3.82,4.03-3.82.65,3.82.11,11.25.11,11.25,0,0,.22,3.5-3.16,1.8-3.38-1.7-17-8.06-17-8.06l-1.42,2.76,18.75,8.49s2.72,1.17,1.96,3.18c-.76,2.02-1.2,2.33-1.2,2.33l3.6.11Z"/>
        <path id="path183" class="st43" d="M566.38,515.67s.55-7.43-.11-11.25c0,0-.44,2.33-4.03,3.82,0,0,2.18-1.59-3.49-15.6,0,0,15.48,4.77,15.59,14.96,0,0-3.49-4.03-4.25-4.03,0,0,1.09,2.86.76,13.58"/>
        <path id="path184" class="st46" d="M567.91,526.28c1.09-2.76,4.03-3.4,4.03-3.4,0,0,.22-.21-.65-2.23-.87-2.02-.44-3.5-.44-3.5.33-10.72-.76-13.58-.76-13.58.76,0,4.25,4.03,4.25,4.03-.11-10.19-15.59-14.96-15.59-14.96,5.67,14.01,3.49,15.6,3.49,15.6,3.6-1.49,4.03-3.82,4.03-3.82.65,3.82.11,11.25.11,11.25,0,0,.22,3.5-3.16,1.8-3.38-1.7-17-8.06-17-8.06l-1.42,2.76,18.75,8.49s2.72,1.17,1.96,3.18c-.76,2.02-1.2,2.33-1.2,2.33"/>
        <path id="path185" class="st40" d="M539.35,505.67c-.43,0-1.29.09-2,.64-.36.27-.66.69-.75,1.21s.02,1.15.38,1.87c.74,1.49,2.21,2.04,3.41,2.2,1.2.16,2.22-.05,2.22-.05l-.18-.88s-.89.17-1.92.04-2.12-.54-2.7-1.7c-.3-.61-.35-1.04-.3-1.33s.2-.49.41-.65c.43-.33,1.21-.45,1.43-.45.38,0,.7-.06,1.32.24.62.3,1.5.99,2.67,2.55l.74-.53c-1.23-1.63-2.2-2.42-3-2.81-.8-.39-1.46-.34-1.73-.34h0Z"/>
        <path id="path186" class="st40" d="M540.77,515.24s.44-7,5.01-9.44c0,0,1.09.11,1.2.95.11.85-4.25,8.28-4.25,8.28l-1.96.21Z"/>
        <path id="path187" class="st12" d="M541.29,514.45s.36-5.83,4.18-7.87c0,0,.91.09,1,.8.09.71-3.54,6.9-3.54,6.9l-1.63.18Z"/>
        <ellipse id="circle187" class="st32" cx="499.34" cy="497.36" rx="4.9" ry="4.77"/>
        <path id="path188" class="st50" d="M562.27,447.76s8.25.46,8.16,4.43-1.33,7.85,1.42,8.59c2.75.74,8.44.74,9.86,2.22s1.42,3.14,1.42,3.14c0,0-7.11-2.49-10.24-.74s-6.41-1.01-6.92-1.94c-1.14-2.03-.47-6-2.66-6.74-2.18-.74-9.11-.83-9.11-.83l8.06-8.13Z"/>
        <path id="path189" class="st53" d="M502.38,393.11c1.29-21.66-2.58-47.09-2.58-47.09l-.32-3.77-66.76,62.16s4.84-5.02,3.23,20.72l5.81,8.79,60.63-40.81Z"/>
        <path id="path190" class="st18" d="M502.38,393.11c1.29-21.66-2.58-47.09-2.58-47.09l-.32-3.77"/>
        <g id="g194">
          <path id="path191" class="st9" d="M484.52,295.02l-8.94,20.29s-2.6-2.57-4.7.1l-2.1,2.66M484.49,294.99l-17.25,14.33s3.29,1.65,1.3,4.4l-1.98,2.74,2.23,1.6"/>
          <g id="g193">
            <path id="path192" class="st9" d="M461.95,311.97l12.28,8.74-3.22,4.29-12.28-8.74,3.22-4.29Z"/>
            <path id="path193" class="st40" d="M462.23,313.29l10.63,7.57-2.12,2.82-10.63-7.57,2.12-2.82Z"/>
          </g>
        </g>
        <g id="g197">
          <path id="path194" class="st9" d="M524.2,320.15l-12.13,18.65s-2.15-2.94-4.66-.63l-2.5,2.3M524.17,320.12l-19.37,11.49s2.98,2.14.57,4.54l-2.4,2.4,1.94,1.92"/>
          <g id="g196">
            <path id="path195" class="st15" d="M499.16,333.41l10.7,10.52-3.88,3.74-10.7-10.52,3.88-3.74Z"/>
            <path id="path196" class="st6" d="M499.21,334.75l9.26,9.11-2.55,2.46-9.26-9.11,2.55-2.46Z"/>
          </g>
        </g>
        <g id="g200">
          <path id="path197" class="st9" d="M550.02,362.57l-15.23,16.35s-1.6-3.25-4.48-1.4l-2.87,1.85M550,362.54l-21.1,8.09s2.56,2.61-.24,4.57l-2.79,1.96,1.57,2.22"/>
          <g id="g199">
            <path id="path198" class="st9" d="M523.02,371.46l8.69,12.15-4.48,3.03-8.69-12.15,4.48-3.03Z"/>
            <path id="path199" class="st40" d="M522.83,372.79l7.52,10.52-2.95,2-7.52-10.52,2.95-2Z"/>
          </g>
        </g>
        <path id="path200" class="st9" d="M464.36,320.28l-77.55,95.88.4,1.66,78.36-96.62-1.21-.92Z"/>
        <path id="path201" class="st9" d="M497.85,343.71l-112.13,101.25,1.04,1.1,112.13-101.26-1.04-1.09Z"/>
        <path id="path202" class="st9" d="M515.9,384.26l-119.38,79.54.87,1.23,119.38-79.54-.87-1.23Z"/>
        <path id="path203" class="st13" d="M503.12,345.05s-11.25-2.1-13.99-.48c-2.74,1.62,4.8,1.71,6.26,1.24l-2.84,2.76s-6.46-1.52-7.54-7.43,3.23-5.91,4.21-5.81c.98.1,6.65.95,13.9,9.72Z"/>
        <path id="path204" class="st10" d="M486.96,338.84c-1.24.36-2.17,1.2-1.85,2.78,0,0,.49,1.81.98,2.76.03-.06.09-.12.15-.17.37.56.79,1.06,1.24,1.5.38-.14.75-.26,1.1-.35-.14-.21,0-.47.54-.79.3-.18.72-.31,1.2-.41,2.04-.76,5.1.03,5.75-.07l3.43.19s-10.2-6.12-12.54-5.44h0Z"/>
        <path id="path205" class="st46" d="M498.62,343.9s-12.54-3.65-12.54-.13"/>
        <path id="path206" class="st43" d="M503.12,345.05s-11.25-2.1-13.99-.48c-2.74,1.62,4.8,1.71,6.26,1.24l-2.84,2.76s-6.46-1.52-7.54-7.43,3.23-5.91,4.21-5.81c.98.1,6.65.95,13.9,9.72Z"/>
        <path id="path207" class="st25" d="M501.65,344.96c-.29,1.38-.62,3.18-.45,3.99,3.66,9.11,8.65,9.31,6.69,20.38l3.86-.11c.42-5.14-.42-10-1.39-12.17-.49-1.08-1.56-2.37-2.74-3.62-1.18-1.25-2.47-2.47-3.37-3.41-1.81-1.89-.56-4.33-.56-4.33l-2.05-.75Z"/>
        <path id="path208" class="st11" d="M499.26,344.08s-.68,1.74-.68,4.19c0,1.22.17,2.62.68,4.06.51,1.44.94,2.87,1.3,4.45.71,3.16,1.11,6.95,1.2,12.72l6.14-.17c1.95-11.07-3.03-11.27-6.69-20.38-.17-.81.16-2.62.45-3.99l-2.39-.87Z"/>
        <path id="path209" class="st43" d="M503.7,345.71s-1.25,2.43.56,4.33c.9.95,2.19,2.16,3.37,3.41,1.18,1.25,2.26,2.53,2.74,3.62.97,2.16,1.81,7.03,1.39,12.17M511.76,369.23l-10,.27c-.09-5.77-.49-9.55-1.2-12.72-.35-1.58-.79-3.01-1.3-4.45s-.68-2.84-.68-4.06c0-2.44.68-4.19.68-4.19l4.44,1.62"/>
        <path id="path210" class="st46" d="M504.95,369.37s1.39-6.08-1.81-11.49c-3.22-5.53-4.18-13.94-2.5-13.38"/>
        <path id="path211" class="st38" d="M493.77,457.68l-8.64,14.71-34.13,2.47-3.22.42s-4.99,11.44-10.52,12.96c-5.53,1.52-42.56,12.76-42.56,12.76l-1.14-8.24,23.99-7.54s7.04-2.52,9.13-5.19,19.54-18.94,19.54-18.94l47.54-3.43Z"/>
        <g id="g213">
          <path id="path212" class="st9" d="M478.48,420.16l-49.6,80.48,1.05.62,49.6-80.48-1.05-.62Z"/>
          <path id="path213" class="st14" d="M477.48,423.41s1.4,1.29,3.14-.77c1.74-2.07,6.82-10.59,7.8-12.14s2.23-2.84.57-3.87c-1.65-1.03-3.96.26-5.87,4.13s-8.15,10.59-5.64,12.65Z"/>
        </g>
        <g id="g228">
          <path id="path214" class="st20" d="M521.38,434.47c1.85-.24,5.01,3.28,5.86,9.41s.03,11.29-1.82,11.54c-.68.08-1.43-.51-2.17-1.71l-99.03,12.97-2.08-18.21,98.25-11.36c.32-2.34.06-2.5.99-2.63Z"/>
          <path id="path215" class="st29" d="M426.06,448.1s.57.91.81,1.49M428.2,447.86s.57.91.81,1.49M430.35,447.61s.57.91.81,1.49M432.49,447.37s.57.91.81,1.49M434.63,447.12s.57.91.81,1.49M436.77,446.88s.57.91.81,1.49M438.91,446.63s.57.91.81,1.49M441.06,446.39s.57.91.81,1.49M443.2,446.15s.57.91.81,1.49M445.34,445.9s.57.91.81,1.49M447.48,445.66s.57.91.81,1.49M449.63,445.41s.57.91.81,1.49M451.77,445.17s.57.91.81,1.49M453.91,444.92s.57.91.81,1.49M456.05,444.68s.57.91.81,1.49M458.2,444.43s.57.91.81,1.49M460.34,444.19s.57.91.81,1.49M462.48,443.94s.57.91.81,1.49M464.62,443.7s.57.91.81,1.49M466.77,443.45s.57.91.81,1.49M468.91,443.21s.57.91.81,1.49M471.05,442.96s.57.91.81,1.49M473.19,442.72s.57.91.81,1.49M475.34,442.48s.57.91.81,1.49M477.48,442.23s.57.91.81,1.49M479.62,441.99s.57.91.81,1.49M481.76,441.74s.57.91.81,1.49M483.9,441.5s.57.91.81,1.49M486.05,441.25s.57.91.81,1.49M488.19,441.01s.57.91.81,1.49M490.33,440.76s.57.91.81,1.49M492.47,440.52s.57.91.81,1.49M494.62,440.27s.57.91.81,1.49M496.76,440.03s.57.91.81,1.49M498.9,439.78s.57.91.81,1.49M501.04,439.54s.57.91.81,1.49M503.19,439.29s.57.91.81,1.49M505.33,439.05s.57.91.81,1.49M507.47,438.81s.57.91.81,1.49M509.61,438.56s.57.91.81,1.49M511.76,438.32s.57.91.81,1.49M513.9,438.07s.57.91.81,1.49M516.04,437.83s.57.91.81,1.49M518.18,437.58s.57.91.81,1.49M520.32,437.34s.57.91.81,1.49"/>
          <path id="path216" class="st18" d="M523.78,443.1l-100.29,13.13"/>
          <path id="path217" class="st18" d="M524.08,445.29l-100.29,13.13"/>
          <path id="path218" class="st18" d="M524.38,447.48l-100.29,13.13"/>
          <path id="path219" class="st18" d="M524.53,448.58l-100.29,13.13"/>
          <path id="path220" class="st18" d="M524.69,449.68l-100.29,13.13"/>
          <path id="path221" class="st18" d="M524.84,450.77l-100.29,13.13"/>
          <path id="path222" class="st18" d="M524.99,451.87l-100.29,13.13"/>
          <path id="path223" class="st18" d="M525.14,452.97l-100.29,13.13"/>
          <path id="path224" class="st32" d="M506.47,437.16c1.74-.11,3.48,4.34,3.88,9.93,0,0,0,0,0,0,.4,5.59-.69,10.21-2.44,10.32,0,0,0,0,0,0-.33.02-.66-.13-.99-.43,1.14-1.53,1.7-5.37,1.39-9.62-.32-4.4-1.48-8.25-2.89-9.5.32-.43.67-.67,1.04-.7h0Z"/>
          <path id="path225" class="st32" d="M436.34,446.34c1.74-.11,3.48,4.34,3.88,9.93,0,0,0,0,0,0,.4,5.59-.69,10.21-2.44,10.32h0c-.33.02-.66-.13-.99-.43,1.14-1.53,1.7-5.37,1.39-9.62-.32-4.4-1.48-8.25-2.89-9.5.32-.43.67-.67,1.04-.7h0Z"/>
          <g id="g227">
            <path id="path226" class="st40" d="M421.65,454.49l-5.59-.37s-3.43,1.15-3.65,2.58c-.21,1.43-.33,3.54-.05,4.1s6.8,1.71,9.09-.29l.19-6.02Z"/>
            <path id="path227" d="M412.41,456.7c2.24.53,6.18.32,9.17.04l-.12,3.77c-2.29,2-8.81.85-9.09.29-.28-.56-.16-2.68.05-4.1,0,0,0,0,0,0h0Z"/>
          </g>
          <path id="path228" class="st31" d="M422.69,447.97c.22-.02.45.12.68.4-.48,1.96-.61,5.25-.36,8.75.29,4.02,1.05,7.64,1.94,9.27-.26.73-.57,1.13-.92,1.16-1.21.11-2.49-4.19-2.86-9.6,0,0,0,0,0,0-.37-5.41.31-9.88,1.52-9.98,0,0,0,0,0,0h0Z"/>
        </g>
        <g id="g246">
          <path id="path229" class="st31" d="M479.09,448.12v.07c-1.13.25-1.97,1.23-1.97,2.41v16.48l11.97-11.66c.86-.83.97-2.1.35-3.06l.05-.05,5.19,5.05-.02.02c-1-.78-2.45-.73-3.37.18l-12.17,11.85h17.34c1.21,0,2.22-.82,2.47-1.92h.07v7.14h-.03c-.14-1.24-1.2-2.2-2.51-2.2h-17.22l12.26,11.93c.86.83,2.16.95,3.15.34l.05.05-5.19,5.05-.02-.02c.8-.97.75-2.38-.18-3.28l-12.17-11.85v16.87c0,1.18.84,2.16,1.97,2.41v.07h-7.34v-.03c1.27-.14,2.26-1.17,2.26-2.44v-17.15l-12.46,12.13c-.93.9-.98,2.31-.18,3.28l-.02.02-5.19-5.05.05-.05c.98.6,2.29.49,3.14-.34l12.26-11.93h-17.22c-1.31,0-2.37.96-2.51,2.2h-.03v-7.14h.07c.26,1.1,1.26,1.92,2.47,1.92h17.33l-12.17-11.85c-.93-.9-2.37-.95-3.37-.18l-.02-.02,5.19-5.05.05.05c-.62.96-.51,2.23.35,3.06l12.26,11.93v-16.76c0-1.28-.99-2.31-2.26-2.44v-.03h7.34Z"/>
          <ellipse id="circle229" class="st32" cx="475.56" cy="471.27" rx="4.67" ry="4.55"/>
          <path id="path230" class="st31" d="M475.56,440.97c17.07,0,30.9,13.47,30.9,30.08h0c0,16.61-13.83,30.08-30.9,30.08h0c-17.07,0-30.9-13.47-30.9-30.08h0c0-16.61,13.83-30.08,30.9-30.08h0ZM475.56,448.63c-12.72,0-23.04,10.04-23.04,22.43,0,12.39,10.31,22.43,23.04,22.43,12.72,0,23.04-10.04,23.04-22.43,0-12.39-10.31-22.43-23.04-22.43Z"/>
          <ellipse id="circle230" cx="475.56" cy="444.68" rx=".99" ry=".96"/>
          <ellipse id="circle231" cx="475.56" cy="497.15" rx=".99" ry=".96"/>
          <g id="g233">
            <ellipse id="circle232" cx="456.51" cy="452.37" rx=".99" ry=".96"/>
            <ellipse id="circle233" cx="494.62" cy="489.47" rx=".99" ry=".96"/>
          </g>
          <g id="g235">
            <ellipse id="circle234" cx="494.62" cy="452.37" rx=".99" ry=".96"/>
            <ellipse id="circle235" cx="456.51" cy="489.47" rx=".99" ry=".96"/>
          </g>
          <g id="g237">
            <ellipse id="circle236" cx="502.51" cy="470.92" rx=".99" ry=".96"/>
            <ellipse id="circle237" cx="448.61" cy="470.92" rx=".99" ry=".96"/>
          </g>
          <g id="g239">
            <ellipse id="circle238" cx="500.54" cy="480.77" rx=".99" ry=".96"/>
            <ellipse id="circle239" cx="450.59" cy="461.06" rx=".99" ry=".96"/>
          </g>
          <g id="g241">
            <ellipse id="circle240" cx="450.83" cy="481.33" rx=".99" ry=".96"/>
            <ellipse id="circle241" cx="500.3" cy="460.5" rx=".99" ry=".96"/>
          </g>
          <g id="g243">
            <ellipse id="circle242" cx="465" cy="446.78" rx=".99" ry=".96"/>
            <ellipse id="circle243" cx="486.13" cy="495.05" rx=".99" ry=".96"/>
          </g>
          <g id="g245">
            <ellipse id="circle244" cx="486.13" cy="446.78" rx=".99" ry=".96"/>
            <ellipse id="circle245" cx="465" cy="495.05" rx=".99" ry=".96"/>
          </g>
        </g>
        <ellipse id="circle246" class="st32" cx="511.25" cy="497.36" rx="4.9" ry="4.77"/>
        <g id="g249">
          <path id="path246" class="st5" d="M390.96,434.18s12.04,5.05,13.08-3.64c0,0,7.27,8.89-2.7,14.55,0,0,4.57-7.07-10.38-7.88,0,0-2.08.2-1.87-1.41s1.87-1.62,1.87-1.62Z"/>
          <path id="path247" d="M389.08,436.07c1.7.15,5.6.56,11.64,1.74,2.68.52,4.56.2,5.88-.48.02,2.57-1.17,5.43-5.25,7.75,0,0,4.57-7.07-10.38-7.88,0,0-1.83.18-1.88-1.13h0Z"/>
          <path id="path248" class="st5" d="M396.27,434.1l1.01.15-4.15,27.08-1.01-.15,4.15-27.08Z"/>
          <path id="path249" class="st5" d="M395.86,434.05l1.82.26-.84,5.45-1.82-.26.84-5.45Z"/>
        </g>
        <g id="g252">
          <ellipse id="ellipse249" class="st5" cx="419.38" cy="506.23" rx="7.31" ry="3.35"/>
          <g id="g251">
            <path id="path250" class="st20" d="M418.73,466.49c.67-.03,1.33.08,1.51.47.36.79-.72.96-.72.96v4.47c0,1.4,1.17,22.5,1.71,26.61.19,1.48.56,2.72.96,3.69,0,0,5.16.6,4.89,2.88-.27,2.28-3.06,3.78-7.73,3.68-5.77-.13-7.37-1.31-7.64-2.71-.27-1.4,1.35-2.71,3.78-3.15l1.26-7s-.27,1.05-3.6.35c-3.33-.7-3.24-5.6-3.24-5.6,0,0-.09-14.71.09-17.42.18-2.71,1.71-4.03,3.87-4.81,1.71-.26,2.88.09,3.06,1.05.18.96.63,1.23.9.88s0-2.98,0-2.98c0,0-1.26-.61-.72-.96.27-.18.97-.35,1.64-.38h0ZM414.39,471.51l-1.17.61-.36,3.15v15.93l.18,1.05,1.53,1.23,1.71-.35.9-1.05.63-14.27.18-4.55-2.16-1.4-1.44-.35Z"/>
            <path id="path251" class="st46" d="M415.02,505.04s1.98-4.9,2.43-17.77c.45-12.87.63-13.92,0-14.53-.63-.61-2.43-1.66-3.51-1.05-1.08.61-.81.79-.99,2.98-.18,2.19-.18,16.37-.18,16.37,0,0,.54,2.36,1.89,2.28,1.35-.09,2.34-.61,2.52-1.58"/>
          </g>
          <path id="path252" class="st46" d="M423.66,505.31s-1.89-2.19-2.43-6.3c-.54-4.11-1.71-25.21-1.71-26.61v-4.46"/>
        </g>
        <g id="g254">
          <path id="path253" class="st44" d="M445.4,490.01s-6.6.19-8.74,4.16c-2.14,3.97-.97,7.75,1.55,9.26s7.96,2.65,10.49,1.13,4.27-6.43,1.36-6.99c-2.91-.57-7.77-1.51-7.19-3.4.58-1.89,3.11-1.89,3.11-1.89l-.58-2.27Z"/>
          <path id="path254" class="st5" d="M444.51,489.15l1.21-.19.96,4.18-1.21.19-.96-4.18Z"/>
        </g>
        <path id="path255" class="st14" d="M538.2,469.35l-27.89,14.13.15.28,1.96.34,26.49-13.42-.71-1.32Z"/>
        <path id="path256" class="st14" d="M539.02,470.01l-15.71,27.08,2.55-1.36,14.5-24.99-1.34-.73Z"/>
        <path id="path257" d="M565.88,443.68s0,0,0,0c-.2,0-.39.09-.53.23l-26.47,25.58c-.3.29-.3.76,0,1.06.3.29.78.3,1.09,0,0,0,0,0,0,0l26.02-25.14v-1.71s-.07,0-.1,0h0Z"/>
        <path id="path258" class="st27" d="M543.19,465.65c-.2,0-.39.09-.53.23l-26.28,25.39,2.3-.11,25.06-24.21c.31-.28.32-.76.03-1.06-.15-.15-.36-.24-.58-.23h0Z"/>
        <ellipse id="circle258" class="st32" cx="443.65" cy="516.46" rx="4.9" ry="4.77"/>
        <ellipse id="circle259" class="st32" cx="455.32" cy="506.91" rx="4.9" ry="4.77"/>
        <ellipse id="circle260" class="st32" cx="473.3" cy="508.05" rx="4.9" ry="4.77"/>
        <ellipse id="circle261" class="st32" cx="486.97" cy="515.32" rx="4.9" ry="4.77"/>
        <ellipse id="circle262" class="st32" cx="498.88" cy="515.32" rx="4.9" ry="4.77"/>
        <ellipse id="circle263" class="st32" cx="510.79" cy="515.32" rx="4.9" ry="4.77"/>
        <ellipse id="circle264" class="st32" cx="522.69" cy="515.32" rx="4.9" ry="4.77"/>
        <ellipse id="circle265" class="st32" cx="493.04" cy="506.45" rx="4.9" ry="4.77"/>
        <ellipse id="circle266" class="st32" cx="504.95" cy="506.45" rx="4.9" ry="4.77"/>
        <ellipse id="circle267" class="st32" cx="516.86" cy="506.45" rx="4.9" ry="4.77"/>
        <path id="path267" class="st21" d="M467.78,323.5s-.38,3.74,2.88,5.99c3.27,2.24,7.11,4.68,8.65,11.04,1.54,6.36.38,5.61.38,5.61l-10.18,1.68s1.15-4.49-1.35-8.04-6.15-13.84-2.69-17.96l2.31,1.68Z"/>
        <path id="path268" class="st48" d="M467.46,323.27c-.61,1.45-1.67,4.88.71,7.34,3.07,3.18,5.96,4.68,7.11,8.98.69,2.58,1.15,5.23,1.43,7.04l2.99-.49s1.15.75-.38-5.61c-1.54-6.36-5.38-8.79-8.65-11.03-3.27-2.24-2.88-5.99-2.88-5.99l-.32-.24Z"/>
        <path id="path269" class="st46" d="M466.24,321.63s-1.92,4.3.19,8.6c2.11,4.3,4.23,6.36,5.38,9.16,1.15,2.81,0,5.42,1.35,7.48"/>
        <path id="path270" class="st34" d="M545.95,510.62c-.22.02-.39.22-.37.44.02.22.22.38.45.36.01,0,.03,0,.04,0,0,0,6.96-1.06,12.13,4.07.15.17.41.19.58.04.17-.14.19-.39.04-.56-.01-.01-.02-.03-.04-.04-5.47-5.43-12.84-4.3-12.84-4.3h0Z"/>
        <path id="path271" class="st5" d="M558.08,518.28s-.01,1.07.88,2.09c.89,1.02,2.67,2,6.07,2.11l.02-.8c-3.25-.1-4.75-1-5.47-1.83-.72-.82-.68-1.55-.68-1.55l-.82-.02Z"/>
        <path id="path272" class="st52" d="M567.91,526.28c1.09-2.76,4.03-3.4,4.03-3.4,0,0,.22-.21-.65-2.23-.87-2.02-.44-3.5-.44-3.5.33-10.72-.76-13.58-.76-13.58.76,0,4.25,4.03,4.25,4.03-.11-10.19-15.59-14.96-15.59-14.96,5.67,14.01,3.49,15.6,3.49,15.6,3.6-1.49,4.03-3.82,4.03-3.82.65,3.82.11,11.25.11,11.25,0,0,.22,3.5-3.16,1.8-1.81-.91-10.57-5.05-10.57-5.05l-.84,2.92,11.73,5.31s2.72,1.17,1.96,3.18c-.76,2.02-1.2,2.33-1.2,2.33l3.6.11Z"/>
        <path id="path273" d="M547.86,510.53c.14.25.28.52.42.81.2,0,.4.02.61.04-.14-.29-.28-.56-.41-.82-.22-.01-.43-.02-.62-.02h0ZM549.93,510.69c.1.26.19.54.29.84.19.03.39.07.6.11-.09-.3-.19-.59-.28-.86-.21-.04-.4-.06-.6-.09ZM552.17,511.14c.05.27.1.56.14.87.19.06.38.12.57.18-.04-.31-.08-.6-.13-.87-.19-.06-.39-.12-.57-.18ZM554.41,511.93c0,.28-.01.56-.03.87.18.08.35.17.53.26.02-.3.03-.59.04-.87-.18-.09-.36-.18-.54-.26h0ZM556.47,513.05c-.06.27-.12.55-.19.83.16.11.32.22.48.34.08-.29.13-.57.19-.85-.16-.11-.32-.22-.48-.33Z"/>
        <path id="path274" d="M559.4,519.61l-.39.81c.12.13.26.26.41.39l.36-.76c-.07-.07-.14-.14-.2-.2-.07-.08-.13-.16-.19-.24ZM560.52,520.6l-.1.87c.16.08.34.16.52.24l.1-.83c-.19-.09-.36-.18-.51-.27ZM561.81,521.18l.16.88c.18.05.38.09.57.13l-.16-.85c-.2-.05-.4-.1-.58-.16ZM562.97,521.47l.38.86c.2.03.41.06.63.08l-.38-.85c-.22-.03-.43-.05-.63-.09Z"/>
        <path id="path275" class="st35" d="M518.99,374.93s-6.16-2.88-7.58-.46-2.01,7.26,0,10.14c0,0,8.76,1.04,13.26-.46l.59-.35-6.28-8.88Z"/>
        <path id="path276" class="st28" d="M512.89,377.58c-.98-.02-1.91.28-2.65.61-.3,2.21-.04,4.68,1.18,6.43,0,0,7.76.92,12.42-.22-2.24-.69-6.11-4.29-8.75-6.12-.71-.49-1.47-.69-2.2-.7Z"/>
        <path id="path277" class="st46" d="M510.23,382.43s2.96-1.96,7.7.12c4.74,2.07,4.74,1.73,4.74,1.73"/>
        <path id="path278" class="st43" d="M518.99,374.93s-6.16-2.88-7.58-.46-2.01,7.26,0,10.14c0,0,8.76,1.04,13.26-.46l.59-.35-6.28-8.88Z"/>
        <path id="path279" class="st46" d="M520.77,384.73s.95,3.92,1.18,12.1c.24,8.18-1.54,13.72-2.25,13.6"/>
        <path id="path280" class="st18" d="M525.15,383.58s3.55,3.46,4.03,11.3c.47,7.84.36,13.26.36,13.26,0,0-5.8,3.34-11.25,1.96,0,0,.95-2.31,1.07-5.53.12-3.23-.12-19.94-.12-19.94"/>
        <path id="path281" class="st43" d="M472.22,347.16s2.84,11.41,3.2,16.71"/>
        <g id="g288">
          <path id="path282" class="st10" d="M440.23,435.28s3.23-3.39,3.43-4.84.15-3.84-1.85-3.89-11.48-1.6-14.35.65c-2.87,2.25-3.38,3.39-2.82,4.54.56,1.15,2.92,2.99,4.87,2.89,1.95-.1,3.84.75,4.61.3.77-.45,4.1-4.29,4.97-.85l.1,1.15,1.03.05Z"/>
          <path id="path283" class="st42" d="M431.07,448.18s1.94-9.04,5.18-13.04c0,0,4.1-1.05,5.62,0s-.22-1.26,1.51.84,1.73,10.09,1.73,10.09l2.16,1.89c-5.62,2.52-16.2.21-16.2.21h0Z"/>
          <path id="path284" class="st45" d="M446.83,447.72c-5.18,2.73-15.77.63-15.77.63,0,0-1.73,3.99,0,3.36,1.73-.63.86,1.47,2.59,0,1.73-1.47,1.73-1.89,1.73-1.89,0,0,9.94,0,11.88-.63l-.43-1.47Z"/>
          <path id="path285" class="st46" d="M437.35,436.45s.7.18,1.58.26M437.31,437.59s.69.17,1.57.24M437.26,438.72s.67.16,1.57.22M437.22,439.85s.66.15,1.56.2M437.17,440.98s.65.14,1.56.18M437.13,442.12s.63.13,1.55.16M437.08,443.25s.62.12,1.55.14M437.04,444.38s.61.11,1.54.11M436.99,445.51s.59.1,1.54.09M436.95,446.65s.58.09,1.53.07M436.9,447.78s.57.08,1.53.05"/>
          <path id="path286" class="st46" d="M440.57,436.93c.66-.1,1.26-.34,1.61-.83M440.48,438.02c.74-.12,1.46-.38,1.97-.92M440.39,439.11c.82-.13,1.66-.43,2.33-1.01M440.3,440.2c.9-.15,1.86-.47,2.69-1.11M440.21,441.29c.99-.16,2.06-.51,3.05-1.2M440.12,442.38c1.07-.18,2.27-.56,3.41-1.3M440.03,443.47c1.15-.2,2.47-.6,3.77-1.39M439.94,444.56c1.23-.21,2.67-.64,4.13-1.49M439.85,445.65c1.31-.23,2.87-.69,4.49-1.58M439.76,446.74c1.39-.24,3.07-.73,4.85-1.67M439.67,447.83c1.47-.26,3.27-.77,5.21-1.77"/>
          <path id="path287" class="st10" d="M436.69,431.69l-3.43,3.19M434.47,431.62l-2.27,3.15M432.26,431.55l-1.1,3.11M430.04,431.48l.07,3.07M427.83,431.41l1.24,3.03M425.62,431.34l2.41,2.99"/>
          <path id="path288" class="st10" d="M426.9,431.59l1.49,2.84"/>
        </g>
        <path id="path289" class="st46" d="M450.22,323.71s2.89-3.84,11.45-.49"/>
      </g>
      <g id="g293">
        <path id="path290" class="st9" d="M385.47,308.36s3.48,109.62.63,150.8M385.47,308.36c-4.13-.61-11.05,0-11.05,0,0,0-3.48,109.62-.63,150.8,0,0,7.56-.91,12.32,0"/>
        <path id="path291" d="M379.61,313.41c-.77,0-1.51.01-2.22.02-1.15.02-2.15.06-3.13.09,0,.13,0,.39-.01.53,3.06-.11,6.98-.17,11.39-.02,0-.13-.01-.4-.01-.53-2.12-.07-4.15-.1-6.02-.1h0ZM379.55,317.25c-.76,0-1.5,0-2.21.02-1.16.02-2.19.05-3.18.09,0,.16,0,.37-.01.53,3.09-.11,7.1-.16,11.6,0,0-.16,0-.37-.01-.53-2.18-.08-4.27-.11-6.18-.1h0ZM379.49,321.09c-.76,0-1.5,0-2.2.02-1.18.02-2.23.05-3.23.08,0,.19,0,.34-.01.53,3.13-.1,7.22-.15,11.81,0,0-.19,0-.34-.01-.53-2.25-.08-4.39-.11-6.35-.1h0ZM379.43,324.94c-.76,0-1.49,0-2.2.01-1.2.01-2.27.04-3.28.07,0,.22,0,.31-.01.53,3.16-.09,7.33-.13,12.02.02,0-.22,0-.31-.01-.53-2.31-.08-4.51-.11-6.51-.11h0ZM377.18,328.79c-1.22.01-2.3.04-3.32.06,0,.16,0,.37-.01.53,3.19-.08,7.43-.12,12.21.04,0-.16,0-.37-.01-.53-3.24-.1-6.26-.12-8.86-.1ZM377.13,332.62c-1.23,0-2.33.03-3.36.05,0,.17,0,.36-.01.53,3.22-.07,7.53-.1,12.39.05,0-.17,0-.36-.01-.53-3.3-.1-6.37-.12-9-.1h0ZM377.07,336.46c-1.25,0-2.36.02-3.4.04,0,.18,0,.35-.01.53,3.25-.06,7.63-.08,12.57.06,0-.18,0-.35-.01-.53-3.36-.1-6.48-.12-9.15-.11h0ZM377.02,340.3c-1.26,0-2.39.02-3.43.04,0,.19,0,.34-.01.52,3.28-.05,7.72-.06,12.75.07,0-.19,0-.34-.01-.53-3.42-.09-6.59-.12-9.29-.11ZM376.96,344.14c-1.28,0-2.42.01-3.47.02,0,.2,0,.33-.01.53,3.3-.04,7.81-.04,12.93.09,0-.2,0-.33-.01-.53-3.48-.09-6.7-.11-9.44-.11h0ZM376.91,347.98c-1.29,0-2.44,0-3.5.01,0,.17,0,.35-.01.53,3.32-.03,7.89-.02,13.09.1,0-.17,0-.35-.01-.53-3.54-.08-6.8-.11-9.57-.11h0ZM376.86,351.81c-1.3,0-2.46,0-3.52,0,0,.18,0,.35-.01.53,3.34-.02,7.97,0,13.25.11,0-.18,0-.35-.01-.53-3.6-.08-6.91-.11-9.7-.11h0ZM376.8,355.65c-1.48,0-2.38,0-3.55,0,0,.18,0,.34-.01.53,3.39,0,7.83,0,13.4.11,0-.18,0-.34-.01-.53-3.65-.07-7.01-.1-9.83-.11h0ZM373.19,359.48c0,.17,0,.35,0,.53,3.4,0,7.89.03,13.54.12,0-.17,0-.35,0-.53-5.63-.09-10.12-.11-13.52-.12h0ZM373.12,363.3c0,.18,0,.35,0,.53,3.36.02,7.07.04,13.67.13,0-.18,0-.35,0-.53-6.59-.09-10.29-.11-13.65-.13h0ZM373.06,367.13c0,.18,0,.35,0,.53,2.13.02,7.78.08,13.8.15,0-.18,0-.35,0-.53-6.01-.06-11.66-.12-13.78-.14h0ZM373,370.95c0,.18,0,.35,0,.53,3.37.05,7.17.11,13.91.16,0-.18,0-.35,0-.53-6.73-.05-10.54-.1-13.9-.16h0ZM372.94,374.77c0,.18,0,.35,0,.53,3.45.07,8.12.14,14.02.16,0-.18,0-.35,0-.53-5.89-.03-10.56-.1-14.01-.16h0ZM372.89,378.6c0,.18,0,.35,0,.53,3.45.08,8.17.16,14.13.17,0-.18,0-.35,0-.53-5.95,0-10.66-.09-14.11-.17h0ZM372.84,382.43c0,.17,0,.35,0,.53,3.45.09,8.45.18,14.22.16,0-.18,0-.35,0-.53-5.76.01-10.76-.07-14.21-.16h0ZM372.81,386.26c0,.18,0,.35,0,.53,3.46.11,8.49.2,14.29.17,0-.18,0-.35,0-.53-5.8.03-10.83-.06-14.28-.17h0ZM372.77,390.09c0,.18,0,.35,0,.53,3.46.12,8.52.22,14.37.17,0-.18,0-.35,0-.53-5.85.05-10.9-.05-14.36-.17h0ZM372.73,393.91v.53c3.47.14,8.53.26,14.43.18v-.53c-5.91.08-10.96-.04-14.43-.18h0ZM372.71,397.74v.53c3.48.15,8.54.28,14.47.18v-.53c-5.93.1-11-.03-14.47-.18h0ZM372.69,401.57v.53c3.48.16,8.55.3,14.51.18,0-.18,0-.35,0-.53-5.96.12-11.04-.02-14.51-.18ZM372.68,405.4c0,.17,0,.35,0,.53,3.48.18,8.56.33,14.55.18,0-.18,0-.35,0-.53-5.99.15-11.07,0-14.54-.18h0ZM372.68,409.23c0,.18,0,.35,0,.53,3.48.19,8.55.35,14.54.18,0-.18,0-.35,0-.53-6,.17-11.07.01-14.54-.18h0ZM372.68,413.06c0,.18,0,.35,0,.53,3.47.21,8.53.37,14.53.18,0-.18,0-.35,0-.53-6.01.2-11.07.03-14.53-.18h0ZM372.69,416.88v.53c3.47.22,8.52.39,14.53.17v-.53c-6.02.22-11.07.05-14.53-.17ZM372.71,420.72c0,.18,0,.35,0,.53,3.46.23,8.49.41,14.47.17,0-.18,0-.35,0-.53-6,.25-11.03.07-14.48-.17h0ZM372.74,424.55c0,.18,0,.35,0,.53,3.45.24,8.44.43,14.4.16,0-.17,0-.35,0-.53-5.97.27-10.97.08-14.41-.16h0ZM372.78,428.38c0,.17,0,.36,0,.53,3.44.26,8.4.44,14.33.15,0-.17,0-.36,0-.53-5.95.29-10.91.1-14.34-.15h0ZM372.83,432.22c0,.18,0,.35,0,.53,3.43.27,8.34.46,14.22.15,0-.18,0-.35,0-.53-5.91.31-10.83.12-14.24-.14h0ZM372.89,436.06c0,.18,0,.35.01.53,3.41.27,8.26.46,14.09.13,0-.18,0-.35.01-.53-5.85.33-10.71.14-14.11-.14h0ZM372.98,439.9c0,.17,0,.36.01.53,3.39.28,8.17.47,13.92.12,0-.17,0-.35.01-.53-5.77.35-10.57.16-13.94-.13h0ZM373.08,443.74c0,.17,0,.35.01.53,3.35.29,8.05.47,13.7.11,0-.17,0-.35.01-.53-5.68.36-10.39.18-13.73-.11h0ZM373.21,447.59c0,.18.01.35.02.53,3.32.29,7.92.46,13.43.09,0-.18.01-.35.02-.53-5.55.38-10.17.19-13.47-.1h0ZM373.36,451.43c0,.18.02.35.03.53,3.27.29,7.75.45,13.11.08,0-.18.02-.35.03-.53-5.4.38-9.91.21-13.17-.08h0ZM373.55,455.29c.01.18.02.35.03.53,3.21.28,7.56.43,12.73.06.01-.18.02-.35.03-.53-5.22.38-9.59.23-12.79-.06h0Z"/>
        <path id="path292" class="st37" d="M382.82,453.43c.77.09,1.63.17,2.57.23M382.83,449.61c.78.08,1.66.16,2.62.22M382.84,445.8c.79.08,1.68.15,2.66.21M382.84,441.98c.81.07,1.71.14,2.7.2M382.85,438.17c.82.07,1.74.13,2.75.19M382.86,434.35c.83.07,1.76.13,2.79.18M382.87,430.54c.84.06,1.79.12,2.83.17M382.88,426.73c.85.06,1.81.11,2.88.16M382.89,422.91c.86.05,1.84.1,2.92.15M382.9,419.1c.87.05,1.87.1,2.97.14M382.91,415.28c.88.05,1.89.09,3.01.13M382.92,411.47c.89.04,1.92.08,3.05.12M382.93,407.66c.9.04,1.94.07,3.1.1M382.94,403.84c.92.03,1.97.06,3.14.09M382.95,400.03c.93.03,2,.06,3.18.08M382.96,396.21c.94.03,2.02.05,3.23.07M382.97,392.4c.95.02,2.05.04,3.27.06M382.98,388.58c.96.02,2.07.03,3.31.05M382.89,384.77c.97.01,2.1.03,3.36.04M382.81,380.96c.98,0,2.12.02,3.4.03M382.72,377.14c.99,0,2.15.01,3.44.02M382.63,373.33c1,0,2.18,0,3.49,0M382.54,369.52c1.02,0,2.2,0,3.53,0M382.46,365.7c1.03,0,2.23-.01,3.57-.01M382.37,361.89c1.04-.01,2.25-.02,3.62-.02M382.28,358.07c1.05-.01,2.28-.03,3.66-.03M382.2,354.26c1.06-.02,2.31-.04,3.7-.04M382.11,350.45c1.07-.02,2.33-.04,3.75-.06M382.02,346.63c1.08-.03,2.36-.05,3.79-.07M381.94,342.82c1.09-.03,2.38-.06,3.83-.08M381.85,339.01c1.1-.03,2.41-.07,3.88-.09M381.76,335.19c1.11-.04,2.44-.07,3.92-.1M381.68,331.38c1.13-.04,2.46-.08,3.97-.11M381.59,327.56c1.14-.05,2.49-.09,4.01-.12M381.5,323.75c1.15-.05,2.51-.1,4.05-.13M381.41,319.94c1.16-.05,2.54-.11,4.1-.14M381.33,316.12c1.17-.06,2.57-.11,4.14-.15M381.24,312.31c1.18-.06,2.59-.12,4.18-.16"/>
        <path id="path293" class="st37" d="M374.39,453.64c.77.09,1.63.17,2.57.23M374.31,449.81c.78.08,1.66.16,2.62.22M374.23,445.99c.79.08,1.68.15,2.66.21M374.15,442.16c.81.07,1.71.14,2.7.2M374.07,438.33c.82.07,1.74.13,2.75.19M373.99,434.51c.83.07,1.76.13,2.79.18M373.91,430.68c.84.06,1.79.12,2.83.17M373.83,426.86c.85.06,1.81.11,2.88.16M373.75,423.03c.86.05,1.84.1,2.92.15M373.67,419.21c.87.05,1.87.1,2.97.14M373.59,415.38c.88.05,1.89.09,3.01.13M373.51,411.55c.89.04,1.92.08,3.05.12M373.43,407.73c.9.04,1.94.07,3.1.1M373.35,403.9c.92.03,1.97.06,3.14.09M373.27,400.08c.93.03,2,.06,3.18.08M373.19,396.25c.94.03,2.02.05,3.23.07M373.18,392.43c.95.02,2.05.04,3.27.06M373.25,388.6c.96.02,2.07.03,3.31.05M373.32,384.78c.97.01,2.1.03,3.36.04M373.38,380.95c.98,0,2.12.02,3.4.03M373.45,377.13c.99,0,2.15.01,3.44.02M373.52,373.3c1,0,2.18,0,3.49,0M373.58,369.48c1.02,0,2.2,0,3.53,0M373.65,365.65c1.03,0,2.23-.01,3.57-.01M373.72,361.82c1.04-.01,2.25-.02,3.62-.02M373.78,358c1.05-.01,2.28-.03,3.66-.03M373.85,354.17c1.06-.02,2.31-.04,3.7-.04M373.92,350.35c1.07-.02,2.33-.04,3.75-.06M373.99,346.52c1.08-.03,2.36-.05,3.79-.07M374.05,342.7c1.09-.03,2.38-.06,3.83-.08M374.12,338.87c1.1-.03,2.41-.07,3.88-.09M374.19,335.05c1.11-.04,2.44-.07,3.92-.1M374.25,331.22c1.13-.04,2.46-.08,3.97-.11M374.32,327.4c1.14-.05,2.49-.09,4.01-.12M374.39,323.57c1.15-.05,2.51-.1,4.05-.13M374.46,319.75c1.16-.05,2.54-.11,4.1-.14M374.52,315.92c1.17-.06,2.57-.11,4.14-.15M374.59,312.1c1.18-.06,2.59-.12,4.18-.16"/>
      </g>
      <path id="path294" class="st2" d="M288.4,523.56c-1.13,4.12-3.39,14.56-3.39,14.56,22.6,10.22,86.35,10.68,92.28,10.71h0s.5,0,.57,0c.07,0,.56,0,.56,0h0c5.95-.03,71.62-.48,94.25-10.71,0,0-2.26-10.44-3.39-14.56,0,0-2.82,9.34-91.43,10.99-88.61-1.65-89.46-10.99-89.46-10.99h0Z"/>
      <g id="g303">
        <path id="path295" class="st14" d="M453.41,521.47c1.24-3.15,11.43-2.9,19.39-.48,7.95,2.42,12.43,1.69,29.58,1.94,17.15.24,26.84,4.11,28.33,4.6s27.34,12.82,37.28,15.97,19.39,0,19.39,0c0,0-11.43,10.89-27.59,2.18,0,0,13.42,7.26,22.12,8.23,0,0-12.98,2.65-23.95-1.97-.98-.41-1.95-.88-2.89-1.42-6.87-3.32-12.99-5.9-18.52-7.9-31.45-11.39-43.68-4.14-65.24-9.52"/>
        <path id="path296" class="st43" d="M537.75,542.02c10.1,3.32,14.98,6.38,20.51,8.38M538.99,540.18c8.77,3.03,13.8,5.94,19.17,7.96M540.23,538.34c7.43,2.74,12.62,5.5,17.84,7.53M541.48,536.5c6.1,2.45,11.44,5.05,16.51,7.1M542.72,534.66c4.76,2.16,10.26,4.61,15.18,6.67"/>
        <path id="path297" class="st18" d="M525.91,537.15s-14.15-4.16-25.09-2.86M524.31,534.55s-13.28-3.64-24.96-2.66M522.71,531.95s-12.41-3.12-24.82-2.47M521.1,529.35s-11.54-2.6-24.69-2.27M519.5,526.76s-10.68-2.08-24.56-2.08"/>
        <path id="path298" class="st43" d="M481.87,524.42s-6.38-1.52-12.8-2.42c-5.47-.77-10.96-1.09-12.56.34"/>
        <path id="path299" class="st43" d="M483.07,526.63s-7.46-.81-13.47-2.27"/>
        <path id="path300" class="st43" d="M484.27,528.84s-8.53-.11-14.14-2.12"/>
        <path id="path301" class="st43" d="M485.47,531.04s-9.6.6-14.81-1.97"/>
        <path id="path302" class="st43" d="M486.68,533.04s-10.69,1.16-15.5-1.62"/>
        <path id="path303" class="st33" d="M453.46,521.01c1.47,2.78,9.93,1.22,15.37,2.95-1.31,1.12-5.04,3.09-15.54,5.04-1.74-6.36.17-7.99.17-7.99h0Z"/>
      </g>
      <g id="g318">
        <path id="path304" class="st32" d="M361.83,467.06h36.23v32.93h-36.23v-32.93Z"/>
        <path id="path305" class="st47" d="M379.74,498.68c2.38,0,4.68-.12,6.8-.33M379.74,496.92c2.38,0,4.68-.12,6.8-.33M379.74,495.15c2.38,0,4.68-.12,6.8-.33M379.74,493.39c2.38,0,4.68-.12,6.8-.33M379.74,491.62c2.38,0,4.68-.12,6.8-.33M379.74,489.86c2.38,0,4.68-.12,6.8-.33M379.74,488.09c2.38,0,4.68-.12,6.8-.33M379.74,486.33c2.38,0,4.68-.12,6.8-.33M379.74,484.56c2.38,0,4.68-.12,6.8-.33M379.74,482.8c2.38,0,4.68-.12,6.8-.33M379.74,481.03c2.38,0,4.68-.12,6.8-.33M379.74,479.27c2.38,0,4.68-.12,6.8-.33M379.74,477.5c2.38,0,4.68-.12,6.8-.33M379.74,475.74c2.38,0,4.68-.12,6.8-.33M379.74,473.97c2.38,0,4.68-.12,6.8-.33"/>
        <path id="path306" class="st34" d="M397.82,495.61c-1.38.76-3.29,1.43-5.58,1.96M397.82,493.83c-1.38.76-3.29,1.43-5.58,1.96M397.82,492.04c-1.38.76-3.29,1.43-5.58,1.96M397.82,490.26c-1.38.76-3.29,1.43-5.58,1.96M397.82,488.48c-1.38.76-3.29,1.43-5.58,1.96M397.82,486.69c-1.38.76-3.29,1.43-5.58,1.96M397.82,484.91c-1.38.76-3.29,1.43-5.58,1.96M397.82,483.12c-1.38.76-3.29,1.43-5.58,1.96M397.82,481.34c-1.38.76-3.29,1.43-5.58,1.96M397.82,479.56c-1.38.76-3.29,1.43-5.58,1.96M397.82,477.77c-1.38.76-3.29,1.43-5.58,1.96M397.82,475.99c-1.38.76-3.29,1.43-5.58,1.96M397.82,474.21c-1.38.76-3.29,1.43-5.58,1.96M397.82,472.42c-1.38.76-3.29,1.43-5.58,1.96M397.82,470.64c-1.38.76-3.29,1.43-5.58,1.96"/>
        <path id="path307" class="st4" d="M371.41,473.47c-3.41-.45-6.33-1.17-8.45-2.07M371.41,475.25c-3.41-.45-6.33-1.17-8.45-2.07M371.41,477.02c-3.41-.45-6.33-1.17-8.45-2.07M371.41,478.8c-3.41-.45-6.33-1.17-8.45-2.07M371.41,480.58c-3.41-.45-6.33-1.17-8.45-2.07M371.41,482.35c-3.41-.45-6.33-1.17-8.45-2.07M371.41,484.13c-3.41-.45-6.33-1.17-8.45-2.07M371.41,485.91c-3.41-.45-6.33-1.17-8.45-2.07M371.41,487.68c-3.41-.45-6.33-1.17-8.45-2.07M371.41,489.46c-3.41-.45-6.33-1.17-8.45-2.07M371.41,491.24c-3.41-.45-6.33-1.17-8.45-2.07M371.41,493.01c-3.41-.45-6.33-1.17-8.45-2.07M371.41,494.79c-3.41-.45-6.33-1.17-8.45-2.07M371.41,496.57c-3.41-.45-6.33-1.17-8.45-2.07M371.41,498.34c-3.41-.45-6.33-1.17-8.45-2.07"/>
        <path id="path308" class="st47" d="M379.74,457.26c-10.26,0-18.57,2.11-18.57,4.71h0c0,.27.11.53.3.8v4.51c-.19.26-.29.53-.3.8,0,.28.1.56.3.83v.86h.95c2.76,1.82,9.65,3.02,17.33,3.02,7.68,0,14.56-1.2,17.31-3.02h1.15v-1.19c.07-.17.11-.34.11-.5,0-.15-.05-.3-.11-.45v-5.21c.07-.15.1-.3.11-.45,0-2.6-8.32-4.71-18.57-4.71h0ZM379.74,460.45c.39,0,.77,0,1.16.01.31,0,.63,0,.94.02.28,0,.55.02.82.03.34.01.67.03,1.01.05.28.02.57.04.85.06.31.02.61.04.91.07.31.03.62.05.93.09.27.02.53.05.79.08.32.04.63.07.94.12.24.03.48.06.72.09.32.05.63.09.93.15.21.03.43.07.63.11.27.05.53.1.78.15.17.03.34.06.5.1h-.03c2.53.53,4.45,1.23,5.57,2.01-2.64,1.87-9.63,3.12-17.46,3.12-7.83,0-14.81-1.25-17.46-3.12,2.2-1.56,7.46-2.71,13.85-3.03.61-.03,1.22-.05,1.84-.07.59-.01,1.18-.02,1.77-.02h0Z"/>
        <path id="path309" class="st34" d="M379.74,460.45c-7.83,0-14.81,1.25-17.46,3.12,2.65,1.87,9.63,3.11,17.46,3.12,7.83,0,14.81-1.25,17.46-3.12-2.65-1.87-9.63-3.11-17.46-3.12h0Z"/>
        <path id="path310" class="st34" d="M379.33,457.27c-.5,0-.99,0-1.49.02v3.19c.5-.01.99-.02,1.49-.03v-3.18ZM389.51,457.97v3.19c.51.08,1.01.17,1.49.26v-3.19c-.48-.09-.98-.18-1.49-.26ZM368.9,458.15c-.52.09-1.01.2-1.49.3v3.19c.48-.11.97-.21,1.49-.3v-3.19Z"/>
        <path id="path311" class="st34" d="M391.49,465.61c-.55.11-1.13.22-1.74.32v6.1c.6-.1,1.18-.2,1.74-.32v-6.1ZM374.37,466.47v6.11c.57.04,1.15.08,1.74.11v-6.11c-.59-.03-1.17-.07-1.74-.11h0Z"/>
        <path id="path312" class="st47" d="M398.2,496.78c-.69.41-1.61.79-2.75,1.14-3.39,1.37-9.32,2.21-15.71,2.21-6.36,0-12.27-.83-15.67-2.19-1.06-.32-1.94-.68-2.61-1.05v3.84c-.19.26-.29.53-.3.8,0,.28.1.55.3.83v.86h.95c2.76,1.82,9.65,3.02,17.33,3.02,7.68,0,14.56-1.2,17.31-3.02h1.15v-1.19c.07-.17.11-.34.11-.5,0-.15-.05-.3-.11-.45v-4.3Z"/>
        <path id="path313" class="st10" d="M361.83,470.2v5.28l6.65,23.68c.5.1,1.02.19,1.56.27l-8.21-29.23Z"/>
        <path id="path314" class="st10" d="M374.43,472.59l-5.87,26.59c.45.09.93.17,1.41.25l5.91-26.74c-.49-.03-.97-.06-1.45-.09h0Z"/>
        <path id="path315" class="st10" d="M390.97,471.81c-.5.1-1.01.19-1.55.27l-7.19,28c.5-.02,1-.04,1.49-.06l7.24-28.2Z"/>
        <path id="path316" class="st10" d="M374.41,472.59l7.34,27.52c.49-.01.98-.03,1.47-.06l-7.3-27.36c-.51-.03-1.01-.06-1.51-.1h0Z"/>
        <path id="path317" class="st47" d="M391.38,471.74c-.45.09-.93.18-1.41.26l7.19,24.76.9-.25v-1.76l-6.68-23.02Z"/>
        <path id="path318" class="st34" d="M398.18,496.79c-.45.26-.99.51-1.62.75v5.96c.18-.09.34-.19.5-.28h1.13v-6.43ZM368.3,499.12v6.11c.52.1,1.06.2,1.62.29v-6.11c-.56-.09-1.1-.19-1.62-.29ZM383.39,500.04c-.54.03-1.08.05-1.62.07v6.1c.54-.01,1.09-.04,1.62-.06v-6.11Z"/>
      </g>
      <path id="path319" class="st43" d="M382.02,306.61h3.2M381.94,304.83h3.2M381.86,303.05h3.2M381.78,301.27h3.2M381.7,299.49h3.2M381.62,297.71h3.2M381.54,295.93h3.2M381.46,294.15h3.2M381.38,292.37h3.2M381.3,290.59h3.2M381.22,288.81h3.2M381.14,287.03h3.2M381.06,285.25h3.2M380.98,283.47h3.2M380.9,281.69h3.2M380.82,279.91h3.2M380.74,278.13h3.2M380.66,276.35h3.2M380.58,274.57h3.2M380.51,272.8h3.2M380.43,271.02h3.2M380.35,269.24h3.2M380.27,267.46h3.2M380.19,265.68h3.2"/>
      <g id="g321">
        <path id="path320" class="st24" d="M374.22,250.9c-30.28-3.9-39.84-1.02-41.24-.51-1.39.51-20.88,5.76-28.54,18.29-7.66,12.53-1.74,17.28-1.74,17.28-1.39-2.88,3.65-13.55,3.65-13.55-2.44,4.4.7,11.86.7,11.86-1.04-2.2,1.22-8.81,1.22-8.81l1.74,5.25c0-3.05,1.57-10.33,1.57-10.33.17,9.48,2.09,11.18,2.09,11.18-1.74-2.37,1.22-16.94,1.22-16.94-1.74,8.64,1.04,10.5,1.04,10.5,0-10.16,5.05-15.41,5.05-15.41-5.39,5.93-1.57,14.57-1.57,14.57.52-9.99,8.35-17.95,8.35-17.95-7.31,7.62-2.96,12.7-2.96,12.7.17-6.44,11.48-15.75,11.48-15.75-4.87,4.57-4.7,10.16-4.7,10.16,1.91-3.56,9.22-10.5,9.22-10.5-1.74,2.37-3.31,8.64-3.31,8.64l2.26-1.35,6.26-7.45-3.83,5.76,3.83-1.69,4.35-3.9-1.91,2.54,3.13-.85,3.13-3.56-1.91,2.54h4.52l1.91-1.86-.87,2.03,3.31.17,1.04-1.86-.17,1.86h1.57l1.39-2.71-.52,2.71s3.65,0,4.35.85c.7.85-22.27,6.94-22.27,6.94,0,0,5.05,0,5.39,1.35s-11.48,3.22-11.48,3.22l5.74,2.37-11.48,1.52,8.35,1.02-14.44,3.39h13.22l-13.92,2.71,8.87,1.19-11.66,1.69,11.14,1.02-12.01,4.91,6.44-1.02c-12.7,11.86-8.18,20.32-8.18,20.32.87-3.73,6.61-12.36,6.61-12.36-1.39,11.01,1.74,14.9,1.74,14.9.35-3.05,4.35-18.63,4.35-18.63.7,3.56,1.04,13.72,1.04,13.72,2.96-2.37,1.74-14.23,1.74-14.23l4.7,4.4c-2.26-3.73-1.74-12.36-1.74-12.36,1.39,1.52,3.13,7.45,3.13,7.45.17-1.35,1.57-11.35,1.57-11.35,0,3.56,2.78,10.5,2.78,10.5l1.04-11.86c.17,2.88,3.48,8.64,3.48,8.64v-12.87l2.26,5.76.35-8.98,1.04,10.5,1.91-2.2-1.57-.17.7-.34,1.91-10.33,2.96,4.74,1.04-3.05-.7-4.91c1.04.34,2.61,3.39,2.61,3.39v-6.27l2.78,1.19,4.18-5.93-2.61,4.74,4-2.37-4.7,3.56,2.96,1.19-6.61.68v1.69l5.92.51c-8.35,1.35-8.53,3.73-8.53,3.73l8-.34c-6.26-.17-10.79,4.23-10.79,4.23l9.57-.34c-8.87.68-12.53,4.06-12.53,4.06l11.14.68c-5.57-.51-11.66,5.42-11.66,5.42l7.31.17c-6.79.68-8.35,4.4-8.35,4.4l5.92.17c-6.09,3.39-6.44,9.15-6.44,9.15l6.79-5.25c-7.13,6.1-4.7,11.18-4.7,11.18l4.35-4.91c-6.09,5.76-4.7,9.82-4.7,9.82l4.52-4.74c-2.26,14.4.87,14.74.87,14.74l1.04-14.57c3.83,1.86,6.26,10.33,6.26,10.33l-3.31-13.38c3.65,2.54,4.7,7.79,4.7,7.79,1.39-6.1-4.35-14.06-4.35-14.06l7.13,8.81-5.39-13.38,6.26,9.15c.17-8.64-4.87-14.06-4.87-14.06l7.66,6.44c-.35-2.71-4.35-9.82-4.35-9.82,1.57,1.19,4.52,4.74,4.52,4.74-1.04-4.23-5.39-9.15-5.39-9.15,2.09.51,5.57,4.74,5.57,4.74,0-2.37-2.44-11.18-2.44-11.18l2.61,5.42-1.04-8.81,2.26,3.39-.52-6.1,1.57.34,1.04-7.28-.52,7.45-1.74-.68.52,5.93,5.39-5.76-3.13,10.33,5.39-4.91-4.35,8.98,6.26-7.11-4.7,11.69,5.05-4.23-4.7,8.47c2.61,0,7.83-5.59,7.83-5.59-2.61,1.52-6.44,10.84-6.44,10.84,3.31,0,5.57-5.76,5.57-5.76l-5.39,9.65c3.31-1.02,6.96-7.11,6.96-7.11.7,3.39-5.74,14.4-5.74,14.4,2.09,0,5.39-2.71,5.39-2.71,0,0,.52-2.2-1.74,1.86s-7.48,8.98-7.48,8.98c4.52.17,8.87-5.76,8.87-5.76.7,2.71-5.39,13.38-5.39,13.38,4.35-.34,8-12.19,8-12.19,1.39,1.52,2.26,15.24,2.61,13.55.35-1.69.17-18.63.17-18.63.87,1.19,4.43,8.94,4.43,8.94.26-3.79-3.89-18.43-3.89-18.43l4.93,8.84-5.96-16.91,7.26,8.58-9.08-17.17,4.67,6.82c-1.56-11.61-9.34-11.61-9.34-11.61,9.34-1.26,10.11,10.1,10.11,10.1,2.07-.5,1.82-6.31,1.82-6.31l.52,2.78,1.56,9.59,1.04-8.33v10.35c0,1.01,3.11-6.06,3.11-6.06.78,1.26.78,9.85.78,9.85l2.59-6.82c1.56,4.04.52,10.86.52,10.86,2.59,0,3.37-6.06,3.37-6.06l3.11,8.84-.26-6.56c-.26-6.56-9.34-19.44-11.67-20.7s-11.41-4.04-11.41-4.04l-8.56-7.83,8.56,7.83c1.04-1.26-1.04-7.57-1.04-7.57l6.74,8.58c1.56-3.03-1.56-8.08-1.56-8.08,2.07,2.27,8.04,10.6,8.04,10.6.78-3.03-1.56-9.85-1.56-9.85,1.82,1.77,8.3,12.12,8.3,12.12-.26-1.01-3.89-11.36-3.89-11.36,4.41,3.79,8.82,15.9,8.82,15.9,1.3-4.04-1.82-14.64-1.82-14.64l7.52,17.42c.78-3.53-.52-10.6-.52-10.6,2.33,2.02,6.22,11.11,6.22,11.11-.52-5.3-2.07-11.86-2.07-11.86l6.74,12.12-1.3-8.08,4.15,8.84-2.07-7.83,5.71,7.83-4.67-8.33,6.74,6.56s-9.85-11.86-11.93-13.63-20.49-8.33-24.64-10.35-22.3-1.01-22.3-1.01l5.45-.25-1.04-2.27,1.04,2.02h3.63l-2.07-2.02,1.56,2.27h6.22l-4.15-3.53c2.07,1.01,4.15,3.28,4.15,3.28l3.11.25-2.07-4.29,3.11,4.8,5.19,1.01c-.78-2.27-3.89-5.81-3.89-5.81,2.07,2.02,4.67,6.06,4.67,6.06l4.41,1.51c0-2.27-3.63-7.32-3.63-7.32,3.11,2.52,5.71,7.83,5.71,7.83.26-2.02-1.56-8.08-1.56-8.08,2.07,1.26,5.45,9.09,5.45,9.09.26-2.27-.26-9.09-.78-8.84,1.56,1.77,4.93,10.86,4.93,10.86v-8.84c1.04,0,3.89,9.59,3.89,9.59,1.56-3.53-.26-10.86-.26-10.86,1.3,2.52,4.15,10.6,4.15,10.6l.52-3.53.78,6.56.78-5.55,2.33,6.06c-.26-3.53-3.11-13.13-3.11-13.13,2.07,2.02,7.52,13.88,7.52,13.88v-4.29l1.56,6.82c2.33-6.82-2.59-14.39-2.59-14.39,3.63,5.05,4.93,11.61,4.93,11.61l1.56-3.53c1.56,2.52,1.56,9.09,1.56,9.09,2.07-7.07-2.07-13.38-2.07-13.38,4.41,3.28,7,16.66,7,16.66l.78-10.35c1.3,2.52,3.76,10.39,3.76,10.39.59-4.38-1.3-11.76-3.79-14.98-2.49-3.23-4.5-6.57-20.13-9.8-15.63-3.23-53.4-.46-53.4-.46l6.04-1.27c3.91-3,12.91-.46,12.91-.46l2.25.12s-.36-2.54-.47-3.46,4.26,3,4.26,3l1.54.12v-4.38l6.39,4.73,2.37.35-4.14-5.42c2.37,2.19,9.47,4.96,9.47,4.96-.47-1.96-5.8-6.11-5.8-6.11,1.78,0,9.12,6.45,9.12,6.45l-4.38-4.96,10.54,4.84c-.71-1.27-4.26-4.84-4.26-4.84,4.14,3.69,12.67,5.88,12.67,5.88l-10.06-7.84,12.55,9.57c-2.01-5.99-8.17-11.3-8.17-11.3,3.08.46,14.8,11.76,14.8,11.76,0-4.5-4.38-9.8-4.38-9.8,3.08,1.04,10.89,11.41,10.89,11.41.36-2.77-4.14-10.03-4.14-10.03,2.37,1.15,8.76,10.14,8.76,10.14,1.42-5.19-4.62-9.8-4.62-9.8l12.12,6.48c-6.32-9.23-19.08-12.31-20.6-12.88s-12.76-.57-22.47-.23c-9.71.34-22.12,5.81-22.71,5.92-.59.11-10.53,3.08-10.53,3.08l-2.69-1.03,3.39.8,4.68-1.25-4.68-2.85,6.09,2.28,3.16-1.14-4.56-2.62,4.92,2.16,7.26-2.62-8.31-3.08,13.11.11-9.95-3.42,16.15,2.62c-1.4-1.71-5.97-3.19-5.97-3.19,3.28,0,10.77,1.71,10.77,1.71-1.4-1.6-7.84-4.44-7.84-4.44,3.51.68,12.88,3.42,12.88,3.42l-6.91-4.67c.94.34,6.67,2.51,6.67,2.51-1.17-2.05-4.92-3.76-4.92-3.76,1.52,0,12.76,5.36,12.76,5.36-2.46-3.87-7.84-9.34-7.84-9.34l6.91,4.22-3.98-4.44,10.3,4.67c-3.51-4.79-11.35-7.52-13.69-7.86-2.34-.34-18.84,1.48-31.84,10.48s-14.51,17.32-14.51,17.32c0,0-13.32-28.09-36.63-29.78,0,0,3.65,3.39,10.79,4.91,0,0-7.83,1.69-9.74,4.4,0,0,8.7-.68,14.27.85,0,0-9.22,1.86-10.61,4.23,0,0,9.92-1.02,15.14-.17,0,0-8.87,1.19-9.22,3.22,0,0,13.75,0,14.27,2.54,0,0-9.4-.34-11.83,1.19,0,0,12.35,1.69,14.79,3.39l-7.66,1.19s9.92,2.03,11.14,4.74c0,0-21.92-9.32-39.84-11.18s-23.32,2.71-26.45,5.25-10.27,9.15-9.05,14.57c0,0,3.83-7.28,13.05-13.04l-8.35,9.82,9.4-7.45s-5.74,7.62-5.74,10.16c0,0,8.87-14.06,12.7-16.6,0,0-6.44,7.96-6.26,11.01,0,0,12.35-11.86,13.57-11.69,0,0-9.4,8.3-9.22,13.72,0,0,10.79-11.18,14.09-12.19,0,0-8.18,4.57-6.61,8.47l8.87-7.96-5.39,8.47,2.61-.85s3.83-7.11,9.22-6.94l-7.13,6.61,3.65-.34s4.18-5.08,9.22-6.77c0,0-7.31,5.76-7.66,6.77l2.26.17s4.35-4.4,7.66-5.25l-3.13,4.91h1.57l4.18-3.9-2.96,3.73,3.83.34,2.78-2.37-2.26,2.71h2.78l1.74-1.35-.17,1.69,4.52.17,1.22-2.37-.17,2.03,8.35,1.35Z"/>
        <path id="path321" class="st16" d="M354.73,251.07l-3.13,3.56-.35.09v.42s-12.18,4.4-21.23,12.02c-9.05,7.62-14.62,16.09-15.66,20.16s-1.22,15.41-1.22,15.41c0,0,1.74-9.49,2.78-10.84,0,0,0,5.93.87,7.28,0,0,.7-10.33,1.04-11.86.35-1.52.35,8.47,2.26,9.32,0,0-.52-10.67.87-14.06,0,0-.52,5.76.52,7.28,0,0,1.57-13.38,5.22-16.94,0,0-4.35,6.95-1.57,16.77l.84-3.74-1.19.19,1.26-.52,1.17-5.24,1.74,4.05.7-.29.44-3.52-4.45-.41,5.33-.77.06-1.76-2.61-.35,2.64-.51.07-2.2h-2.01l2.03-.47.06-1.9.23,1.83,2.86-.67.4-1.84.39,1.65.23-.05.48-2.88-.58-.07.61-.08.44-2.63.34,2.53,1.35-.18.74-3.7.87,3.39s2.26-7.28,4-8.13l.14,4.43c.27-.05.52-.09.81-.15l3.75-6.31-.07,2.06c.35-.09.77-.21,1.47-.4l1.55-3.53,1.04,2.71,1.74-2.03.82,1.43c6.59-1.85,14.91-4.3,14.49-4.81-.7-.85-4.35-.85-4.35-.85l.52-2.71-1.39,2.71h-1.57l.17-1.86-1.04,1.86-3.31-.17.87-2.03-1.91,1.86h-4.52l1.91-2.54ZM348.21,261.78l-.09,2.84,1.21-2.74c-.4-.04-.78-.08-1.11-.09ZM336.68,270.38l.32,2.39.41-.1.43-2.15-1.17-.14ZM331.53,274.61l.26,2.06,1.91-.37.36-1.69h-2.53ZM331.93,277.79l.18,1.48.98-.14.25-1.15-1.41-.19ZM330.34,280.63l.55,2.28.07-2.23-.62-.06ZM332.3,280.81l.16,1.26.26-1.22-.42-.04ZM329.53,285.38l-.12.02.09.22.03-.24Z"/>
      </g>
      <path id="path322" class="st7" d="M381.63,223.46l-1.53,20.45c1.68,2.75,2.56,4.59,2.56,4.59,0,0,.29-1.55,1.65-4.04l-.67-20.21c-.67-.32-1.35-.59-2.02-.81ZM384.49,249.87l-.76.16.78.21v-.37Z"/>
      <g id="g327">
        <path id="path323" class="st0" d="M315.47,435.16s7.25-4.03,11.39-.17l-1.38,2.86-7.07.5-2.93-3.19Z"/>
        <path id="path324" class="st1" d="M320.65,426.39l-.14,10.94h1.44s.14-10.93.14-10.93h-1.44Z"/>
        <path id="path325" class="st36" d="M315.68,438.75s1.46.59,1.17,2.7c-.29,2.12-.88,9.76,4.67,9.76s4.82-7.41,4.82-8.59.44-3.41.44-3.41v-4.23s-5.54,4-11.09-.12v3.88Z"/>
        <path id="path326" class="st49" d="M320.47,440.44s-.44,2.64-.44,5.29c0,1.32.1,2.65.46,3.7.18.52.42.98.79,1.34.08.08.18.15.29.22.47,0,.89-.06,1.27-.17l-.02-.46c-.25,0-.39-.04-.58-.23-.2-.19-.4-.53-.55-.97-.3-.88-.42-2.15-.42-3.43,0-2.56.43-5.15.43-5.15l-1.22-.14Z"/>
        <path id="path327" class="st26" d="M326.71,438.22c-5.02,1.6-8.66,1.07-11.03.19v.34s.69.28,1.03,1.15c4.65,2.2,8.28.41,10.05-.86l-.05-.82Z"/>
      </g>
      <g id="g345">
        <path id="path328" d="M303.44,531.64l-1.31-.25-1.87,9.45,6.24,1.17.22-1.13-4.93-.92,1.65-8.32Z"/>
        <path id="path329" d="M308.61,536.03l.99.16.57-3.37-.99-.16-.57,3.37Z"/>
        <path id="path330" d="M318.18,533.94l-.85,6.03c-.07.51-.2.93-.4,1.24-.2.33-.44.57-.73.73-.57.3-1.18.41-1.82.31-.29-.04-.57-.12-.85-.25-.28-.12-.53-.3-.75-.53-.21-.23-.36-.52-.46-.89-.11-.36-.13-.79-.05-1.31l.84-6-1.32-.18-.89,6.37c-.14.92.05,1.75.57,2.49.51.76,1.42,1.24,2.72,1.43,1.35.16,2.39-.07,3.14-.68.74-.6,1.17-1.4,1.31-2.4l.87-6.19-1.33-.18Z"/>
        <path id="path331" d="M327,542.71h-.03s-4.09-8.23-4.09-8.23l-1.57-.16-1.03,9.58,1.28.13.83-7.74h.03s4.18,8.25,4.18,8.25l1.49.15,1.03-9.58-1.29-.13-.83,7.73Z"/>
        <path id="path332" d="M332.58,535.39l-1.33-.11-.85,9.59,1.33.11.85-9.59Z"/>
        <path id="path333" d="M342.1,540.91c-.09,1.14-.47,2.05-1.12,2.73-.66.69-1.53,1-2.6.94-1.08-.08-1.89-.51-2.44-1.29-.56-.77-.8-1.72-.71-2.86.08-1.16.46-2.07,1.13-2.75.65-.68,1.51-.99,2.6-.92,1.08.08,1.89.51,2.44,1.27.55.76.78,1.71.71,2.87ZM343.46,541.01c.04-.54,0-1.1-.09-1.7-.12-.6-.35-1.16-.68-1.69-.33-.54-.79-1-1.38-1.36-.61-.35-1.37-.57-2.29-.64-.45-.03-.87-.02-1.26.03-.39.06-.75.15-1.07.29-.64.28-1.17.67-1.58,1.16-.4.48-.7,1-.9,1.58-.21.58-.33,1.13-.37,1.67-.04.52,0,1.07.13,1.66.11.59.33,1.16.66,1.7.34.54.8.99,1.4,1.36.59.37,1.34.6,2.26.67.47.03.89.01,1.29-.06.39-.05.75-.15,1.07-.29.64-.28,1.16-.66,1.56-1.15.4-.49.71-1.02.92-1.59.19-.57.3-1.11.34-1.63h0Z"/>
        <path id="path334" d="M351.34,544.38h-.03s-4.52-8.02-4.52-8.02l-1.58-.08-.52,9.61,1.29.07.42-7.77h.03s4.61,8.03,4.61,8.03l1.5.08.52-9.61-1.3-.07-.42,7.76Z"/>
        <path id="path335" d="M360.09,542.2l4.85.15.04-1.15-4.85-.15.1-2.95,5.51.17.04-1.15-6.85-.22-.32,9.62,1.34.04.15-4.37Z"/>
        <path id="path336" d="M371.47,544.06l.92,2.82,1.46.03-3.39-9.69-1.51-.03-3.91,9.56,1.37.03,1.09-2.78,3.97.07ZM367.93,542.84l1.67-4.21h.03s1.38,4.26,1.38,4.26l-3.07-.06Z"/>
        <path id="path337" d="M376.76,537.29h-1.34s-.08,9.62-.08,9.62h1.34s.08-9.62.08-9.62Z"/>
        <path id="path338" d="M377.7,538.46l3.34-.04.11,8.47,1.34-.02-.11-8.47,3.35-.04-.02-1.15-8.03.1.02,1.15Z"/>
        <path id="path339" d="M392.04,537.05l-1.33.04.31,9.62,6.35-.19-.04-1.15-5.02.15-.27-8.47Z"/>
        <path id="path340" d="M404.08,543.44l1.1,2.76,1.46-.06-4.01-9.47-1.51.06-3.29,9.78,1.37-.06.91-2.84,3.97-.17ZM400.48,542.44l1.4-4.3h.03s1.65,4.17,1.65,4.17l-3.07.13Z"/>
        <path id="path341" d="M412.89,541.4l4.84-.3-.08-1.15-4.84.3-.19-2.94,5.5-.34-.08-1.15-6.83.43.63,9.61,1.34-.08-.29-4.37Z"/>
        <path id="path342" d="M427.44,539.91c.09,1.14-.14,2.1-.67,2.87-.54.78-1.35,1.22-2.43,1.31-1.08.08-1.95-.22-2.61-.91-.67-.67-1.06-1.58-1.16-2.72-.1-1.16.13-2.12.68-2.88.53-.77,1.34-1.2,2.42-1.3,1.08-.08,1.95.22,2.61.89.66.67,1.04,1.58,1.15,2.73h0ZM428.81,539.8c-.05-.54-.17-1.09-.36-1.67-.22-.57-.53-1.1-.94-1.57-.41-.49-.94-.87-1.58-1.14-.66-.26-1.45-.35-2.36-.29-.45.04-.87.11-1.24.22-.38.11-.71.26-1.01.44-.59.37-1.05.83-1.38,1.38-.32.53-.53,1.09-.64,1.69-.12.6-.15,1.17-.1,1.7.04.52.17,1.06.39,1.62.21.57.51,1.09.92,1.58.42.48.95.86,1.6,1.13.64.28,1.42.39,2.34.32.46-.04.89-.12,1.26-.25.38-.11.72-.26,1.02-.44.58-.37,1.04-.83,1.36-1.37.32-.55.54-1.12.66-1.71.09-.59.12-1.14.07-1.66h0Z"/>
        <path id="path343" d="M431.83,540.18l3.22-.34c.39-.04.72-.03.97.05.24.07.43.18.57.34.14.15.24.32.3.52.05.2.09.4.11.61.02.22.08.58.18,1.1.05.24.1.47.15.7.05.23.11.42.17.57l1.63-.17-.02-.21c-.2-.09-.35-.2-.43-.33-.08-.13-.13-.32-.17-.57l-.27-1.72c-.05-.33-.12-.6-.21-.81-.1-.21-.21-.36-.33-.47-.12-.12-.25-.21-.39-.27-.15-.05-.3-.09-.45-.13.15-.1.3-.23.45-.38.14-.13.27-.29.39-.48.12-.19.2-.42.26-.67.04-.25.05-.56,0-.9-.13-.99-.54-1.64-1.23-1.95-.69-.29-1.45-.38-2.29-.28l-4.55.48,1.07,9.57,1.33-.14-.46-4.11ZM431.34,535.82l3.31-.35c.36-.05.75,0,1.16.11.19.08.36.22.51.42.15.21.24.5.28.87.04.35.01.63-.07.86-.09.24-.22.42-.4.56-.18.14-.38.24-.62.3-.23.08-.47.13-.73.16l-3.08.33-.36-3.25Z"/>
        <path id="path344" d="M447.87,535.58c-.21-.82-.69-1.49-1.45-2.01-.75-.53-1.76-.71-3.03-.55-1.43.22-2.48.83-3.14,1.83-.68,1.02-.91,2.27-.7,3.77.28,1.81.93,3.05,1.95,3.71.98.67,2.04.92,3.2.75.2-.03.5-.1.9-.22.4-.12.81-.33,1.24-.62.43-.3.8-.74,1.1-1.32.31-.57.47-1.3.49-2.2l-1.29.18c-.03.56-.12,1.02-.28,1.4-.17.38-.38.68-.63.9-.25.22-.5.38-.76.5-.26.11-.51.18-.74.21-1.19.16-2.09-.11-2.69-.8-.6-.67-.97-1.57-1.13-2.72-.17-1.25,0-2.25.54-2.97.5-.71,1.2-1.13,2.11-1.25.25-.04.52-.05.8-.06.28.01.56.07.85.18.28.11.55.28.8.51.25.23.44.55.59.96l1.28-.18Z"/>
        <path id="path345" d="M457.62,539.48l-5.85,1.09-.62-3.16,5.32-.99-.22-1.13-5.32.99-.57-2.89,5.76-1.07-.22-1.13-7.08,1.32,1.86,9.46,7.17-1.33-.22-1.13Z"/>
      </g>
    </g>
  </g>
</svg>