<?xml version="1.0" encoding="UTF-8"?>
<svg id="Laag_1" xmlns="http://www.w3.org/2000/svg" version="1.1" xmlns:xlink="http://www.w3.org/1999/xlink" viewBox="0 0 760 760">
  <!-- Generator: Adobe Illustrator 29.5.1, SVG Export Plug-In . SVG Version: 2.1.0 Build 141)  -->
  <defs>
    <style>
      .st0 {
        fill: #fff;
      }

      .st1, .st2, .st3 {
        fill: none;
      }

      .st4 {
        fill: #da0000;
      }

      .st2 {
        stroke-miterlimit: 11.2;
        stroke-width: 5.6px;
      }

      .st2, .st3 {
        stroke: #fff;
      }

      .st5 {
        fill: #239f40;
      }

      .st6 {
        clip-path: url(#clippath-1);
      }

      .st3 {
        stroke-miterlimit: 5.6;
        stroke-width: 2.8px;
      }

      .st7 {
        clip-path: url(#clippath);
      }
    </style>
    <clipPath id="clippath">
      <circle class="st1" cx="379" cy="283.46" r="176.4"/>
    </clipPath>
    <clipPath id="clippath-1">
      <circle class="st1" cx="380" cy="380" r="379.98"/>
    </clipPath>
  </defs>
  <g class="st7">
    <rect class="st4" x="64" y="103.46" width="630" height="360"/>
    <rect class="st0" x="64" y="103.46" width="630" height="240"/>
    <rect class="st5" x="64" y="103.46" width="630" height="120"/>
    <g>
      <g id="tb4">
        <g id="tb1">
          <path id="tbp1" class="st3" d="M72.4,205.26h36.4M73.8,217.86v-7h11.2v5.6h11.2v-5.6h-7M78,216.46h2.8M108.8,216.46h-7v-5.6h11.2M113,203.86v12.6h11.2v-12.6M118.6,203.86v12.6"/>
          <path id="tbp2" class="st2" d="M72.4,223.46h25.2M100.4,223.46h25.2"/>
          <path id="tbp21" data-name="tbp2" class="st2" d="M72.4,343.46h25.2M100.4,343.46h25.2"/>
          <path id="tbp11" data-name="tbp1" class="st3" d="M72.4,350.46h36.4M73.8,363.06v-7h11.2v5.6h11.2v-5.6h-7M78,361.66h2.8M108.8,361.66h-7v-5.6h11.2M113,349.06v12.6h11.2v-12.6M118.6,349.06v12.6"/>
        </g>
        <g id="tb3">
          <g id="tb11" data-name="tb1">
            <path id="tbp12" data-name="tbp1" class="st3" d="M128.4,205.26h36.4M129.8,217.86v-7h11.2v5.6h11.2v-5.6h-7M134,216.46h2.8M164.8,216.46h-7v-5.6h11.2M169,203.86v12.6h11.2v-12.6M174.6,203.86v12.6"/>
            <path id="tbp22" data-name="tbp2" class="st2" d="M128.4,223.46h25.2M156.4,223.46h25.2"/>
            <path id="tbp23" data-name="tbp2" class="st2" d="M128.4,343.46h25.2M156.4,343.46h25.2"/>
            <path id="tbp13" data-name="tbp1" class="st3" d="M128.4,350.46h36.4M129.8,363.06v-7h11.2v5.6h11.2v-5.6h-7M134,361.66h2.8M164.8,361.66h-7v-5.6h11.2M169,349.06v12.6h11.2v-12.6M174.6,349.06v12.6"/>
          </g>
          <g id="tb12" data-name="tb1">
            <path id="tbp14" data-name="tbp1" class="st3" d="M184.4,205.26h36.4M185.8,217.86v-7h11.2v5.6h11.2v-5.6h-7M190,216.46h2.8M220.8,216.46h-7v-5.6h11.2M225,203.86v12.6h11.2v-12.6M230.6,203.86v12.6"/>
            <path id="tbp24" data-name="tbp2" class="st2" d="M184.4,223.46h25.2M212.4,223.46h25.2"/>
            <path id="tbp25" data-name="tbp2" class="st2" d="M184.4,343.46h25.2M212.4,343.46h25.2"/>
            <path id="tbp15" data-name="tbp1" class="st3" d="M184.4,350.46h36.4M185.8,363.06v-7h11.2v5.6h11.2v-5.6h-7M190,361.66h2.8M220.8,361.66h-7v-5.6h11.2M225,349.06v12.6h11.2v-12.6M230.6,349.06v12.6"/>
          </g>
          <g id="tb13" data-name="tb1">
            <path id="tbp16" data-name="tbp1" class="st3" d="M240.4,205.26h36.4M241.8,217.86v-7h11.2v5.6h11.2v-5.6h-7M246,216.46h2.8M276.8,216.46h-7v-5.6h11.2M281,203.86v12.6h11.2v-12.6M286.6,203.86v12.6"/>
            <path id="tbp26" data-name="tbp2" class="st2" d="M240.4,223.46h25.2M268.4,223.46h25.2"/>
            <path id="tbp27" data-name="tbp2" class="st2" d="M240.4,343.46h25.2M268.4,343.46h25.2"/>
            <path id="tbp17" data-name="tbp1" class="st3" d="M240.4,350.46h36.4M241.8,363.06v-7h11.2v5.6h11.2v-5.6h-7M246,361.66h2.8M276.8,361.66h-7v-5.6h11.2M281,349.06v12.6h11.2v-12.6M286.6,349.06v12.6"/>
          </g>
        </g>
      </g>
      <g id="tb31" data-name="tb3">
        <g id="tb14" data-name="tb1">
          <path id="tbp18" data-name="tbp1" class="st3" d="M296.4,205.26h36.4M297.8,217.86v-7h11.2v5.6h11.2v-5.6h-7M302,216.46h2.8M332.8,216.46h-7v-5.6h11.2M337,203.86v12.6h11.2v-12.6M342.6,203.86v12.6"/>
          <path id="tbp28" data-name="tbp2" class="st2" d="M296.4,223.46h25.2M324.4,223.46h25.2"/>
          <path id="tbp29" data-name="tbp2" class="st2" d="M296.4,343.46h25.2M324.4,343.46h25.2"/>
          <path id="tbp19" data-name="tbp1" class="st3" d="M296.4,350.46h36.4M297.8,363.06v-7h11.2v5.6h11.2v-5.6h-7M302,361.66h2.8M332.8,361.66h-7v-5.6h11.2M337,349.06v12.6h11.2v-12.6M342.6,349.06v12.6"/>
        </g>
        <g id="tb15" data-name="tb1">
          <path id="tbp110" data-name="tbp1" class="st3" d="M352.4,205.26h36.4M353.8,217.86v-7h11.2v5.6h11.2v-5.6h-7M358,216.46h2.8M388.8,216.46h-7v-5.6h11.2M393,203.86v12.6h11.2v-12.6M398.6,203.86v12.6"/>
          <path id="tbp210" data-name="tbp2" class="st2" d="M352.4,223.46h25.2M380.4,223.46h25.2"/>
          <path id="tbp211" data-name="tbp2" class="st2" d="M352.4,343.46h25.2M380.4,343.46h25.2"/>
          <path id="tbp111" data-name="tbp1" class="st3" d="M352.4,350.46h36.4M353.8,363.06v-7h11.2v5.6h11.2v-5.6h-7M358,361.66h2.8M388.8,361.66h-7v-5.6h11.2M393,349.06v12.6h11.2v-12.6M398.6,349.06v12.6"/>
        </g>
        <g id="tb16" data-name="tb1">
          <path id="tbp112" data-name="tbp1" class="st3" d="M408.4,205.26h36.4M409.8,217.86v-7h11.2v5.6h11.2v-5.6h-7M414,216.46h2.8M444.8,216.46h-7v-5.6h11.2M449,203.86v12.6h11.2v-12.6M454.6,203.86v12.6"/>
          <path id="tbp212" data-name="tbp2" class="st2" d="M408.4,223.46h25.2M436.4,223.46h25.2"/>
          <path id="tbp213" data-name="tbp2" class="st2" d="M408.4,343.46h25.2M436.4,343.46h25.2"/>
          <path id="tbp113" data-name="tbp1" class="st3" d="M408.4,350.46h36.4M409.8,363.06v-7h11.2v5.6h11.2v-5.6h-7M414,361.66h2.8M444.8,361.66h-7v-5.6h11.2M449,349.06v12.6h11.2v-12.6M454.6,349.06v12.6"/>
        </g>
      </g>
      <g id="tb41" data-name="tb4">
        <g id="tb17" data-name="tb1">
          <path id="tbp114" data-name="tbp1" class="st3" d="M464.4,205.26h36.4M465.8,217.86v-7h11.2v5.6h11.2v-5.6h-7M470,216.46h2.8M500.8,216.46h-7v-5.6h11.2M505,203.86v12.6h11.2v-12.6M510.6,203.86v12.6"/>
          <path id="tbp214" data-name="tbp2" class="st2" d="M464.4,223.46h25.2M492.4,223.46h25.2"/>
          <path id="tbp215" data-name="tbp2" class="st2" d="M464.4,343.46h25.2M492.4,343.46h25.2"/>
          <path id="tbp115" data-name="tbp1" class="st3" d="M464.4,350.46h36.4M465.8,363.06v-7h11.2v5.6h11.2v-5.6h-7M470,361.66h2.8M500.8,361.66h-7v-5.6h11.2M505,349.06v12.6h11.2v-12.6M510.6,349.06v12.6"/>
        </g>
        <g id="tb32" data-name="tb3">
          <g id="tb18" data-name="tb1">
            <path id="tbp116" data-name="tbp1" class="st3" d="M520.4,205.26h36.4M521.8,217.86v-7h11.2v5.6h11.2v-5.6h-7M526,216.46h2.8M556.8,216.46h-7v-5.6h11.2M561,203.86v12.6h11.2v-12.6M566.6,203.86v12.6"/>
            <path id="tbp216" data-name="tbp2" class="st2" d="M520.4,223.46h25.2M548.4,223.46h25.2"/>
            <path id="tbp217" data-name="tbp2" class="st2" d="M520.4,343.46h25.2M548.4,343.46h25.2"/>
            <path id="tbp117" data-name="tbp1" class="st3" d="M520.4,350.46h36.4M521.8,363.06v-7h11.2v5.6h11.2v-5.6h-7M526,361.66h2.8M556.8,361.66h-7v-5.6h11.2M561,349.06v12.6h11.2v-12.6M566.6,349.06v12.6"/>
          </g>
          <g id="tb19" data-name="tb1">
            <path id="tbp118" data-name="tbp1" class="st3" d="M576.4,205.26h36.4M577.8,217.86v-7h11.2v5.6h11.2v-5.6h-7M582,216.46h2.8M612.8,216.46h-7v-5.6h11.2M617,203.86v12.6h11.2v-12.6M622.6,203.86v12.6"/>
            <path id="tbp218" data-name="tbp2" class="st2" d="M576.4,223.46h25.2M604.4,223.46h25.2"/>
            <path id="tbp219" data-name="tbp2" class="st2" d="M576.4,343.46h25.2M604.4,343.46h25.2"/>
            <path id="tbp119" data-name="tbp1" class="st3" d="M576.4,350.46h36.4M577.8,363.06v-7h11.2v5.6h11.2v-5.6h-7M582,361.66h2.8M612.8,361.66h-7v-5.6h11.2M617,349.06v12.6h11.2v-12.6M622.6,349.06v12.6"/>
          </g>
          <g id="tb110" data-name="tb1">
            <path id="tbp120" data-name="tbp1" class="st3" d="M632.4,205.26h36.4M633.8,217.86v-7h11.2v5.6h11.2v-5.6h-7M638,216.46h2.8M668.8,216.46h-7v-5.6h11.2M673,203.86v12.6h11.2v-12.6M678.6,203.86v12.6"/>
            <path id="tbp220" data-name="tbp2" class="st2" d="M632.4,223.46h25.2M660.4,223.46h25.2"/>
            <path id="tbp221" data-name="tbp2" class="st2" d="M632.4,343.46h25.2M660.4,343.46h25.2"/>
            <path id="tbp121" data-name="tbp1" class="st3" d="M632.4,350.46h36.4M633.8,363.06v-7h11.2v5.6h11.2v-5.6h-7M638,361.66h2.8M668.8,361.66h-7v-5.6h11.2M673,349.06v12.6h11.2v-12.6M678.6,349.06v12.6"/>
          </g>
        </g>
      </g>
    </g>
    <g>
      <g id="emblem_half">
        <path class="st4" d="M424.71,282.76c0,12.95-7.16,24.83-18.62,30.87,15.58-19.5,12.4-47.93-7.09-63.5-.66-.53-1.34-1.04-2.04-1.54,16.17,3.39,27.75,17.65,27.75,34.17Z"/>
        <path class="st4" d="M408.52,281.36c-.01,23.04-18.7,41.7-41.74,41.68-4.36,0-8.7-.69-12.85-2.04.74.04,1.47.05,2.22.05,25.25,0,45.71-20.48,45.71-45.72,0-9.11-2.73-18.01-7.82-25.57,9.21,7.91,14.5,19.45,14.49,31.59Z"/>
        <path class="st4" d="M390.77,240.99c0,3.52-2.85,6.37-6.37,6.37-2.2,0-4.24-1.13-5.4-2.99l-.77-.77.77-3.75c1.38,2.98,4.91,4.28,7.89,2.91,1.75-.81,2.99-2.41,3.35-4.3.35.8.53,1.66.53,2.53Z"/>
        <path class="st4" d="M384.4,251.31c-2.13-.97-3.98-2.45-5.4-4.31l-2.28,35.72,2.28,45.75,3.55-4.88.47-11.26.48-11.72.06-1.5.02-.56.1-2.44.3-7.38.25-5.96.07-1.72.09-2.19v-27.54h0ZM379,258.73h0s0,.01,0,.01h0ZM379,297.63h0s.02,0,.02,0h-.02Z"/>
      </g>
      <g id="emblem_half1" data-name="emblem_half">
        <path class="st4" d="M333.29,282.76c0,12.95,7.16,24.83,18.62,30.87-15.58-19.5-12.4-47.93,7.09-63.5.66-.53,1.34-1.04,2.04-1.54-16.17,3.39-27.75,17.65-27.75,34.17Z"/>
        <path class="st4" d="M349.48,281.36c.01,23.04,18.7,41.7,41.74,41.68,4.36,0,8.7-.69,12.85-2.04-.74.04-1.47.05-2.22.05-25.25,0-45.71-20.48-45.71-45.72,0-9.11,2.73-18.01,7.82-25.57-9.21,7.91-14.5,19.45-14.49,31.59Z"/>
        <path class="st4" d="M367.23,240.99c0,3.52,2.85,6.37,6.37,6.37,2.2,0,4.24-1.13,5.4-2.99l.77-.77-.77-3.75c-1.38,2.98-4.91,4.28-7.89,2.91-1.75-.81-2.99-2.41-3.35-4.3-.35.8-.53,1.66-.53,2.53Z"/>
        <path class="st4" d="M373.6,251.31c2.13-.97,3.98-2.45,5.4-4.31l2.28,35.72-2.28,45.75-3.55-4.88-.47-11.26-.48-11.72-.06-1.5-.02-.56-.1-2.44-.3-7.38-.25-5.96-.07-1.72-.09-2.19v-27.54h0ZM379,258.73h0s0,.01,0,.01h0ZM379,297.63h0s-.02,0-.02,0h.02Z"/>
      </g>
    </g>
  </g>
  <g class="st6">
    <rect class="st4" x="-298.54" y="-7.74" width="1357.09" height="775.48"/>
    <rect class="st0" x="-298.54" y="-7.74" width="1357.09" height="516.99"/>
    <rect class="st5" x="-298.54" y="-7.74" width="1357.09" height="258.49"/>
    <g>
      <g id="tb42" data-name="tb4">
        <g id="tb111" data-name="tb1">
          <path id="tbp122" data-name="tbp1" class="st3" d="M-280.45,211.55h78.41M-277.43,238.69v-15.08h24.13v12.06h24.13v-12.06h-15.08M-268.39,235.67h6.03M-202.04,235.67h-15.08v-12.06h24.13M-192.99,208.53v27.14h24.13v-27.14M-180.93,208.53v27.14"/>
          <path id="tbp222" data-name="tbp2" class="st2" d="M-280.45,250.75h54.28M-220.13,250.75h54.28"/>
          <path id="tbp223" data-name="tbp2" class="st2" d="M-280.45,509.25h54.28M-220.13,509.25h54.28"/>
          <path id="tbp123" data-name="tbp1" class="st3" d="M-280.45,524.33h78.41M-277.43,551.47v-15.08h24.13v12.06h24.13v-12.06h-15.08M-268.39,548.45h6.03M-202.04,548.45h-15.08v-12.06h24.13M-192.99,521.31v27.14h24.13v-27.14M-180.93,521.31v27.14"/>
        </g>
        <g id="tb33" data-name="tb3">
          <g id="tb112" data-name="tb1">
            <path id="tbp124" data-name="tbp1" class="st3" d="M-159.82,211.55h78.41M-156.8,238.69v-15.08h24.13v12.06h24.13v-12.06h-15.08M-147.76,235.67h6.03M-81.41,235.67h-15.08v-12.06h24.13M-72.36,208.53v27.14h24.13v-27.14M-60.3,208.53v27.14"/>
            <path id="tbp224" data-name="tbp2" class="st2" d="M-159.82,250.75h54.28M-99.5,250.75h54.28"/>
            <path id="tbp225" data-name="tbp2" class="st2" d="M-159.82,509.25h54.28M-99.5,509.25h54.28"/>
            <path id="tbp125" data-name="tbp1" class="st3" d="M-159.82,524.33h78.41M-156.8,551.47v-15.08h24.13v12.06h24.13v-12.06h-15.08M-147.76,548.45h6.03M-81.41,548.45h-15.08v-12.06h24.13M-72.36,521.31v27.14h24.13v-27.14M-60.3,521.31v27.14"/>
          </g>
          <g id="tb113" data-name="tb1">
            <path id="tbp126" data-name="tbp1" class="st3" d="M-39.19,211.55H39.22M-36.17,238.69v-15.08H-12.05v12.06H12.08v-12.06H-3M-27.13,235.67h6.03M39.22,235.67h-15.08v-12.06h24.13M48.27,208.53v27.14h24.13v-27.14M60.33,208.53v27.14"/>
            <path id="tbp226" data-name="tbp2" class="st2" d="M-39.19,250.75H15.09M21.13,250.75h54.28"/>
            <path id="tbp227" data-name="tbp2" class="st2" d="M-39.19,509.25H15.09M21.13,509.25h54.28"/>
            <path id="tbp127" data-name="tbp1" class="st3" d="M-39.19,524.33H39.22M-36.17,551.47v-15.08H-12.05v12.06H12.08v-12.06H-3M-27.13,548.45h6.03M39.22,548.45h-15.08v-12.06h24.13M48.27,521.31v27.14h24.13v-27.14M60.33,521.31v27.14"/>
          </g>
          <g id="tb114" data-name="tb1">
            <path id="tbp128" data-name="tbp1" class="st3" d="M81.44,211.55h78.41M84.46,238.69v-15.08h24.13v12.06h24.13v-12.06h-15.08M93.5,235.67h6.03M159.85,235.67h-15.08v-12.06h24.13M168.9,208.53v27.14h24.13v-27.14M180.96,208.53v27.14"/>
            <path id="tbp228" data-name="tbp2" class="st2" d="M81.44,250.75h54.28M141.76,250.75h54.28"/>
            <path id="tbp229" data-name="tbp2" class="st2" d="M81.44,509.25h54.28M141.76,509.25h54.28"/>
            <path id="tbp129" data-name="tbp1" class="st3" d="M81.44,524.33h78.41M84.46,551.47v-15.08h24.13v12.06h24.13v-12.06h-15.08M93.5,548.45h6.03M159.85,548.45h-15.08v-12.06h24.13M168.9,521.31v27.14h24.13v-27.14M180.96,521.31v27.14"/>
          </g>
        </g>
      </g>
      <g id="tb34" data-name="tb3">
        <g id="tb115" data-name="tb1">
          <path id="tbp130" data-name="tbp1" class="st3" d="M202.07,211.55h78.41M205.09,238.69v-15.08h24.13v12.06h24.13v-12.06h-15.08M214.13,235.67h6.03M280.48,235.67h-15.08v-12.06h24.13M289.53,208.53v27.14h24.13v-27.14M301.59,208.53v27.14"/>
          <path id="tbp230" data-name="tbp2" class="st2" d="M202.07,250.75h54.28M262.39,250.75h54.28"/>
          <path id="tbp231" data-name="tbp2" class="st2" d="M202.07,509.25h54.28M262.39,509.25h54.28"/>
          <path id="tbp131" data-name="tbp1" class="st3" d="M202.07,524.33h78.41M205.09,551.47v-15.08h24.13v12.06h24.13v-12.06h-15.08M214.13,548.45h6.03M280.48,548.45h-15.08v-12.06h24.13M289.53,521.31v27.14h24.13v-27.14M301.59,521.31v27.14"/>
        </g>
        <g id="tb116" data-name="tb1">
          <path id="tbp132" data-name="tbp1" class="st3" d="M322.7,211.55h78.41M325.72,238.69v-15.08h24.13v12.06h24.13v-12.06h-15.08M334.76,235.67h6.03M401.11,235.67h-15.08v-12.06h24.13M410.16,208.53v27.14h24.13v-27.14M422.22,208.53v27.14"/>
          <path id="tbp232" data-name="tbp2" class="st2" d="M322.7,250.75h54.28M383.02,250.75h54.28"/>
          <path id="tbp233" data-name="tbp2" class="st2" d="M322.7,509.25h54.28M383.02,509.25h54.28"/>
          <path id="tbp133" data-name="tbp1" class="st3" d="M322.7,524.33h78.41M325.72,551.47v-15.08h24.13v12.06h24.13v-12.06h-15.08M334.76,548.45h6.03M401.11,548.45h-15.08v-12.06h24.13M410.16,521.31v27.14h24.13v-27.14M422.22,521.31v27.14"/>
        </g>
        <g id="tb117" data-name="tb1">
          <path id="tbp134" data-name="tbp1" class="st3" d="M443.33,211.55h78.41M446.35,238.69v-15.08h24.13v12.06h24.13v-12.06h-15.08M455.39,235.67h6.03M521.74,235.67h-15.08v-12.06h24.13M530.79,208.53v27.14h24.13v-27.14M542.85,208.53v27.14"/>
          <path id="tbp234" data-name="tbp2" class="st2" d="M443.33,250.75h54.28M503.65,250.75h54.28"/>
          <path id="tbp235" data-name="tbp2" class="st2" d="M443.33,509.25h54.28M503.65,509.25h54.28"/>
          <path id="tbp135" data-name="tbp1" class="st3" d="M443.33,524.33h78.41M446.35,551.47v-15.08h24.13v12.06h24.13v-12.06h-15.08M455.39,548.45h6.03M521.74,548.45h-15.08v-12.06h24.13M530.79,521.31v27.14h24.13v-27.14M542.85,521.31v27.14"/>
        </g>
      </g>
      <g id="tb43" data-name="tb4">
        <g id="tb118" data-name="tb1">
          <path id="tbp136" data-name="tbp1" class="st3" d="M563.96,211.55h78.41M566.98,238.69v-15.08h24.13v12.06h24.13v-12.06h-15.08M576.02,235.67h6.03M642.37,235.67h-15.08v-12.06h24.13M651.42,208.53v27.14h24.13v-27.14M663.48,208.53v27.14"/>
          <path id="tbp236" data-name="tbp2" class="st2" d="M563.96,250.75h54.28M624.28,250.75h54.28"/>
          <path id="tbp237" data-name="tbp2" class="st2" d="M563.96,509.25h54.28M624.28,509.25h54.28"/>
          <path id="tbp137" data-name="tbp1" class="st3" d="M563.96,524.33h78.41M566.98,551.47v-15.08h24.13v12.06h24.13v-12.06h-15.08M576.02,548.45h6.03M642.37,548.45h-15.08v-12.06h24.13M651.42,521.31v27.14h24.13v-27.14M663.48,521.31v27.14"/>
        </g>
        <g id="tb35" data-name="tb3">
          <g id="tb119" data-name="tb1">
            <path id="tbp138" data-name="tbp1" class="st3" d="M684.59,211.55h78.41M687.61,238.69v-15.08h24.13v12.06h24.13v-12.06h-15.08M696.65,235.67h6.03M763,235.67h-15.08v-12.06h24.13M772.05,208.53v27.14h24.13v-27.14M784.11,208.53v27.14"/>
            <path id="tbp238" data-name="tbp2" class="st2" d="M684.59,250.75h54.28M744.91,250.75h54.28"/>
            <path id="tbp239" data-name="tbp2" class="st2" d="M684.59,509.25h54.28M744.91,509.25h54.28"/>
            <path id="tbp139" data-name="tbp1" class="st3" d="M684.59,524.33h78.41M687.61,551.47v-15.08h24.13v12.06h24.13v-12.06h-15.08M696.65,548.45h6.03M763,548.45h-15.08v-12.06h24.13M772.05,521.31v27.14h24.13v-27.14M784.11,521.31v27.14"/>
          </g>
          <g id="tb120" data-name="tb1">
            <path id="tbp140" data-name="tbp1" class="st3" d="M805.22,211.55h78.41M808.24,238.69v-15.08h24.13v12.06h24.13v-12.06h-15.08M817.28,235.67h6.03M883.63,235.67h-15.08v-12.06h24.13M892.68,208.53v27.14h24.13v-27.14M904.74,208.53v27.14"/>
            <path id="tbp240" data-name="tbp2" class="st2" d="M805.22,250.75h54.28M865.54,250.75h54.28"/>
            <path id="tbp241" data-name="tbp2" class="st2" d="M805.22,509.25h54.28M865.54,509.25h54.28"/>
            <path id="tbp141" data-name="tbp1" class="st3" d="M805.22,524.33h78.41M808.24,551.47v-15.08h24.13v12.06h24.13v-12.06h-15.08M817.28,548.45h6.03M883.63,548.45h-15.08v-12.06h24.13M892.68,521.31v27.14h24.13v-27.14M904.74,521.31v27.14"/>
          </g>
          <g id="tb121" data-name="tb1">
            <path id="tbp142" data-name="tbp1" class="st3" d="M925.85,211.55h78.41M928.87,238.69v-15.08h24.13v12.06h24.13v-12.06h-15.08M937.91,235.67h6.03M1004.26,235.67h-15.08v-12.06h24.13M1013.31,208.53v27.14h24.13v-27.14M1025.37,208.53v27.14"/>
            <path id="tbp242" data-name="tbp2" class="st2" d="M925.85,250.75h54.28M986.17,250.75h54.28"/>
            <path id="tbp243" data-name="tbp2" class="st2" d="M925.85,509.25h54.28M986.17,509.25h54.28"/>
            <path id="tbp143" data-name="tbp1" class="st3" d="M925.85,524.33h78.41M928.87,551.47v-15.08h24.13v12.06h24.13v-12.06h-15.08M937.91,548.45h6.03M1004.26,548.45h-15.08v-12.06h24.13M1013.31,521.31v27.14h24.13v-27.14M1025.37,521.31v27.14"/>
          </g>
        </g>
      </g>
    </g>
    <g>
      <g id="emblem_half2" data-name="emblem_half">
        <path class="st4" d="M478.45,378.49c.01,27.89-15.43,53.5-40.1,66.51,33.55-41.99,26.71-103.24-15.28-136.79-1.43-1.14-2.89-2.25-4.39-3.31,34.83,7.3,59.77,38.01,59.77,73.6Z"/>
        <path class="st4" d="M443.58,375.46c-.03,49.62-40.28,89.82-89.9,89.79-9.4,0-18.74-1.49-27.68-4.39,1.58.08,3.18.11,4.78.11,54.39-.01,98.47-44.11,98.45-98.49,0-19.63-5.87-38.8-16.85-55.07,19.83,17.04,31.23,41.9,31.2,68.04Z"/>
        <path class="st4" d="M405.35,288.5c0,7.58-6.14,13.72-13.72,13.72-4.73,0-9.12-2.44-11.63-6.44l-1.66-1.66,1.66-8.07c2.97,6.42,10.58,9.23,17,6.26,3.76-1.74,6.45-5.18,7.22-9.25.75,1.72,1.14,3.58,1.14,5.45Z"/>
        <path class="st4" d="M391.63,310.74c-4.58-2.09-8.58-5.28-11.62-9.29l-4.91,76.95,4.91,98.55,7.64-10.52,1.01-24.26,1.04-25.25.14-3.24.05-1.2.22-5.25.66-15.9.53-12.84.15-3.71.2-4.72v-59.32h0ZM380,326.72v.02s0,.02,0,.02v-.03ZM380,410.52v-.02h.04s-.04.02-.04.02Z"/>
      </g>
      <g id="emblem_half3" data-name="emblem_half">
        <path class="st4" d="M281.55,378.49c-.01,27.89,15.43,53.5,40.1,66.51-33.55-41.99-26.71-103.24,15.28-136.79,1.43-1.14,2.89-2.25,4.39-3.31-34.83,7.3-59.77,38.01-59.77,73.6Z"/>
        <path class="st4" d="M316.42,375.46c.03,49.62,40.28,89.82,89.9,89.79,9.4,0,18.74-1.49,27.68-4.39-1.58.08-3.18.11-4.78.11-54.39-.01-98.47-44.11-98.45-98.49,0-19.63,5.87-38.8,16.85-55.07-19.83,17.04-31.23,41.9-31.2,68.04Z"/>
        <path class="st4" d="M354.65,288.5c0,7.58,6.14,13.72,13.72,13.72,4.73,0,9.12-2.44,11.63-6.44l1.66-1.66-1.66-8.07c-2.97,6.42-10.58,9.23-17,6.26-3.76-1.74-6.45-5.18-7.22-9.25-.75,1.72-1.14,3.58-1.14,5.45Z"/>
        <path class="st4" d="M368.37,310.74c4.58-2.09,8.58-5.28,11.62-9.29l4.91,76.95-4.91,98.55-7.64-10.52-1.01-24.26-1.04-25.25-.14-3.24-.05-1.2-.22-5.25-.66-15.9-.53-12.84-.15-3.71-.2-4.72v-59.32h0ZM380,326.72v.02s0,.02,0,.02v-.03ZM380,410.52v-.02h-.04s.04.02.04.02Z"/>
      </g>
    </g>
  </g>
</svg>