<?xml version="1.0" encoding="UTF-8"?>
<svg id="Laag_1" xmlns="http://www.w3.org/2000/svg" version="1.1" xmlns:xlink="http://www.w3.org/1999/xlink" viewBox="0 0 760 760">
  <!-- Generator: Adobe Illustrator 29.5.1, SVG Export Plug-In . SVG Version: 2.1.0 Build 141)  -->
  <defs>
    <style>
      .st0 {
        fill: #fff;
      }

      .st1 {
        fill: none;
      }

      .st2 {
        fill: #017b3d;
      }

      .st3 {
        fill: #cd1125;
      }

      .st4 {
        clip-path: url(#clippath);
      }
    </style>
    <clipPath id="clippath">
      <circle class="st1" cx="380" cy="380" r="379.98"/>
    </clipPath>
  </defs>
  <g class="st4">
    <path class="st0" d="M-198.15-5.43H958.15v770.87H-198.15V-5.43Z"/>
    <path class="st3" d="M-198.15-5.43H958.15V251.52H-198.15V-5.43Z"/>
    <path d="M-198.15,508.48H958.15v256.96H-198.15v-256.96Z"/>
    <path class="st2" d="M372.6,434.02h-188.34c-1.48,13.27-15.17,23-30.58,21.73-1.67-.14-3.33-.41-4.95-.8,26.38-12.95,24.72-26.08,8.08-55.28,9.25-3.31,10.71-4.19,20.05-10.51-6.62,20.05,17.13,17.62,34.65,17.62,0-7.01.68-14.99-4.57-16.06,6.81-2.43,7.4-3.21,18.2-12.36v26.96h129.94v-18.49c0-2.15-1.74-3.89-3.89-3.89s-3.89,1.74-3.89,3.89v10.71c0,1.61-1.31,2.92-2.92,2.92h-99.28v-17.52l74.56-72.03c-.49,3.7,7.2,13.63,10.41,15.28-2.43.39-5.16-.1-6.91,1.65l-61.03,58.98h67.65c0-15.67,14.6-15.67,21.41-21.22,6.81,5.55,21.41,5.55,21.41,21.22v47.21ZM386.72,434.02v-123.12c6.91,3.8,12.26,8.18,20.83,10.32-.39,4.87-4.77,6.42-4.77,9.83v75.72c9.54,2.14,11.68-3.41,16.25-6.23,1.17,12.07,8.86,23.94,8.57,33.48h-40.88ZM515.39,351.77l15.09-12.65v66.19h10.71v-75.24c5.26-4.38,12.07-9.15,15.09-14.7v118.65h-94.9c-1.36-24.53-1.36-49.74,27.25-44.29v-10.03c0-2.34-3.5-.49-3.5-2.63l19.56-16.35v44.58h10.71v-53.53ZM510.42,317.9c-1.85.1-4.67-10.03-3.99-11.97.68-2.24,3.21-2.24,4.28-1.17,1.75,1.65,1.56,13.04-.29,13.14ZM492.81,331.63c-5.35-3.11-4.48-4.38.19-3.02,8.08,2.43,12.17.39,18.01-5.55l4.38,2.24c5.74,2.92,9.25,1.65,11.29-5.35.58-2.14,2.34-1.56,2.82.88,1.85,9.73-5.55,12.75-13.04,10.03-4.09-1.36-4.77-1.36-6.81.19-4.48,3.5-10.9,4.09-16.84.58ZM570.38,434.02v-123.12c6.91,3.8,12.26,8.18,20.83,10.32-.39,4.87-4.77,6.42-4.77,9.83v75.72c9.54,2.14,11.68-3.41,16.25-6.23,1.17,12.07,8.86,23.94,8.57,33.48h-40.88ZM201.4,447.65c0-3.17,2.57-5.74,5.74-5.74s5.74,2.57,5.74,5.74-2.57,5.74-5.74,5.74-5.74-2.57-5.74-5.74ZM479.86,402.87c0,1.83,1.96,3.31,4.38,3.31s4.38-1.48,4.38-3.31-1.96-3.31-4.38-3.31-4.38,1.48-4.38,3.31Z"/>
  </g>
</svg>