<?xml version="1.0" encoding="UTF-8"?>
<svg id="Laag_1" xmlns="http://www.w3.org/2000/svg" version="1.1" xmlns:xlink="http://www.w3.org/1999/xlink" viewBox="0 0 760 760">
  <!-- Generator: Adobe Illustrator 29.5.1, SVG Export Plug-In . SVG Version: 2.1.0 Build 141)  -->
  <defs>
    <style>
      .st0 {
        fill: #003893;
      }

      .st1 {
        fill: #fff;
      }

      .st2 {
        fill: #cf2027;
      }

      .st3 {
        fill: none;
      }

      .st4 {
        fill: #f7d116;
      }

      .st5 {
        clip-path: url(#clippath);
      }
    </style>
    <clipPath id="clippath">
      <circle class="st3" cx="380" cy="380" r="379.98"/>
    </clipPath>
  </defs>
  <g class="st5">
    <path class="st0" d="M-213.87-128.87h1547.24v910.14H-213.87V-128.87Z"/>
    <path class="st1" d="M-213.87,326.2h1547.24v227.54H-213.87v-227.54Z"/>
    <path class="st2" d="M-213.87,402.04h1547.24v75.85H-213.87v-75.85Z"/>
    <path class="st4" d="M366.35,172.56l9,27.48,28.92.07-23.36,17.05,8.88,27.53-23.44-16.95-23.44,16.95,8.88-27.53-23.36-17.05,28.92-.07,9-27.48ZM232.61,216.01l9,27.49,28.92.07-23.36,17.05,8.88,27.53-23.44-16.95-23.44,16.95,8.88-27.53-23.36-17.05,28.92-.07,9-27.49ZM500.09,216.01l9,27.49,28.92.07-23.36,17.05,8.88,27.53-23.44-16.95-23.44,16.95,8.88-27.53-23.36-17.05,28.92-.07,9-27.49ZM149.95,328.05l9,27.49,28.92.07-23.36,17.05,8.87,27.53-23.44-16.95-23.44,16.95,8.88-27.53-23.36-17.05,28.92-.07,9-27.49ZM582.75,328.05l9,27.49,28.92.07-23.36,17.05,8.88,27.53-23.44-16.95-23.44,16.95,8.88-27.53-23.36-17.05,28.92-.07,9-27.49ZM149.95,479.74l9,27.48,28.92.07-23.36,17.05,8.87,27.53-23.44-16.95-23.44,16.95,8.88-27.53-23.36-17.05,28.92-.07,9-27.49ZM582.75,479.74l9,27.48,28.92.07-23.36,17.05,8.88,27.53-23.44-16.95-23.44,16.95,8.88-27.53-23.36-17.05,28.92-.07,9-27.49ZM232.61,584.17l9,27.49,28.92.07-23.36,17.05,8.88,27.53-23.44-16.95-23.44,16.95,8.88-27.53-23.36-17.05,28.92-.07,9-27.49ZM500.09,584.17l9,27.49,28.92.07-23.36,17.05,8.88,27.53-23.44-16.95-23.44,16.95,8.88-27.53-23.36-17.05,28.92-.07,9-27.49ZM366.35,627.63l9,27.48,28.92.07-23.36,17.05,8.88,27.53-23.44-16.95-23.44,16.95,8.88-27.53-23.36-17.05,28.92-.07,9-27.48Z"/>
  </g>
</svg>