<?xml version="1.0" encoding="UTF-8"?>
<svg id="Laag_1" xmlns="http://www.w3.org/2000/svg" version="1.1" xmlns:xlink="http://www.w3.org/1999/xlink" viewBox="0 0 760 760">
  <!-- Generator: Adobe Illustrator 29.5.1, SVG Export Plug-In . SVG Version: 2.1.0 Build 141)  -->
  <defs>
    <style>
      .st0 {
        fill: #fff;
      }

      .st1 {
        fill: #308738;
      }

      .st2 {
        fill: none;
      }

      .st3 {
        fill: #ee162e;
      }

      .st4 {
        fill: #3081f7;
      }

      .st5 {
        clip-path: url(#clippath);
      }
    </style>
    <clipPath id="clippath">
      <circle class="st2" cx="380" cy="380" r="379.98"/>
    </clipPath>
  </defs>
  <g class="st5">
    <path class="st1" d="M-673.85,65.97H1690.68v813.67H-673.85V65.97Z"/>
    <path class="st4" d="M-686.72-10.56H1596.44v457.28H-686.72V-10.56Z"/>
    <path class="st3" d="M-689.98,318.16H937.36v292.92H-689.98v-292.92Z"/>
    <path class="st0" d="M-654.18,334.43H1596.44v260.37H-654.18v-260.37Z"/>
    <circle class="st0" cx="196.92" cy="196.16" r="97.64"/>
    <circle class="st4" cx="229.47" cy="196.16" r="97.64"/>
    <g>
      <g id="e">
        <g id="d">
          <g id="c">
            <g id="b">
              <path id="a" class="st0" d="M411.73,254.75l-6.03,18.57,9.29,3.02"/>
              <path id="a1" data-name="a" class="st0" d="M411.73,254.75l6.03,18.57-9.29,3.02"/>
            </g>
            <g id="b1" data-name="b">
              <path id="a2" data-name="a" class="st0" d="M430.31,268.24h-19.53v9.76"/>
              <path id="a3" data-name="a" class="st0" d="M430.31,268.24l-15.8,11.48-5.74-7.9"/>
            </g>
          </g>
          <g id="b2" data-name="b">
            <path id="a4" data-name="a" class="st0" d="M393.16,268.24l15.8,11.48,5.74-7.9"/>
            <path id="a5" data-name="a" class="st0" d="M393.16,268.24h19.53v9.76"/>
          </g>
          <g id="c1" data-name="c">
            <g id="b3" data-name="b">
              <path id="a6" data-name="a" class="st0" d="M423.21,290.07l-6.03-18.57-9.29,3.02"/>
              <path id="a7" data-name="a" class="st0" d="M423.21,290.07l-15.8-11.48,5.74-7.9"/>
            </g>
            <g id="b4" data-name="b">
              <path id="a8" data-name="a" class="st0" d="M400.25,290.07l15.8-11.48-5.74-7.9"/>
              <path id="a9" data-name="a" class="st0" d="M400.25,290.07l6.03-18.57,9.29,3.02"/>
            </g>
          </g>
        </g>
        <g id="d1" data-name="d">
          <g id="c2" data-name="c">
            <g id="b5" data-name="b">
              <path id="a10" data-name="a" class="st0" d="M411.73,176.63l-6.03,18.57,9.29,3.02"/>
              <path id="a11" data-name="a" class="st0" d="M411.73,176.63l6.03,18.57-9.29,3.02"/>
            </g>
            <g id="b6" data-name="b">
              <path id="a12" data-name="a" class="st0" d="M430.31,190.13h-19.53v9.76"/>
              <path id="a13" data-name="a" class="st0" d="M430.31,190.13l-15.8,11.48-5.74-7.9"/>
            </g>
          </g>
          <g id="b7" data-name="b">
            <path id="a14" data-name="a" class="st0" d="M393.16,190.13l15.8,11.48,5.74-7.9"/>
            <path id="a15" data-name="a" class="st0" d="M393.16,190.13h19.53v9.76"/>
          </g>
          <g id="c3" data-name="c">
            <g id="b8" data-name="b">
              <path id="a16" data-name="a" class="st0" d="M423.21,211.96l-6.03-18.57-9.29,3.02"/>
              <path id="a17" data-name="a" class="st0" d="M423.21,211.96l-15.8-11.48,5.74-7.9"/>
            </g>
            <g id="b9" data-name="b">
              <path id="a18" data-name="a" class="st0" d="M400.25,211.96l15.8-11.48-5.74-7.9"/>
              <path id="a19" data-name="a" class="st0" d="M400.25,211.96l6.03-18.57,9.29,3.02"/>
            </g>
          </g>
        </g>
        <g id="d2" data-name="d">
          <g id="c4" data-name="c">
            <g id="b10" data-name="b">
              <path id="a20" data-name="a" class="st0" d="M411.73,98.52l-6.03,18.57,9.29,3.02"/>
              <path id="a21" data-name="a" class="st0" d="M411.73,98.52l6.03,18.57-9.29,3.02"/>
            </g>
            <g id="b11" data-name="b">
              <path id="a22" data-name="a" class="st0" d="M430.31,112.01h-19.53v9.76"/>
              <path id="a23" data-name="a" class="st0" d="M430.31,112.01l-15.8,11.48-5.74-7.9"/>
            </g>
          </g>
          <g id="b12" data-name="b">
            <path id="a24" data-name="a" class="st0" d="M393.16,112.01l15.8,11.48,5.74-7.9"/>
            <path id="a25" data-name="a" class="st0" d="M393.16,112.01h19.53v9.76"/>
          </g>
          <g id="c5" data-name="c">
            <g id="b13" data-name="b">
              <path id="a26" data-name="a" class="st0" d="M423.21,133.85l-6.03-18.57-9.29,3.02"/>
              <path id="a27" data-name="a" class="st0" d="M423.21,133.85l-15.8-11.48,5.74-7.9"/>
            </g>
            <g id="b14" data-name="b">
              <path id="a28" data-name="a" class="st0" d="M400.25,133.85l15.8-11.48-5.74-7.9"/>
              <path id="a29" data-name="a" class="st0" d="M400.25,133.85l6.03-18.57,9.29,3.02"/>
            </g>
          </g>
        </g>
      </g>
      <g id="e1" data-name="e">
        <g id="d3" data-name="d">
          <g id="c6" data-name="c">
            <g id="b15" data-name="b">
              <path id="a30" data-name="a" class="st0" d="M489.85,254.75l-6.03,18.57,9.29,3.02"/>
              <path id="a31" data-name="a" class="st0" d="M489.85,254.75l6.03,18.57-9.29,3.02"/>
            </g>
            <g id="b16" data-name="b">
              <path id="a32" data-name="a" class="st0" d="M508.42,268.24h-19.53v9.76"/>
              <path id="a33" data-name="a" class="st0" d="M508.42,268.24l-15.8,11.48-5.74-7.9"/>
            </g>
          </g>
          <g id="b17" data-name="b">
            <path id="a34" data-name="a" class="st0" d="M471.27,268.24l15.8,11.48,5.74-7.9"/>
            <path id="a35" data-name="a" class="st0" d="M471.27,268.24h19.53v9.76"/>
          </g>
          <g id="c7" data-name="c">
            <g id="b18" data-name="b">
              <path id="a36" data-name="a" class="st0" d="M501.32,290.07l-6.03-18.57-9.29,3.02"/>
              <path id="a37" data-name="a" class="st0" d="M501.32,290.07l-15.8-11.48,5.74-7.9"/>
            </g>
            <g id="b19" data-name="b">
              <path id="a38" data-name="a" class="st0" d="M478.37,290.07l15.8-11.48-5.74-7.9"/>
              <path id="a39" data-name="a" class="st0" d="M478.37,290.07l6.03-18.57,9.29,3.02"/>
            </g>
          </g>
        </g>
        <g id="d4" data-name="d">
          <g id="c8" data-name="c">
            <g id="b20" data-name="b">
              <path id="a40" data-name="a" class="st0" d="M489.85,176.63l-6.03,18.57,9.29,3.02"/>
              <path id="a41" data-name="a" class="st0" d="M489.85,176.63l6.03,18.57-9.29,3.02"/>
            </g>
            <g id="b21" data-name="b">
              <path id="a42" data-name="a" class="st0" d="M508.42,190.13h-19.53v9.76"/>
              <path id="a43" data-name="a" class="st0" d="M508.42,190.13l-15.8,11.48-5.74-7.9"/>
            </g>
          </g>
          <g id="b22" data-name="b">
            <path id="a44" data-name="a" class="st0" d="M471.27,190.13l15.8,11.48,5.74-7.9"/>
            <path id="a45" data-name="a" class="st0" d="M471.27,190.13h19.53v9.76"/>
          </g>
          <g id="c9" data-name="c">
            <g id="b23" data-name="b">
              <path id="a46" data-name="a" class="st0" d="M501.32,211.96l-6.03-18.57-9.29,3.02"/>
              <path id="a47" data-name="a" class="st0" d="M501.32,211.96l-15.8-11.48,5.74-7.9"/>
            </g>
            <g id="b24" data-name="b">
              <path id="a48" data-name="a" class="st0" d="M478.37,211.96l15.8-11.48-5.74-7.9"/>
              <path id="a49" data-name="a" class="st0" d="M478.37,211.96l6.03-18.57,9.29,3.02"/>
            </g>
          </g>
        </g>
        <g id="d5" data-name="d">
          <g id="c10" data-name="c">
            <g id="b25" data-name="b">
              <path id="a50" data-name="a" class="st0" d="M489.85,98.52l-6.03,18.57,9.29,3.02"/>
              <path id="a51" data-name="a" class="st0" d="M489.85,98.52l6.03,18.57-9.29,3.02"/>
            </g>
            <g id="b26" data-name="b">
              <path id="a52" data-name="a" class="st0" d="M508.42,112.01h-19.53v9.76"/>
              <path id="a53" data-name="a" class="st0" d="M508.42,112.01l-15.8,11.48-5.74-7.9"/>
            </g>
          </g>
          <g id="b27" data-name="b">
            <path id="a54" data-name="a" class="st0" d="M471.27,112.01l15.8,11.48,5.74-7.9"/>
            <path id="a55" data-name="a" class="st0" d="M471.27,112.01h19.53v9.76"/>
          </g>
          <g id="c11" data-name="c">
            <g id="b28" data-name="b">
              <path id="a56" data-name="a" class="st0" d="M501.32,133.85l-6.03-18.57-9.29,3.02"/>
              <path id="a57" data-name="a" class="st0" d="M501.32,133.85l-15.8-11.48,5.74-7.9"/>
            </g>
            <g id="b29" data-name="b">
              <path id="a58" data-name="a" class="st0" d="M478.37,133.85l15.8-11.48-5.74-7.9"/>
              <path id="a59" data-name="a" class="st0" d="M478.37,133.85l6.03-18.57,9.29,3.02"/>
            </g>
          </g>
        </g>
      </g>
      <g id="e2" data-name="e">
        <g id="d6" data-name="d">
          <g id="c12" data-name="c">
            <g id="b30" data-name="b">
              <path id="a60" data-name="a" class="st0" d="M567.96,254.75l-6.03,18.57,9.29,3.02"/>
              <path id="a61" data-name="a" class="st0" d="M567.96,254.75l6.03,18.57-9.29,3.02"/>
            </g>
            <g id="b31" data-name="b">
              <path id="a62" data-name="a" class="st0" d="M586.53,268.24h-19.53v9.76"/>
              <path id="a63" data-name="a" class="st0" d="M586.53,268.24l-15.8,11.48-5.74-7.9"/>
            </g>
          </g>
          <g id="b32" data-name="b">
            <path id="a64" data-name="a" class="st0" d="M549.39,268.24l15.8,11.48,5.74-7.9"/>
            <path id="a65" data-name="a" class="st0" d="M549.39,268.24h19.53v9.76"/>
          </g>
          <g id="c13" data-name="c">
            <g id="b33" data-name="b">
              <path id="a66" data-name="a" class="st0" d="M579.44,290.07l-6.03-18.57-9.29,3.02"/>
              <path id="a67" data-name="a" class="st0" d="M579.44,290.07l-15.8-11.48,5.74-7.9"/>
            </g>
            <g id="b34" data-name="b">
              <path id="a68" data-name="a" class="st0" d="M556.48,290.07l15.8-11.48-5.74-7.9"/>
              <path id="a69" data-name="a" class="st0" d="M556.48,290.07l6.03-18.57,9.29,3.02"/>
            </g>
          </g>
        </g>
        <g id="d7" data-name="d">
          <g id="c14" data-name="c">
            <g id="b35" data-name="b">
              <path id="a70" data-name="a" class="st0" d="M567.96,176.63l-6.03,18.57,9.29,3.02"/>
              <path id="a71" data-name="a" class="st0" d="M567.96,176.63l6.03,18.57-9.29,3.02"/>
            </g>
            <g id="b36" data-name="b">
              <path id="a72" data-name="a" class="st0" d="M586.53,190.13h-19.53v9.76"/>
              <path id="a73" data-name="a" class="st0" d="M586.53,190.13l-15.8,11.48-5.74-7.9"/>
            </g>
          </g>
          <g id="b37" data-name="b">
            <path id="a74" data-name="a" class="st0" d="M549.39,190.13l15.8,11.48,5.74-7.9"/>
            <path id="a75" data-name="a" class="st0" d="M549.39,190.13h19.53v9.76"/>
          </g>
          <g id="c15" data-name="c">
            <g id="b38" data-name="b">
              <path id="a76" data-name="a" class="st0" d="M579.44,211.96l-6.03-18.57-9.29,3.02"/>
              <path id="a77" data-name="a" class="st0" d="M579.44,211.96l-15.8-11.48,5.74-7.9"/>
            </g>
            <g id="b39" data-name="b">
              <path id="a78" data-name="a" class="st0" d="M556.48,211.96l15.8-11.48-5.74-7.9"/>
              <path id="a79" data-name="a" class="st0" d="M556.48,211.96l6.03-18.57,9.29,3.02"/>
            </g>
          </g>
        </g>
        <g id="d8" data-name="d">
          <g id="c16" data-name="c">
            <g id="b40" data-name="b">
              <path id="a80" data-name="a" class="st0" d="M567.96,98.52l-6.03,18.57,9.29,3.02"/>
              <path id="a81" data-name="a" class="st0" d="M567.96,98.52l6.03,18.57-9.29,3.02"/>
            </g>
            <g id="b41" data-name="b">
              <path id="a82" data-name="a" class="st0" d="M586.53,112.01h-19.53v9.76"/>
              <path id="a83" data-name="a" class="st0" d="M586.53,112.01l-15.8,11.48-5.74-7.9"/>
            </g>
          </g>
          <g id="b42" data-name="b">
            <path id="a84" data-name="a" class="st0" d="M549.39,112.01l15.8,11.48,5.74-7.9"/>
            <path id="a85" data-name="a" class="st0" d="M549.39,112.01h19.53v9.76"/>
          </g>
          <g id="c17" data-name="c">
            <g id="b43" data-name="b">
              <path id="a86" data-name="a" class="st0" d="M579.44,133.85l-6.03-18.57-9.29,3.02"/>
              <path id="a87" data-name="a" class="st0" d="M579.44,133.85l-15.8-11.48,5.74-7.9"/>
            </g>
            <g id="b44" data-name="b">
              <path id="a88" data-name="a" class="st0" d="M556.48,133.85l15.8-11.48-5.74-7.9"/>
              <path id="a89" data-name="a" class="st0" d="M556.48,133.85l6.03-18.57,9.29,3.02"/>
            </g>
          </g>
        </g>
      </g>
      <g id="d9" data-name="d">
        <g id="c18" data-name="c">
          <g id="b45" data-name="b">
            <path id="a90" data-name="a" class="st0" d="M255.51,254.75l-6.03,18.57,9.29,3.02"/>
            <path id="a91" data-name="a" class="st0" d="M255.51,254.75l6.03,18.57-9.29,3.02"/>
          </g>
          <g id="b46" data-name="b">
            <path id="a92" data-name="a" class="st0" d="M274.08,268.24h-19.53v9.76"/>
            <path id="a93" data-name="a" class="st0" d="M274.08,268.24l-15.8,11.48-5.74-7.9"/>
          </g>
        </g>
        <g id="b47" data-name="b">
          <path id="a94" data-name="a" class="st0" d="M236.94,268.24l15.8,11.48,5.74-7.9"/>
          <path id="a95" data-name="a" class="st0" d="M236.94,268.24h19.53v9.76"/>
        </g>
        <g id="c19" data-name="c">
          <g id="b48" data-name="b">
            <path id="a96" data-name="a" class="st0" d="M266.99,290.07l-6.03-18.57-9.29,3.02"/>
            <path id="a97" data-name="a" class="st0" d="M266.99,290.07l-15.8-11.48,5.74-7.9"/>
          </g>
          <g id="b49" data-name="b">
            <path id="a98" data-name="a" class="st0" d="M244.03,290.07l15.8-11.48-5.74-7.9"/>
            <path id="a99" data-name="a" class="st0" d="M244.03,290.07l6.03-18.57,9.29,3.02"/>
          </g>
        </g>
      </g>
      <g id="d10" data-name="d">
        <g id="c20" data-name="c">
          <g id="b50" data-name="b">
            <path id="a100" data-name="a" class="st0" d="M333.62,254.75l-6.03,18.57,9.29,3.02"/>
            <path id="a101" data-name="a" class="st0" d="M333.62,254.75l6.03,18.57-9.29,3.02"/>
          </g>
          <g id="b51" data-name="b">
            <path id="a102" data-name="a" class="st0" d="M352.19,268.24h-19.53v9.76"/>
            <path id="a103" data-name="a" class="st0" d="M352.19,268.24l-15.8,11.48-5.74-7.9"/>
          </g>
        </g>
        <g id="b52" data-name="b">
          <path id="a104" data-name="a" class="st0" d="M315.05,268.24l15.8,11.48,5.74-7.9"/>
          <path id="a105" data-name="a" class="st0" d="M315.05,268.24h19.53v9.76"/>
        </g>
        <g id="c21" data-name="c">
          <g id="b53" data-name="b">
            <path id="a106" data-name="a" class="st0" d="M345.1,290.07l-6.03-18.57-9.29,3.02"/>
            <path id="a107" data-name="a" class="st0" d="M345.1,290.07l-15.8-11.48,5.74-7.9"/>
          </g>
          <g id="b54" data-name="b">
            <path id="a108" data-name="a" class="st0" d="M322.14,290.07l15.8-11.48-5.74-7.9"/>
            <path id="a109" data-name="a" class="st0" d="M322.14,290.07l6.03-18.57,9.29,3.02"/>
          </g>
        </g>
      </g>
      <g id="d11" data-name="d">
        <g id="c22" data-name="c">
          <g id="b55" data-name="b">
            <path id="a110" data-name="a" class="st0" d="M333.62,176.63l-6.03,18.57,9.29,3.02"/>
            <path id="a111" data-name="a" class="st0" d="M333.62,176.63l6.03,18.57-9.29,3.02"/>
          </g>
          <g id="b56" data-name="b">
            <path id="a112" data-name="a" class="st0" d="M352.19,190.13h-19.53v9.76"/>
            <path id="a113" data-name="a" class="st0" d="M352.19,190.13l-15.8,11.48-5.74-7.9"/>
          </g>
        </g>
        <g id="b57" data-name="b">
          <path id="a114" data-name="a" class="st0" d="M315.05,190.13l15.8,11.48,5.74-7.9"/>
          <path id="a115" data-name="a" class="st0" d="M315.05,190.13h19.53v9.76"/>
        </g>
        <g id="c23" data-name="c">
          <g id="b58" data-name="b">
            <path id="a116" data-name="a" class="st0" d="M345.1,211.96l-6.03-18.57-9.29,3.02"/>
            <path id="a117" data-name="a" class="st0" d="M345.1,211.96l-15.8-11.48,5.74-7.9"/>
          </g>
          <g id="b59" data-name="b">
            <path id="a118" data-name="a" class="st0" d="M322.14,211.96l15.8-11.48-5.74-7.9"/>
            <path id="a119" data-name="a" class="st0" d="M322.14,211.96l6.03-18.57,9.29,3.02"/>
          </g>
        </g>
      </g>
    </g>
  </g>
</svg>