<?xml version="1.0" encoding="UTF-8"?>
<svg id="Laag_1" xmlns="http://www.w3.org/2000/svg" version="1.1" xmlns:xlink="http://www.w3.org/1999/xlink" viewBox="0 0 760 760">
  <!-- Generator: Adobe Illustrator 29.5.1, SVG Export Plug-In . SVG Version: 2.1.0 Build 141)  -->
  <defs>
    <style>
      .st0 {
        fill: #0038a8;
      }

      .st1 {
        stroke-width: 1.48px;
      }

      .st1, .st2, .st3, .st4, .st5, .st6, .st7, .st8, .st9, .st10, .st11, .st12, .st13, .st14, .st15 {
        stroke: #000;
      }

      .st1, .st16 {
        fill: none;
      }

      .st1, .st10 {
        stroke-miterlimit: 10;
      }

      .st17, .st10 {
        fill: #fff;
      }

      .st2 {
        stroke-width: .98px;
      }

      .st2, .st3, .st4, .st5, .st6, .st7, .st8, .st9, .st11, .st12, .st13, .st14 {
        fill: #009b3a;
      }

      .st3 {
        stroke-width: .84px;
      }

      .st4 {
        stroke-width: .83px;
      }

      .st5 {
        stroke-width: .84px;
      }

      .st6 {
        stroke-width: .99px;
      }

      .st7 {
        stroke-width: .75px;
      }

      .st8 {
        stroke-width: .77px;
      }

      .st9 {
        stroke-width: .79px;
      }

      .st10 {
        stroke-width: 3.69px;
      }

      .st11 {
        stroke-width: .64px;
      }

      .st12 {
        stroke-width: .86px;
      }

      .st13 {
        stroke-width: .84px;
      }

      .st18 {
        fill: #d52b1e;
      }

      .st19 {
        clip-path: url(#clippath);
      }

      .st14, .st15 {
        stroke-width: .6px;
      }

      .st15 {
        fill: #fedf00;
      }
    </style>
    <clipPath id="clippath">
      <circle class="st16" cx="380" cy="380" r="379.98"/>
    </clipPath>
  </defs>
  <g class="st19">
    <path class="st0" d="M-320.26-5.14h1400.53v770.29H-320.26V-5.14Z"/>
    <path class="st17" d="M-320.26-5.14h1400.53V508.38H-320.26V-5.14Z"/>
    <path class="st18" d="M-320.26-5.14h1400.53V251.62H-320.26V-5.14Z"/>
    <path class="st10" d="M477.64,379.97c0,53.94-43.7,97.66-97.64,97.66s-97.63-43.72-97.63-97.66,43.72-97.61,97.63-97.61,97.64,43.69,97.64,97.61Z"/>
    <path class="st6" d="M427.21,364.85c-2.37-.09-2.38,2.52-2.38,2.52,0,0,.08-.77.01.11-.05.87.39,2.98,2.14,3.15,1.85.16,2.46-2,2.48-3.04,0-.42-.14-2.68-2.25-2.73"/>
    <path d="M318.75,419.06l-.84-1.39c-.08-.15-.3-.41-.65-.79-.17-.19-.4-.3-.65-.32-.26-.04-.53.02-.76.15-.32.2-.54.46-.57.79-.06.33.09.78.46,1.4l.85,1.44,2.16-1.29ZM327.01,418.58l-10.62,6.32-3.24-5.45c-.6-1.02-.97-1.83-1.11-2.48-.17-.65-.09-1.26.18-1.87.27-.61.76-1.13,1.44-1.53.52-.32,1.12-.5,1.73-.53.6,0,1.14.15,1.66.43.32.19.7.48,1.11.9-.1-.45-.15-.81-.13-1.09.04-.16.11-.44.26-.85.14-.4.28-.67.37-.85l2.15-3.42,2.19,3.71-2.19,3.68c-.27.47-.44.82-.46,1.07-.01.35.06.65.23.94l.18.3,4.3-2.56,1.96,3.28ZM308.31,409.94l-3.24-9.69,2.5-.84,2.03,6.07,1.87-.63-1.91-5.64,2.4-.78,1.89,5.61,2.3-.74-2.08-6.25,2.65-.9,3.29,9.87-11.71,3.92ZM308.66,390.21l-.13-.91c-.09-.76-.27-1.24-.55-1.5-.28-.26-.67-.38-1.05-.33-.38.06-.69.22-.92.49-.25.3-.33.78-.22,1.49l.1,1.09,2.77-.34ZM303.85,394.64l-.74-6.3c-.15-1.35.05-2.43.61-3.19.58-.75,1.48-1.21,2.68-1.34,1.24-.15,2.26.11,3.04.77.77.66,1.26,1.77,1.44,3.29l.23,2.07,4.55-.53.45,3.81-12.26,1.42ZM303.42,370.55l.39-3.79,7.33.79c.69.08,1.37.27,2,.56.63.28,1.17.71,1.59,1.25.42.55.72,1.07.86,1.63.19.74.24,1.65.12,2.7-.07.65-.18,1.3-.34,1.93-.15.7-.39,1.27-.69,1.71-.32.47-.72.88-1.19,1.2-.45.32-.96.54-1.5.64-.81.17-1.51.2-2.11.13l-7.3-.77.39-3.8,7.49.81c.67.07,1.21-.06,1.63-.4.42-.33.65-.82.73-1.46.07-.68-.07-1.2-.4-1.6-.32-.42-.83-.65-1.51-.73l-7.49-.81ZM315.71,360.17l.66-1.83c.2-.62.26-1.1.12-1.44-.13-.33-.41-.58-.75-.67-.37-.13-.67-.1-.97.08-.31.19-.57.58-.78,1.2l-.65,1.84,2.37.82ZM311.13,358.56l.55-1.55c.19-.57.24-1,.1-1.29-.1-.28-.34-.5-.71-.61-.29-.12-.62-.11-.9.04-.27.16-.49.5-.67,1.04l-.58,1.59,2.22.77ZM305.3,360.61l2.35-6.76c.41-1.13.98-1.87,1.76-2.3.73-.39,1.6-.46,2.38-.18.67.27,1.19.68,1.54,1.28.21.4.34.92.34,1.53.49-.77,1.05-1.26,1.67-1.47.63-.23,1.33-.21,2.08.05.59.2,1.08.54,1.47.98.37.47.62.98.74,1.56.06.37.03.87-.1,1.49-.19.87-.31,1.42-.41,1.67l-2.17,6.22-11.64-4.07ZM311.59,344.79l2-3.26,7.95,4.82,3.1-5.08,2.59,1.58-5.04,8.34-10.59-6.4ZM319.74,332.65l2.45-2.92,9.42,7.96-2.46,2.92-9.42-7.96ZM336.85,326.01l3.21-1.37c.41.86.65,1.69.68,2.49.03.77-.12,1.54-.46,2.24-.37.71-.97,1.4-1.79,2.12-1.05.85-2.01,1.41-2.92,1.65-.9.23-1.9.18-3.03-.18-1.08-.36-2.11-1.13-3.1-2.3-1.29-1.58-1.89-3.13-1.76-4.65.13-1.55.96-2.94,2.48-4.22,1.21-1,2.33-1.52,3.43-1.61,1.08-.1,2.22.22,3.37.94l-2.11,2.74c-.32-.21-.59-.35-.82-.4-.33-.1-.69-.1-1.02-.01-.35.08-.67.24-.94.47-.67.56-.96,1.25-.86,2.08.06.62.45,1.34,1.14,2.2.89,1.05,1.65,1.64,2.28,1.76.66.14,1.27-.05,1.85-.53.56-.48.86-.98.87-1.52.02-.58-.14-1.21-.5-1.9M349.34,318.59l-3.22-3.34.81,4.58,2.41-1.24ZM351.26,320.62l-3.87,1.97.39,2.09-3.47,1.76-1.47-13.11,3.71-1.9,9.74,8.9-3.55,1.82-1.49-1.53ZM366.27,307.75l.95,6.66.93-.14c.79-.1,1.35-.27,1.66-.49.3-.24.51-.56.63-1.04.14-.45.14-1.16,0-2.15-.18-1.29-.53-2.15-1.01-2.56-.49-.41-1.23-.56-2.21-.41l-.95.13ZM362.12,305.52l5.6-.81c1.1-.15,2-.14,2.72.07.74.21,1.36.55,1.89,1.05.52.5.94,1.11,1.24,1.82.32.74.54,1.53.64,2.33.2,1.29.2,2.34-.01,3.08-.18.73-.51,1.41-.97,2-.47.55-.99.97-1.57,1.2-.7.32-1.45.55-2.21.68l-5.62.79-1.71-12.21ZM378.92,303.13l10.19.76-.19,2.63-6.38-.48-.15,1.96,5.91.44-.21,2.5-5.88-.42-.17,2.41,6.56.49-.21,2.78-10.38-.77.91-12.29ZM394.61,304.57l3.67,1.02-2.53,8.97,5.73,1.62-.84,2.91-9.4-2.66,3.38-11.85ZM415.43,318.26l.79.51c.61.4,1.12.57,1.49.53.38-.03.72-.24.91-.57.2-.31.28-.66.23-1.04-.07-.36-.41-.73-1.01-1.12l-.91-.61-1.51,2.31ZM415.13,311.76l5.3,3.5c1.15.75,1.82,1.61,2.03,2.52.22.93,0,1.91-.68,2.92-.66,1.03-1.52,1.63-2.54,1.8-1.03.16-2.16-.15-3.44-1l-1.74-1.16-2.51,3.82-3.2-2.12,6.78-10.29ZM428.52,330.58l2.15-4.11-4.08,2.21,1.93,1.91ZM427.21,333.03l-3.1-3.04-1.86,1.02-2.77-2.73,5.7-2.63,6.28-2.9,2.95,2.92-5.36,12.06-2.84-2.82,1-1.89ZM438.67,338.38l.87,1.37c.1.14.29.4.68.77.18.18.42.28.67.29.26.03.52-.03.73-.18.33-.21.51-.47.57-.81.04-.32-.13-.8-.51-1.37l-.88-1.41-2.12,1.34ZM430.42,339.11l10.4-6.64,3.41,5.35c.63.99,1.04,1.8,1.23,2.43.15.63.09,1.28-.16,1.87-.25.62-.71,1.14-1.37,1.57-.59.37-1.16.58-1.74.58-.55.03-1.12-.11-1.68-.34-.41-.25-.78-.54-1.13-.88.11.45.18.82.16,1.08-.05.29-.13.57-.22.85-.09.3-.22.6-.37.87l-2.01,3.49-2.33-3.64,2.09-3.73c.28-.5.42-.86.42-1.11.01-.34-.04-.65-.26-.94l-.17-.28-4.23,2.7-2.06-3.23ZM445.01,355.73l3.7-2.79-4.63.26.93,2.54ZM442.76,357.39l-1.48-4.08-2.11.15-1.34-3.66,13.19.15,1.43,3.89-10.01,8.58-1.37-3.77,1.71-1.27ZM448.67,370.51l2.54-.33.74,5.88-5.22.63c-.88-1.02-1.55-1.94-1.92-2.77-.4-.83-.66-1.83-.81-3.01-.19-1.45-.09-2.67.31-3.64.37-.98,1.02-1.79,1.93-2.43.92-.61,2.01-1.01,3.27-1.16,1.33-.18,2.54-.04,3.59.4,1.05.42,1.9,1.13,2.56,2.13.51.79.84,1.87,1,3.28.19,1.34.19,2.37.01,3.07-.13.68-.46,1.31-.93,1.82-.5.55-1.12.97-1.81,1.24l-1.11-3.56c.44-.22.77-.5.96-.91.2-.39.25-.87.2-1.41-.14-.84-.48-1.46-1.11-1.88-.65-.42-1.6-.55-2.84-.4-1.33.16-2.22.54-2.75,1.09-.49.58-.67,1.32-.58,2.21.05.42.17.81.33,1.18.18.39.43.78.79,1.27l1.16-.16-.33-2.53ZM456.48,389.02l-.43,3.78-7.3-.82c-.7-.08-1.38-.27-2.01-.57-.61-.29-1.15-.72-1.58-1.25-.42-.53-.7-1.07-.84-1.62-.18-.79-.22-1.67-.11-2.71.08-.59.2-1.24.34-1.94.17-.7.41-1.27.72-1.71.32-.46.72-.86,1.18-1.19.54-.33,1.03-.55,1.52-.63.8-.15,1.52-.2,2.12-.11l7.31.83-.43,3.77-7.48-.86c-.68-.07-1.22.05-1.64.38-.41.34-.66.82-.72,1.47-.07.67.05,1.2.38,1.6.32.41.82.65,1.49.76l7.49.83ZM445.12,403.06l4.65.17-3.75-2.74-.9,2.57ZM442.36,402.92l1.41-4.09-1.72-1.23,1.28-3.68,10.15,8.43-1.4,3.94-13.15.32,1.29-3.78,2.14.09ZM449.18,414.28l-2.15,3.65-4.86.02,2.33,4.27-2.13,3.61-3.75-7.77-4.45-2.62,1.95-3.3,4.44,2.64,8.61-.49Z"/>
    <path class="st1" d="M461.71,380c0,45.16-36.59,81.75-81.72,81.75s-81.74-36.6-81.74-81.75,36.59-81.71,81.73-81.71,81.72,36.59,81.72,81.71h0Z"/>
    <path class="st1" d="M440.8,379.71c0,33.61-27.22,60.83-60.81,60.83s-60.83-27.22-60.83-60.83,27.23-60.81,60.82-60.81,60.82,27.23,60.82,60.81h0Z"/>
    <path class="st15" d="M379.99,357.84l5.11,14.62,15.46.35-12.32,9.37,4.48,14.82-12.73-8.81-12.73,8.81,4.46-14.82-12.34-9.37,15.49-.35,5.12-14.62Z"/>
    <path class="st7" d="M408.07,421.7c-.52.43-2.59.66-3.14.76-.56.07-2.73.09-3.66.13-.51.04-1.49.18-1.99.18-4.47-.51,7.26-.44,8.79-1.06M396.36,418.24c.29-.52,1.76-3.78,2.28-4.71.54-.91,1.75-3.33,2.47-4.34.37-.55,1.83-2.13,2.18-1.42-2.54,2.19-4.54,6.03-5.61,8.6-.14.28-.97,1.71-1.28,2.09-.3.37-.18,1.06-.64,1.12-.49.06-.15.15-.15.15,0,0,.42-.94.74-1.49h0ZM413.21,420.74s-2.02-.3-3.27-.74c-1.25-.42-3.34-.74-5.12-.7-1.77.02-3.38.56-4.83,1.11-1.44.53-3.29.58-3.29.58,0,0-1.05.16-.56-.08.47-.23,2.1-1.51,2.1-1.51l1.05-1.44c.3-.08,5.64-7.09,5.06-8.97.82-1.38,1.78-3.85,1.42-4.29-.17-.18-4.16,1.27-5.03,2.06-1.01.88-1.73,2.7-2.03,3.75-.3,1.04-1.83,1.91-1.83,1.91-1.25.9-2.15,3.73-2.57,6.06-.43,2.29-6.08,3.56-6.08,3.56,0,0-1.57.58-.18,1.03.24.07.86,1.12,1.36,1.13.69.08,4.2-1.42,4.74-1.3,1.19.27,2.37.59,3.53.97,1.34.45,2.44.69,3.38.34.95-.34,2.31-.21,3.32-.01,1,.22,2.12.12,2.77-.07.69-.21,2.51-1.22,2.51-1.22,0,0,1.97-.85,3.1-1.39,1.14-.53.45-.77.45-.77"/>
    <path class="st14" d="M397.86,427.55s-7.78-4.07-8.2-4.17c-.25-.03-3.53-1.84-5.03-2.31-1.09-.35-2.59-.44-3.12-.41-1.28.09-3.37.65-3.37.65l1.93.79s1.81.89,2.7,1.37c1.27.67,1.33,1.49,1.33,1.49l7.04,3.1,1.43,1.03s1.3-1.79,5.29-1.54"/>
    <path class="st9" d="M405.68,411.4c2.45-2.18,3.64-5.28,5.66-7,.33.23.33.62-.07,1.31-.38.68-.89.91-1.11,1.26-.41.55-1.64,1.57-1.97,2.18-.29.58-.67,1.39-1.74,2.01-1.06.63-.73,1.64-.82,2.07-.09.47-1.72,1.64-2.51,3.09-.15,1.51-.22.88-1.13,1.41,1.67-2.51,2.54-4.13,3.7-6.33M400.18,418.3c-.16.33-4.98,3.07-3.47,2.66,1.5-.39,5.96-2,7.22-2.57,1.55-.68,2.48-2.09,3.64-3.25,1.19-1.18,4.86-4.69,5.49-6.04.62-1.39,1.19-3.33-1.3-7.68,0,0-.39.83-1.31,1.65-.92.83-2.29,1.75-2.29,1.75l-1.6,1.51s-5.64,10.36-6.39,11.97"/>
    <path class="st7" d="M419.78,414.66s-3.09-.28-3.36-.28c-.29,0-1.98-.23-4.44-.23s-3.35.84-3.99,1.53c-.69.76-2.61,2.52-2.61,2.52l1.04-.09c2.47-1.92,4.39-1.22,5.16-1.27.8-.03,1.76.05,4.24-.82,2.51-.88,2.36-.06,2.09.03-1.2.43-2.45.68-3.73.75-1.86.1-3.5.46-4.23.46s-6.17,1.49-6.17,1.49c0,0,5.88.34,6.52.55.63.26,1.62.14,2.44-.26,2.25-1.04,3.27-1.24,4.2-1.45.93-.18,2.04-.81,2.04-.81,0,0,.6-.38,1.14-1.37.57-1.02-.32-.75-.32-.75M422.67,398.54c.37-.92,1.3-3.08,2.28-3.93.6-.52,1.63-.77,2.18-1,.23-.08,1.92-.16-.19.42-.88.23-2.06.75-2.58,1.63-.74,2.05-1.38,3.83-2.75,5.14-1.01,1.06-1.64,2.43-1.64,2.43l-1.08.37c1.98-1.21,2.84-3.46,3.78-5.06h0ZM432.23,397.39c-1.13.38-1.52.69-1.52.69-2.52.76-3.55,2.34-4.66,3.63-.56.67-1.35,1.18-4.01,2.32-2.43,1.04-4.31,2.66-4.36,2.66,0,0-.77.16-.62.53.06.18.71.04.71.04,0,0,5.01-.71,7.09-1.98,1.33-.84,2.09-1.44,3.35-3.4.57-.86,1.2-2.49,1.23-1.44.1,2.77-4.21,5.46-6.08,6.28-1,.43-2.34.6-4.09.89-1.73.32-2.78.22-2.65-.16.18-.55.38-.67.83-1.21.82-.98,2.81-1.33,4.28-2.02,1.73-.78,3.38-1.92,4.2-2.89.84-.99,1.13-1.35,1.36-2.18.64-2.18.67-3.39,1.28-4.17,2.11-2.6,2.42-3.45,2.53-4.61.02-.27-1.1.62-1.68.94-1.14.67-1.56.67-3.89,1.28-2.37.59-2.32,2.12-2.68,2.84-.11.29-1.07,1.49-1.53,1.71-.46.23-1.58,1.86-2,2.82-.31.7-.86,1.2-1.3,1.14-.46-.09.89-5.13,1.18-5.97.32-.83.38-2.45.38-2.99s.02-1.9-.9-2.05c-.91-.15-.95-1.41-.95-1.41-2.19,1.9-.97,5.24-.73,7.22.23,1.96-.45,5.6-.45,5.6,2.11.9.45,3.47-.21,4.3-.69.84-2,1-2.59,1.74-.62.77-5.05,6.94-5.05,6.94l5.51-1.56s.51.09-.31-.53c-.83-.6.27-2.91.98-3.48,1.36-1.06,3.19-.29,3.19-.29,0,0,2.56.39,5.69-.85,2.62-1.03,3.75-2.71,4.99-3.97.68-.69,1.91-2.96,2.69-4.31.47-.78,1.31-2.26.79-2.08"/>
    <path class="st5" d="M416.6,412.21c.42-.17.48-.25,1.25-1.09.76-.84.09-2.26-1.08-2.2-.57.04-1.18-.09-2.31,1.42-1.09,1.52.52,2.08,1.13,2.14.26.01.61-.1,1.01-.27"/>
    <path class="st12" d="M413.75,402.6c-.73,1.22-1.12,2.62-.55,3.06.13.07.64.52,1.07.52s1.62-.58,2.31-1.63c.69-1.02,1.25-2.15-.16-2.84-1.27-.63-2.14-.04-2.67.9"/>
    <path class="st7" d="M417.92,387.68s.12-.19-.37-.69c-.76-.78-1.71-2.17-1.71-2.17-1.51.83-2.02,2.5-2.02,3.17s.26,2.2.02,3.73c-.08.52-.17,1.12-.92,3.01-.77,1.87.11,3.59.28,4.2.13.6.76,2.47.76,2.47,0,0,.59-.38.79-.42.23-.06,1.04-.03,1.04-.03,0,0,.91-1.65.95-2.57.02-.68-.09-1.82-.41-3.58-.45-2.56-.42-3.29-.11-4.72.3-1.45,1.7-2.41,1.7-2.41"/>
    <path class="st4" d="M420.18,390.24s.86-.21,1.29-.99c.55-.94.4-1.94.4-1.94-1.33-2.58-3.12-.5-3.12-.5-1.6,3.28,1.43,3.42,1.43,3.42"/>
    <path class="st2" d="M424.72,385.5c-1.99.1-2.97,3.68-2.97,3.68,0,0-.32.88-1.38,1.57-1.13.7-.46,1.7-.46,3.48s-1.24,4.93-1.24,4.93l-.46,1.07s.04.8.77-.65c1.23-2.45,2.58-1.85,3.09-4.49.32-1.96,3.56-2.58,3.56-2.58l-.91-.17c-3.37-1.58.19-5.52.77-6.21.61-.7,1.19-.7-.77-.61"/>
    <path class="st13" d="M424.15,389.74c-.91,1.95,1.68,2.05,2.28,1.71.24-.14.79-.79.79-.79,1.05-1.51.09-2.53-.46-2.68-.53-.18-1.65-.31-2.61,1.76"/>
    <path class="st7" d="M419.23,382.16c.68,1.27,2.58,4.79,3.03,4.57.28-.14.06-.86.06-.86,0,0-.06-.95-.37-2.11-.3-1.16-.23-2.65-.84-3.6-.59-.95-2-2.08-2.56-3.59-.55-1.51-.12-4.36-.07-4.72.06-.33.22-.11-.07-.45-.3-.37-2.7-1.65-2.7-1.65,0,0,.14.93.08,2.62-.02.41-.14.88-.2,1.59-.06.68.35,1.53,1.33,3.47,1.14,2.25,1.69,3.63,2.3,4.72M433.63,365.4s-.69,1.15-.94,1.41c-.26.26-4.17,3.62-4.39,3.76-.19.15-2.23.8-4.09,5.82-1.86,5.01-1.06,9.69-1.06,9.69l.9-.11.15-.49s.3-1.66.54-2.92c.26-1.24,1.65-2.98,2.58-4.26.88-1.25,1.59-3.06,1.59-3.06,1.05-2.11,1.55-4,2.59-5.47.04,1.75-6.63,12.54-7.34,16.21l1.97-.3c1.58-1.44,3.64-4.47,5.04-6.42,1.41-1.96,2-5.02,2.26-6.37.25-1.34.19-7.47.19-7.47"/>
    <path class="st7" d="M420.34,366.51c-1.01-.93-1.79-1.21-1.79-1.21,0,0,.24,1.83.24,2.94s.1,2.99.04,3.99c-.04,1-.54,2.65.17,4.27.73,1.6,1.54,2.41,2.12,3.41.53.98,1.49,6.09,1.49,6.09,0,0-.35-6.9-.05-8.86.28-1.92.37-4.91-.06-6.41-.45-1.51-1.19-3.27-2.17-4.22M424.94,359.77c.3-.59,1.01-1.81,1.31-3.67.11-.79.18-2.07.15-2.95-.02-.59-.26-1.62,0-1.69.23-.06.04.32.17,1.2.06.31-.15,1.18-.19,2.28-.05.88-.09,1.62-.48,2.82-.34,1.06-.03,2.23-.24,2.56-.23.33-.83,1.6-.83,1.6,0,0-.37,1.02-.31,1.95.03.95.09,1.98.09,1.98,0,0,.44-.82,1.42-.95,0,0,.22-1.6.22-2.09s.64-3.77.97-4.77c.45-1.46.76-4.01.05-6.97-.2-.8-.34-3.3-.34-3.3,0,0-.94.76-1.5,3.61-.17.87.19,3.2.05,5.68-.06,1.37-1.37,6.91-1.55,7.26"/>
    <path class="st7" d="M424.94,359.77c-.05.08-.06.12-.06.12,0,0,.04-.04.06-.12"/>
    <path class="st7" d="M421.22,345.38c.5,0,.5.55.4.98-.08.44-.07,1.27-.07,1.44,0,.19.21,1.37.38,1.98.18.63.5.83.36,2.09-.09.8-.91,1.73-.62,3.08.15.71.66,1.45.92,2.07.21.43.1,1.47.15,2.32.02.83.48,1.39.48,1.39,0,0-.57,1.06-.76-.26-.21-1.52-.27-2.19-.56-2.88-.47-1.13-.91-3.15-.17-4.71.13-.3.22-.86.22-1.53s-.42-1.83-.5-2.54c-.07-.57-.02-1.77-.02-2.2M418.78,352.95c.12.86.39,1.34,1.36,3.21.3.61.97,2.18,1.07,2.68.12.5.22,1.1.22,1.25,0,.16.11,1.34.11,1.34v.49s-2.68-1.56-3.85-2.39c-1.17-.84-2.49-1.99-3.34-2.69-.96-.79-3.25-3.5-3.28-5.68l-1.05-.95s-.8,4.83,2.98,7.96c1.09.9,2.28,1.88,4.83,3.04,2.55,1.18,2.22,2.23,3.28,4.49,1.05,2.27,1.7,3.58,1.83,4.22.09.69-.29,10.34-.29,10.34l.09.88s2.33-8.94,3.45-9.94c0,0-2.22-.34-2.05-3.84l-.39-2.31s-.44-2.77.39-4.49c0,0,.99-3.15.65-5.88-.21-1.63-.29-2.12-.49-3.68-.3-2.43-1.28-5.9-1.39-6.32-.33-1.22-.45-1.41-.83-2.37-.12-.34-.33-1.47-.69-1.48-.21-.01-.52,1.45-.52,1.45,0,0-.47,1.59-.56,2.02-.3,1.28-1.01,2.36-1.34,5.24-.06.52-.12,1.93-.18,2.12-.03.16-.1.99-.03,1.3"/>
    <path class="st7" d="M420.77,365.15s-.39-.86-.78-1.31c-.79-.94-1.86-1.73-4.91-3.22-3.03-1.51-3.83-3.99-5.38-5.01-.71-.49-2.08-.72-2.08-.72,0,0,1.35,1.86,1.67,2.5.41.82.51,1.37,2.18,2.93,1.66,1.56,3.68,2.11,4.99,2.49,1.84.57,4.31,2.34,4.31,2.34M411.22,350.8c.08.25.86,2.91,2.5,4.99,2.51,3.17,7.34,5.44,7.34,5.44-.45-1.97-1.24-4.26-1.86-5.27-2.2-3.55-8-5.29-8-5.29,0,0-.1-.14.02.13M418.15,352.3c1.3-2.85-2.58-5.57-3.68-7.55.4-.32.89.52,1.33,1.09.64.84,2.43,3.29,2.43,3.29l.55-2.6-4.62-4.21c-.06.61-1.48,1.11-1.48,1.11-.69,3.89,5.47,8.87,5.47,8.87"/>
    <path class="st7" d="M410.1,345.7c-1.11.5-1.51.5-1.51.5l.62,1.65.36.45s1.45,2.1,2.3,2.36c.35.13,1.68.36,3,.93,1.67.71,4.39,3.09,4.39,3.09,0,0-4.53-5.11-6.27-8.94l-.59-2.21-1.64.11s.45,1.55-.67,2.06"/>
    <path class="st7" d="M393.13,342.43c.76.69,1.59,1.3,2.46,1.83,1,.6,3.88,2.3,6.04,2.71.5.08,3.21.42,3.21.42.11-1.19,1.4-1.29,1.4-1.29l-3.84-.42c-3.09-.23-5.45-1.52-7.28-3.59,2.46,1.49,5.99,3.84,8.86,3.71,11.76-1.16-3.54-1.45-4.87-2.3-1.41-.87-2.61-2.31-2.61-2.31l-3.45-.15s-1.69-.11.07,1.4"/>
    <path class="st7" d="M406.98,349.13c.76-.06,1.29-.2,1.46-1.03.15-.93-.2-1.61-1.32-1.85-.62-.15-1.72-.19-2.16.92-.49,1.13,1.28,1.86,1.28,1.86,0,0,.34.15.74.1M408.29,342.38c-1,0-1.33.81-1.12,2.39.26,1.6,2.7.9,2.7.9l.45-.23s.33-.26.15-1.53c-.17-1.3-1.18-1.53-2.18-1.53M412.29,343.5h-.04s.04,0,.04,0"/>
    <path class="st7" d="M412.25,343.5s.1-.05.35-.12c.51-.19,1.02-1.41,1.02-1.41.26-1.65-.92-2.06-.92-2.06-1.99-.4-2.04,1.35-2.04,1.35-.55,2.28,1.3,2.25,1.59,2.24M403.39,335.69c.11.76,1.18,1.85,1.35,2.04.19.17,1.57,1.6,2.03,2.24.46.64,2,3.55,2,3.55,0,0,.27-.04.38-.27.27-.45-1.03-3.98-1.16-4.22-.48-1.07-1.25-1.87-2.04-2.7-.18-.12-.82-.94-1.53-1.83,1.39,1.78,4.96,6.85,6.01,9.1,0,0-.13-2.4-.26-3.69-.44-3.76-1.42-4.92-1.74-5.47-.55-1.02-1.96-2-2.97-2.35-1-.36-2.2-.86-3.47-1.27-1.32-.4-.3.78.18,1.81.61,1.21,1.09,2.29,1.2,3.06"/>
    <path class="st7" d="M398.48,341.87c1.3,1.1,1.88,1.87,4.58,2.26,2.72.43,2.94.25,2.94.25,0,0,1.41-.68.69-1.28-3.99-1.76-7.77-3.84-9.69-6.19,0,0,.33-.32,1.72,1.06.8.81,1.34,1.22,1.83,1.6,1.45,1.02,2.08,1.3,3.53,2.09.77.42,2.7.87,2.7.87,0,0,.27-.58.52-.65.24-.06-.15-.97-1.82-2.33-.93-.77-1.76-1.66-2.45-2.66,0,0-1.98-.43-4.13-.79-1.6-.25-4.62-2.59-4.56-1.96.05.65.45,2.68,1.26,3.97.82,1.29,1.6,2.62,2.89,3.75"/>
    <path class="st14" d="M376.04,423.08c-1.18.35-10,3.66-10,3.66l-2.46.99c3.4-.77,6.01.95,6.01.95l9.83-4.55s-.03-.15-.27-.33c-.26-.18-1.91-1.08-3.1-.72"/>
    <path class="st11" d="M363.2,428.03c-.07.06-.13.29.04.36.49.27.36.38,2.59.65,2.25.24,3.71-.18,4.1-.61.45-.49-5.57-1.41-6.72-.4"/>
    <path class="st3" d="M349.08,396.27l-.41-2.76s-.51-7.46-1.36-8.96c-.16-.33-.09-1.11-.63-1.12-1.03-.08-1.03,2.35-1.15,4.55-1.67,11.09,7.17,19.55,7.17,19.55l-3.62-11.27Z"/>
    <path class="st8" d="M392.84,429.13s-.93-.21-.34-.93c.56-.69,2.23-1.06,2.57-1.06.33-.01,1.27.07,1.97.26.7.17,1.68.79,1.39,1.25-.3.43-1.25.96-2.55.96-1.12,0-1.69-.03-2.18-.17-.48-.18-.86-.31-.86-.31"/>
    <path class="st14" d="M383.25,423.85s-3.04-1.4-5.91-2.8c-3.79-1.85-8.35-4.42-11.52-9.14-3.97-5.84-7.43-8.97-8.26-9.6-.86-.63-.98-.86-1.3-.42-.29.39-.09.72.15,1.13.82,1.33,2.83,3.83,3.55,5.17,1.24,2.39,3.81,5.01,3.79,6.56,0,.22-.75-.15-.75-.15,0,0-6.01-2.06-8.45-9.34-1.77-5.28-1.02-6.83-1.43-9.47-.7-4.69-.85-5.07-3.17-10.33-.06-.13-1.42-2.33-1.6-1.84-.25.63.23,2.98.23,2.98l.25,2.71s-.2,6.01-.2,6.37-1.51,4.12,4.92,10.42c0,0,.1,1.07-.77.13-.61-.67-5.22-4.21-6.62-10.03-1.44-5.82-1.65-11.64-.56-14.06.99-2.18,2.97-7.53,2.13-12.19-.1-.49-.24-1.92-.54-1.54-.13.18-.71,2.54-1.06,3.36-.49,1.12-1.24,2.22-1.47,2.99-.45,1.31-2.67,3.34-2.24,7.07.49,4.29.77,4.96,1.29,6.48.18.56.61,1.97.33,2.12-.26.14-1.17-1.7-1.17-1.7,0,0-4.07-8-1.56-14.5,2.54-6.47,8.91-12.6,8.91-12.6,0,0,5.17-4.29,6.23-5.29.41-.39.31-.67.18-.63-1.29.32-11.24,2.38-14.74,14.25,0,0-.18.5-.44.38-.32-.14,0-.7,0-.7,0,0,2.19-8.41,8.34-12.23,6.71-4.18,5.92-3.57,8.14-4.89,1.4-.87,2.66-2.03,4.22-4.61.16-.29.79-1.79.71-2.05-.07-.25-.37.1-.51.52,0,0-1.9,2.93-4.74,3.92-2.85.99-5.17-.42-8.03,2.75-2.87,3.19-5.15,7.6-5.15,7.6,0,0-.75,1.14-.92,1.11-.32-.1.15-1.21.15-1.21,0,0,3.83-8.13,6.91-9.78,3.08-1.66,5.83-3.26,7.58-4.61,2.13-1.67,5.79-5.75,7.11-7.16.28-.3,2.25-2.29,2.68-2.94.26-.35.89-.86.78-.95-.28-.21-2.15.69-2.15.69,0,0-10.15,2.8-16.46,12.33-.29.44-.99,1.34-1.36,1.72-.67.7-1.01,1.86-1.01,1.86-.41-.34,3.57-5.32,3.57-5.32l.7-3.22s1.18-4.84,3.66-8.25c.25-.31,1.71-1.79,1.96-2.09.49-.53-.93.47-.68.24,0,0-9.47,6.79-9.47,15.36,0,1.54-.95,2.94-2.28,4.85-1.54,2.22-2.06,3.58-2.73,6.89-.28,1.39-.57,2.78-.87,4.16,0,0,.09,1.22-.3,1.13-.41-.09-.27-1.1-.27-1.1,0,0,.97-6.38,1.65-8.34.67-1.91,1.11-3.21,1.11-3.21,0,0-.39-4.8.67-7.43.9-2.29,3.19-5.31,3.55-6.07.15-.33,1.21-2.48,1.51-4.93.04-.33-.22-.06-.65.9-1.04,2.35-1.91,2.96-3.62,5.17,0,0-4.39,3.18-5.98,12.64,0,0-.05,3.52-.59,9.05-.39,4.05-.06,7.84.4,10.12.29,1.4.85,1.41.5,1.58-.21.11.14.02-.36-1.04-.61-1.27-1.07-3.21-1.07-5.91,0-4.93.43-8.89.43-8.89,0,0,.32-7.97-2.98-11.56-.16-.19.58,1.61.91,3.41.41,2.23-.33,5.31-.55,6.52-.21,1.21-2.41,6.48-1.64,11.42,0,0,1.86,8.38,4.27,12.45,0,0,1.49,1.75.17.11-1.31-1.64-4-8.17-4.23-8.72-.21-.53-2.13-4.59-3.95-6.24-.94-.88-3.52-2.42-3.52-2.42,0,0-1.4-1.07-.34.35.84,1.12,1.97,3.13,2.5,4,1.12,1.81,2.11,3.69,2.97,5.63.86,1.9,2.87,7.48,2.87,7.48l1.28,3.54s2.15,1.2,3.33,2.5c.96,1.06,2.95,3.48,4.6,7.79.74,1.91,2.23,3.66,2.23,3.66,0,0-.32.61-1.64-1.68-1.3-2.32-2.58-6.66-5.72-10.05-2.39-2.6-8.8-5.21-8.8-5.21,0,0,4.12,7.19,5.15,8.47,1.73,2.05,4.24,4.94,4.88,5.7.67.78,4.55,5.57,5.12,6.34.9,1.2,1.5,1.72,1.97,2.21,1.02,1.09,4.05,3.08,4.29,3.39.04.32.11.06-.15-.13-1.34-.8-2.95-2.07-4.61-3.15-1.65-1.1-8.03-3.82-12.33-9.75-1.02-1.75-1.5-2.45-1.85-2.27-.53.28,2.89,11.6,9.93,15.2,0,0,7.76,3.45,9.48,4.49.94.57,2.85,1.41,3.73,2.12.5.42-.46.39-.52.38-4.12-.32-10.04-.87-13.67-2.98,0,0-1.56-1.09-.28.44,1.02,1.19,2.95,4.13,6.68,5.78,3.73,1.64,9.16,2.59,11.15,2.7,1.95.11,8.9.14,10.24.57,1.3.44,3.52,1.86,4.79,2.27,1.15.37,4.64,1.71,4.64,1.71,0,0,1.05.57,1.61.78.63.25,3.24.23,3.42-.26.18-.44-.75-1.1-.75-1.1"/>
    <path class="st7" d="M428.34,364.92c.79.29,1.14,2.63,1.14,2.63,0,0-.07-1.34-.07-2s-.32-3.16-.32-3.16l-.7.5c-.83.67-1.3,1.84-1.3,1.84,0,0,.48-.08,1.25.19"/>
  </g>
</svg>