<?xml version="1.0" encoding="UTF-8"?>
<svg id="Laag_1" xmlns="http://www.w3.org/2000/svg" version="1.1" xmlns:xlink="http://www.w3.org/1999/xlink" viewBox="0 0 760 760">
  <!-- Generator: Adobe Illustrator 29.5.1, SVG Export Plug-In . SVG Version: 2.1.0 Build 141)  -->
  <defs>
    <style>
      .st0 {
        stroke-width: .5px;
      }

      .st0, .st1, .st2, .st3, .st4, .st5 {
        stroke: #000;
      }

      .st0, .st2, .st4, .st6, .st5 {
        fill: #ff0;
      }

      .st7 {
        fill: #039;
      }

      .st1 {
        fill: #fff;
        stroke-linejoin: bevel;
        stroke-width: .67px;
      }

      .st8 {
        fill: none;
      }

      .st9, .st3 {
        fill: red;
      }

      .st2 {
        stroke-width: .55px;
      }

      .st2, .st10, .st5 {
        stroke-linecap: round;
      }

      .st2, .st5 {
        fill-rule: evenodd;
        stroke-linejoin: round;
      }

      .st3 {
        stroke-width: .51px;
      }

      .st4 {
        stroke-miterlimit: 4;
        stroke-width: .5px;
      }

      .st11 {
        fill: #060;
      }

      .st10 {
        stroke: #fff;
        stroke-width: 2.97px;
      }

      .st12 {
        clip-path: url(#clippath);
      }

      .st5 {
        stroke-width: .57px;
      }
    </style>
    <clipPath id="clippath">
      <circle class="st8" cx="380" cy="380" r="379.98"/>
    </clipPath>
  </defs>
  <g class="st12">
    <rect class="st9" x="-140.81" y="-21.04" width="1203.12" height="802.08"/>
    <rect class="st11" x="-140.81" y="-21.04" width="481.25" height="802.08"/>
    <g>
      <path class="st5" d="M497.32,504.4c-60.58-1.82-338.36-175.21-340.26-202.83l15.34-25.58c27.55,40.04,311.53,208.66,339.42,202.69l-14.5,25.71"/>
      <path class="st5" d="M169.17,272.52c-5.43,14.63,72.49,62.8,166.24,119.82,93.75,57.02,174.58,92.25,180.57,87.2.37-.65,2.95-5.09,2.71-5.06-1.12,1.69-3.86,2.23-8.12,1-25.33-7.31-91.39-37.63-173.2-87.24-81.81-49.61-152.98-95.33-164.05-114.76-.77-1.35-1.32-3.8-1.21-5.71h-.27s-2.36,4.11-2.36,4.11l-.32.65h0,0ZM498.75,505.2c-1.03,1.86-2.94,1.93-6.58,1.53-22.66-2.51-91.41-35.94-172.77-84.65-94.67-56.67-172.85-108.3-164.37-121.8l2.31-4.08.45.14c-7.63,22.87,154.3,115.46,163.83,121.36,93.69,58.04,172.68,91.94,179.67,83.13l-2.54,4.37h0s0-.01,0-.01Z"/>
      <path class="st5" d="M340.78,318.3c60.63-.48,135.45-8.29,178.51-25.45l-9.28-15.07c-25.45,14.09-100.68,23.35-169.74,24.73-81.68-.75-139.34-8.36-168.23-27.74l-8.76,16.05c53.11,22.47,107.52,27.24,177.5,27.48"/>
      <path class="st5" d="M521.79,293.2c-1.48,2.37-29.56,12.05-70.93,19.2-28.05,4.28-64.64,7.93-110.29,7.98-43.38.04-78.81-3.05-105.64-6.68-43.42-6.81-65.84-16.28-74.12-19.63.79-1.58,1.3-2.68,2.07-4.15,23.85,9.5,46.37,15.22,72.75,19.28,26.65,3.61,61.66,6.74,104.82,6.7,45.45-.05,81.63-3.98,109.52-8.13,42.42-6.84,65.59-15.65,68.85-19.74l3,5.17h0ZM513.65,277.91c-4.6,3.69-27.51,11.82-67.81,18.25-26.9,3.86-61.1,7.31-104.8,7.35-41.52.04-75.43-2.76-101.23-6.52-40.93-5.35-62.72-14.99-70.57-17.8.78-1.35,1.58-2.69,2.39-4.04,6.11,3.08,27.14,11.61,68.63,17.49,25.51,3.62,59.48,6.31,100.79,6.27,43.49-.04,77.31-3.56,104.04-7.4,40.51-5.57,62.32-15.94,65.63-18.53l2.95,4.91h0s0,0,0,0Z"/>
      <path class="st5" d="M141.68,391.35c37.29,20.06,120.12,30.17,198.5,30.86,71.37.11,164.34-11.03,199.11-29.46l-.96-20.08c-10.88,17-110.51,33.3-198.93,32.64-88.42-.67-170.52-14.32-197.89-32l.16,18.03"/>
      <path class="st5" d="M541.2,388.46v4.79c-5.22,6.25-37.99,15.69-79.08,22.34-31.27,4.79-72.04,8.41-122.84,8.41s-86.75-3.44-116.6-8.02c-47.18-6.87-77.36-18.9-83.42-22.49l.03-5.58c18.2,12.1,67.5,20.95,84.05,23.66,29.65,4.55,67.91,7.97,115.93,7.97,50.56,0,91.1-3.59,122.18-8.35,29.48-4.26,71.47-15.33,79.74-22.71h0ZM541.22,371.43v4.79c-5.22,6.24-37.99,15.69-79.08,22.34-31.27,4.79-72.04,8.41-122.84,8.41s-86.75-3.44-116.6-8.02c-47.18-6.87-77.36-18.9-83.42-22.49l.03-5.58c18.2,12.1,67.5,20.95,84.05,23.65,29.65,4.56,67.91,7.97,115.93,7.97,50.56,0,91.1-3.59,122.18-8.36,29.48-4.26,71.47-15.33,79.74-22.71h0s0,0,0,0Z"/>
      <path class="st5" d="M340.02,500.95c-85.77-.51-159.25-23.38-174.77-27.16l11.32,17.71c27.41,11.53,99.1,28.71,164.28,26.81,65.18-1.9,122.14-6.95,162.28-26.49l11.6-18.36c-27.35,12.88-120.45,27.35-174.7,27.48"/>
      <path class="st2" d="M507.47,487.72c-1.7,2.6-3.44,5.18-5.21,7.68-18.93,6.68-48.76,13.68-61.35,15.73-25.71,5.3-65.5,9.21-100.81,9.23-75.98-1.11-138.17-15.99-167.43-28.67l-2.36-4.06.39-.61,4,1.55c52.03,18.62,110.47,26.04,165.83,27.37,35.17.12,70.37-4.03,98.84-9.12,43.66-8.75,61.31-15.34,66.72-18.33l1.38-.77h0,0ZM517.53,471.13c.04.05.09.1.13.16-1.28,2.15-2.59,4.34-3.93,6.54-10.1,3.61-37.5,11.63-77.52,17.22-26.37,3.59-42.75,7.07-95.2,8.09-98.28-2.5-161.92-21.72-177.04-26.46l-2.24-4.3c56.96,14.87,115.14,25.25,179.28,26.31,47.99-1.02,68.4-4.56,94.55-8.12,46.66-7.26,70.17-14.94,77.23-17.16-.09-.13-.19-.26-.31-.4l5.06-1.89h0s0,0,0,0Z"/>
      <path class="st5" d="M518.56,375.51c.28,56.42-28.59,107.05-51.85,129.39-32.9,31.6-76.52,51.93-127.47,52.86-56.89,1.05-110.53-36.04-124.91-52.33-28.13-31.85-51.03-72.3-51.76-126.81,3.48-61.58,27.66-104.47,62.7-133.88,35.04-29.41,81.7-43.74,120.55-42.71,44.83,1.18,97.2,23.18,133.39,66.84,23.71,28.61,33.97,59.65,39.36,106.66h0ZM339.72,182.32c109.25,0,199.11,88.91,199.11,197.92s-89.85,197.92-199.11,197.92-198.36-88.91-198.36-197.92,89.11-197.92,198.36-197.92"/>
      <path class="st5" d="M340.26,181.65c109.35,0,198.54,89.2,198.54,198.56s-89.19,198.55-198.54,198.55-198.54-89.19-198.54-198.55,89.19-198.56,198.54-198.56h0ZM146.09,380.21c0,106.8,87.7,194.19,194.17,194.19s194.17-87.39,194.17-194.19-87.7-194.19-194.17-194.19-194.17,87.39-194.17,194.19h0Z"/>
      <path class="st5" d="M340.42,198.15c99.72,0,181.86,81.85,181.86,181.88s-82.14,181.88-181.86,181.88-181.86-81.85-181.86-181.88,82.14-181.88,181.86-181.88h0ZM162.93,380.03c0,97.62,80.17,177.51,177.49,177.51s177.49-79.88,177.49-177.51-80.16-177.51-177.49-177.51-177.49,79.88-177.49,177.51h0Z"/>
      <path class="st5" d="M348.42,180.84h-17.01l.02,398.95h17.07l-.08-398.95Z"/>
      <path class="st5" d="M346.71,178.57h4.33l.04,403.55h-4.33l-.03-403.55h0ZM329.83,178.57h4.36v403.55s-4.36,0-4.36,0V178.57h0Z"/>
      <path class="st5" d="M538.93,387.89v-14.75l-12.01-11.19-68.18-18.05-98.25-10.03-118.31,6.02-84.22,20.05-17,12.59v14.75l43.07-19.32,102.26-16.04h98.25l72.19,8.02,50.13,12.03,32.06,15.91Z"/>
      <path class="st5" d="M340.34,349.46c46.89-.09,92.38,4.44,128.46,11.47,37.23,7.44,63.44,16.75,72.4,27.21v5.18c-10.81-13.01-46.08-22.55-73.24-28.01-35.81-6.97-81-11.46-127.62-11.38-49.2.09-95.02,4.75-130.31,11.64-28.31,5.62-66.07,16.78-70.79,27.79v-5.39c2.59-7.62,30.71-19.01,70.15-26.9,35.55-6.93,81.45-11.51,130.94-11.6h0ZM340.36,332.43c46.89-.08,92.38,4.45,128.46,11.47,37.23,7.45,63.44,16.75,72.4,27.21v5.18c-10.81-13.01-46.08-22.55-73.24-28-35.81-6.97-81-11.47-127.62-11.38-49.2.09-94.8,4.75-130.09,11.63-27.32,5.18-66.62,16.78-71.01,27.79v-5.4c2.59-7.54,31.28-19.33,70.15-26.9,35.55-6.93,81.45-11.51,130.94-11.6h0Z"/>
      <path class="st5" d="M339.39,245.57c73.89-.37,138.34,10.33,167.82,25.44l10.76,18.61c-25.63-13.81-95.16-28.17-178.47-26.03-67.88.42-140.42,7.47-176.81,26.89l12.84-21.47c29.87-15.49,100.3-23.35,163.86-23.43"/>
      <path class="st5" d="M340.38,260.93c42.14-.11,82.86,2.27,115.25,8.11,30.16,5.61,58.92,14.04,63.04,18.57l3.19,5.63c-10-6.53-34.89-13.8-66.85-19.86-32.1-6.03-72.79-8.03-114.7-7.92-47.57-.16-84.52,2.35-116.24,7.88-33.54,6.28-56.82,15.24-62.56,19.5l3.12-5.96c11.16-5.69,28.85-12.55,58.6-17.91,32.8-5.99,70.15-7.79,117.15-8.05h0ZM340.36,243.92c40.33-.11,80.15,2.14,111.19,7.72,24.48,4.77,48.69,12.21,57.56,18.83l4.66,7.41c-7.93-8.81-37.77-17.16-64.11-21.84-30.8-5.31-68.97-7.42-109.3-7.75-42.33.12-81.44,2.71-111.79,8.24-28.96,5.51-47.64,12.03-55.55,17.13l4.1-6.19c10.91-5.74,28.54-11.02,50.74-15.33,30.58-5.57,69.93-8.09,112.51-8.21h0Z"/>
      <path class="st5" d="M438.99,462.73c-36.53-6.82-73.13-7.81-98.69-7.51-123.13,1.44-162.91,25.28-167.76,32.5l-9.2-15c31.35-22.72,98.4-35.47,177.63-34.16,41.14.67,76.65,3.41,106.51,9.19l-8.49,14.98"/>
      <path class="st2" d="M339.6,453.11c34.25.51,67.87,1.93,100.33,7.98l-2.35,4.15c-30.14-5.56-62.27-7.69-97.86-7.52-45.44-.36-91.41,3.89-131.42,15.37-12.63,3.51-33.53,11.63-35.66,18.34l-2.34-3.86c.67-3.96,13.31-12.19,36.92-18.83,45.83-13.13,88.71-15.34,132.38-15.64h0s0,0,0,0ZM341.15,435.87c35.49.66,72.14,2.3,107.76,9.36l-2.45,4.32c-32.17-6.39-62.9-8.52-105.1-9.16-45.59.08-93.95,3.33-137.91,16.12-14.19,4.13-38.69,13.07-39.51,20.15l-2.34-4.14c.53-6.43,21.74-14.81,40.82-20.36,44.31-12.88,92.79-16.19,138.73-16.28h0Z"/>
      <path class="st5" d="M516.05,475.01l-14.8,22.96-42.51-37.76-110.29-74.19-124.32-68.18-64.55-22.08,13.76-25.51,4.67-2.55,40.1,10.03,132.34,68.18,76.2,48.12,64.17,46.12,26.07,30.08-.84,4.77Z"/>
      <path class="st5" d="M157.26,296.36c11.32-7.68,94.52,29.39,181.58,81.88,86.83,52.64,169.79,112.13,162.3,123.27l-2.46,3.87-1.13.89c.24-.17,1.49-1.7-.12-5.83-3.7-12.17-62.55-59.14-160.2-118.1-95.2-56.77-174.53-90.98-182.47-81.2l2.5-4.79h0,0ZM519.08,474.68c7.16-14.14-70.01-72.28-165.69-128.88-97.88-55.48-168.42-88.13-181.31-78.39l-2.86,5.21c-.02.29.1-.36.71-.82,2.34-2.04,6.23-1.91,7.98-1.94,22.19.33,85.56,29.49,174.46,80.46,38.96,22.69,164.57,103.25,164.09,125.9.03,1.95.16,2.35-.57,3.31l3.2-4.86h0s0,0,0,0Z"/>
    </g>
    <g>
      <path class="st1" d="M221.33,402.08c0,32.63,13.36,62.13,35,83.7,21.69,21.61,51.16,35.25,83.84,35.25s62.66-13.34,84.25-34.87c21.59-21.53,34.98-51.24,34.98-83.98h0v-158.79l-238.1-.28.02,158.97h0,0Z"/>
      <path class="st3" d="M225.78,402.3v.09c0,31.19,12.92,59.6,33.64,80.23,20.76,20.66,49.36,33.51,80.64,33.51s59.98-12.75,80.65-33.34c20.67-20.58,33.48-48.99,33.48-80.3h0v-154.05l-228.27-.04-.14,153.89M408.29,294.52v98.04s-.08,10.37-.08,10.37h0c0,2.73-.16,5.84-.48,8.49-1.86,15.5-8.98,29.01-19.54,39.52-12.36,12.3-29.42,19.93-48.22,19.93s-35.37-7.9-47.78-20.25c-12.73-12.67-20.11-30.05-20.11-48.02l-.03-108.33,136.23.25h0s0,0,0,0Z"/>
      <g id="castle3">
        <g id="castle">
          <path class="st6" d="M240.56,288.62c.27-11.07,8.13-13.69,8.18-13.73.06-.04,8.48,2.82,8.46,13.83l-16.64-.1"/>
          <path class="st0" d="M233.78,275.11l-1.37,12.72,8.3.02c.08-10.53,7.97-12.28,8.16-12.24.18-.01,8,2.33,8.21,12.24h8.32l-1.5-12.82-30.12.08h0s0,0,0,0Z"/>
          <path class="st0" d="M231.86,287.88h33.98c.72,0,1.3.71,1.3,1.57s-.59,1.57-1.3,1.57h-33.98c-.72,0-1.3-.7-1.3-1.57s.59-1.57,1.3-1.57Z"/>
          <path class="st0" d="M244.21,287.82c.04-6.64,4.54-8.52,4.56-8.52,0,0,4.7,1.94,4.73,8.52h-9.29"/>
          <path class="st0" d="M232.58,269.81h32.57c.69,0,1.25.64,1.25,1.41s-.56,1.41-1.25,1.41h-32.57c-.69,0-1.25-.63-1.25-1.41s.56-1.41,1.25-1.41Z"/>
          <path class="st0" d="M233.26,272.66h31.16c.66,0,1.19.63,1.19,1.41s-.54,1.41-1.19,1.41h-31.16c-.66,0-1.19-.63-1.19-1.41s.54-1.41,1.19-1.41Z"/>
          <path class="st0" d="M243.33,251.43h2.46v1.75h1.79v-1.79h2.52v1.79h1.8v-1.79h2.52v4.03c0,.63-.51,1.04-1.1,1.04h-8.85c-.59,0-1.14-.48-1.14-1.06v-3.99s0,0,0,0h0Z"/>
          <path class="st0" d="M252.59,256.82l.56,12.94-8.63-.03.57-12.94,7.5.03"/>
          <path id="cp1" class="st0" d="M242.06,262.82l.26,6.97h-8.27s.23-6.97.23-6.97h7.78,0,0Z"/>
          <path id="cp11" data-name="cp1" class="st0" d="M263.34,262.82l.26,6.97h-8.27s.23-6.97.23-6.97h7.78,0,0Z"/>
          <path id="cp2" class="st0" d="M232.76,257.76h2.41v1.76h1.76v-1.79h2.47v1.79h1.76v-1.79h2.47s0,4.04,0,4.04c0,.63-.5,1.04-1.08,1.04h-8.66c-.58,0-1.12-.47-1.12-1.05v-3.99s0,0,0,0h0Z"/>
          <path id="cp21" data-name="cp2" class="st0" d="M254.03,257.76h2.41v1.76h1.76v-1.79h2.47v1.79h1.76v-1.79h2.47s0,4.04,0,4.04c0,.63-.5,1.04-1.08,1.04h-8.66c-.58,0-1.12-.47-1.12-1.05v-3.99s0,0,0,0h0Z"/>
          <path d="M248,260.91c-.05-1.26,1.76-1.27,1.74,0v3.08h-1.74v-3.08"/>
          <path id="cp3" d="M237.31,265.38c0-1.21,1.68-1.24,1.66,0v2.38h-1.66v-2.38"/>
          <path id="cp31" data-name="cp3" d="M258.65,265.38c0-1.21,1.68-1.24,1.66,0v2.38h-1.66v-2.38"/>
        </g>
        <g id="castle1" data-name="castle">
          <path class="st6" d="M240.56,381.5c.27-11.07,8.13-13.69,8.18-13.73.06-.04,8.48,2.82,8.46,13.83l-16.64-.1"/>
          <path class="st0" d="M233.78,367.99l-1.37,12.72,8.3.02c.08-10.53,7.97-12.28,8.16-12.24.18-.01,8,2.33,8.21,12.24h8.32l-1.5-12.82-30.12.08h0s0,0,0,0Z"/>
          <path class="st0" d="M231.86,380.76h33.98c.72,0,1.3.71,1.3,1.57s-.59,1.57-1.3,1.57h-33.98c-.72,0-1.3-.7-1.3-1.57s.59-1.57,1.3-1.57Z"/>
          <path class="st0" d="M244.21,380.7c.04-6.64,4.54-8.52,4.56-8.52,0,0,4.7,1.94,4.73,8.52h-9.29"/>
          <path class="st0" d="M232.58,362.69h32.57c.69,0,1.25.64,1.25,1.41s-.56,1.41-1.25,1.41h-32.57c-.69,0-1.25-.63-1.25-1.41s.56-1.41,1.25-1.41Z"/>
          <path class="st0" d="M233.26,365.54h31.16c.66,0,1.19.63,1.19,1.41s-.54,1.41-1.19,1.41h-31.16c-.66,0-1.19-.63-1.19-1.41s.54-1.41,1.19-1.41Z"/>
          <path class="st0" d="M243.33,344.31h2.46v1.75h1.79v-1.79h2.52v1.79h1.8v-1.79h2.52v4.03c0,.63-.51,1.04-1.1,1.04h-8.85c-.59,0-1.14-.48-1.14-1.06v-3.99s0,0,0,0h0Z"/>
          <path class="st0" d="M252.59,349.7l.56,12.94-8.63-.03.57-12.94,7.5.03"/>
          <path id="cp12" data-name="cp1" class="st0" d="M242.06,355.7l.26,6.97h-8.27s.23-6.97.23-6.97h7.78,0,0Z"/>
          <path id="cp13" data-name="cp1" class="st0" d="M263.34,355.7l.26,6.97h-8.27s.23-6.97.23-6.97h7.78,0,0Z"/>
          <path id="cp22" data-name="cp2" class="st0" d="M232.76,350.64h2.41v1.76h1.76v-1.79h2.47v1.79h1.76v-1.79h2.47s0,4.04,0,4.04c0,.63-.5,1.04-1.08,1.04h-8.66c-.58,0-1.12-.47-1.12-1.05v-3.99s0,0,0,0h0Z"/>
          <path id="cp23" data-name="cp2" class="st0" d="M254.03,350.64h2.41v1.76h1.76v-1.79h2.47v1.79h1.76v-1.79h2.47s0,4.04,0,4.04c0,.63-.5,1.04-1.08,1.04h-8.66c-.58,0-1.12-.47-1.12-1.05v-3.99s0,0,0,0h0Z"/>
          <path d="M248,353.79c-.05-1.26,1.76-1.27,1.74,0v3.08h-1.74v-3.08"/>
          <path id="cp32" data-name="cp3" d="M237.31,358.26c0-1.21,1.68-1.24,1.66,0v2.38h-1.66v-2.38"/>
          <path id="cp33" data-name="cp3" d="M258.65,358.26c0-1.21,1.68-1.24,1.66,0v2.38h-1.66v-2.38"/>
        </g>
        <g id="castle2" data-name="castle">
          <path class="st6" d="M276.77,478.18c-7.67-7.99-3.99-15.41-3.98-15.48.01-.07,7.98-4.03,15.77,3.75l-11.8,11.73"/>
          <path class="st4" d="M262.41,473.47l8.06,9.93,5.86-5.88c-7.41-7.47-3.1-14.3-2.93-14.41.12-.13,7.29-4.04,14.47,2.8l5.86-5.91-10.16-7.97-21.17,21.43h0s0,0,0,0Z"/>
          <path class="st4" d="M270.12,483.83l23.94-24.11c.5-.51,1.42-.43,2.03.18s.7,1.52.19,2.03l-23.94,24.11c-.5.51-1.42.43-2.03-.18s-.7-1.52-.2-2.03Z"/>
          <path class="st4" d="M278.78,475.03c-4.69-4.71-2.85-9.22-2.83-9.24,0,0,4.68-1.97,9.38,2.64l-6.55,6.59"/>
          <path class="st4" d="M257.8,470.59l22.95-23.11c.48-.49,1.33-.44,1.88.11s.61,1.39.12,1.88l-22.95,23.11c-.48.49-1.33.44-1.88-.11s-.61-1.39-.12-1.88Z"/>
          <path class="st4" d="M260.31,472.11l21.95-22.11c.46-.47,1.29-.4,1.84.15s.62,1.38.16,1.84l-21.95,22.11c-.46.47-1.29.4-1.84-.15s-.62-1.38-.16-1.84Z"/>
          <path class="st4" d="M252.33,450.01l1.74-1.74,1.24,1.23,1.26-1.27-1.27-1.26,1.78-1.78,1.26,1.25,1.27-1.28-1.27-1.26,1.78-1.79,2.86,2.85c.45.45.38,1.1-.03,1.52l-6.23,6.28c-.42.42-1.14.48-1.56.07l-2.83-2.8h0s0,0,0,0Z"/>
          <path class="st4" d="M262.69,447.24l9.57,8.72-6.1,6.1-8.78-9.52,5.31-5.3"/>
          <path id="cp14" data-name="cp1" class="st4" d="M259.52,458.93l5.13,4.73-5.83,5.87-4.79-5.08,5.48-5.52h0s0,0,0,0Z"/>
          <path id="cp15" data-name="cp1" class="st4" d="M274.51,443.84l5.13,4.73-5.83,5.87-4.79-5.08,5.48-5.52h0s0,0,0,0Z"/>
          <path id="cp24" data-name="cp2" class="st4" d="M249.38,461.97l1.7-1.7,1.24,1.23,1.24-1.25-1.27-1.26,1.74-1.74,1.26,1.26,1.24-1.25-1.27-1.26,1.74-1.75,2.86,2.85c.45.44.39,1.09-.02,1.5l-6.1,6.14c-.41.41-1.12.46-1.54.05l-2.83-2.81h0s0,0,0,0Z"/>
          <path id="cp25" data-name="cp2" class="st4" d="M264.37,446.88l1.7-1.7,1.24,1.23,1.24-1.25-1.27-1.26,1.74-1.74,1.26,1.26,1.24-1.25-1.27-1.26,1.74-1.75,2.86,2.85c.45.44.39,1.09-.02,1.5l-6.1,6.14c-.41.41-1.12.46-1.54.05l-2.83-2.81h0s0,0,0,0Z"/>
          <path d="M262.35,453.38c-.93-.85.34-2.14,1.22-1.23l2.19,2.17-1.22,1.23-2.19-2.17"/>
          <path id="cp34" data-name="cp3" d="M257.99,464.11c-.87-.85.3-2.06,1.17-1.18l1.69,1.68-1.17,1.18-1.69-1.68"/>
          <path id="cp35" data-name="cp3" d="M273.03,448.97c-.87-.85.3-2.06,1.17-1.18l1.69,1.68-1.17,1.18-1.69-1.68"/>
        </g>
      </g>
      <g id="castle3" data-name="castle">
        <path class="st6" d="M332.22,288.62c.27-11.07,8.13-13.69,8.18-13.73.06-.04,8.48,2.82,8.46,13.83l-16.64-.1"/>
        <path class="st0" d="M325.45,275.11l-1.37,12.72,8.3.02c.08-10.53,7.97-12.28,8.16-12.24.18-.01,8,2.33,8.21,12.24h8.32l-1.5-12.82-30.12.08h0s0,0,0,0Z"/>
        <path class="st0" d="M323.52,287.88h33.98c.72,0,1.3.71,1.3,1.57s-.59,1.57-1.3,1.57h-33.98c-.72,0-1.3-.7-1.3-1.57s.59-1.57,1.3-1.57Z"/>
        <path class="st0" d="M335.87,287.82c.04-6.64,4.54-8.52,4.56-8.52,0,0,4.7,1.94,4.73,8.52h-9.29"/>
        <path class="st0" d="M324.24,269.81h32.57c.69,0,1.25.64,1.25,1.41s-.56,1.41-1.25,1.41h-32.57c-.69,0-1.25-.63-1.25-1.41s.56-1.41,1.25-1.41Z"/>
        <path class="st0" d="M324.92,272.66h31.16c.66,0,1.19.63,1.19,1.41s-.54,1.41-1.19,1.41h-31.16c-.66,0-1.19-.63-1.19-1.41s.54-1.41,1.19-1.41Z"/>
        <path class="st0" d="M334.99,251.43h2.46v1.75h1.79v-1.79h2.52v1.79h1.8v-1.79h2.52v4.03c0,.63-.51,1.04-1.1,1.04h-8.85c-.59,0-1.14-.48-1.14-1.06v-3.99s0,0,0,0h0Z"/>
        <path class="st0" d="M344.25,256.82l.56,12.94-8.63-.03.57-12.94,7.5.03"/>
        <path id="cp16" data-name="cp1" class="st0" d="M333.73,262.82l.26,6.97h-8.27s.23-6.97.23-6.97h7.78,0,0Z"/>
        <path id="cp17" data-name="cp1" class="st0" d="M355,262.82l.26,6.97h-8.27s.23-6.97.23-6.97h7.78,0,0Z"/>
        <path id="cp26" data-name="cp2" class="st0" d="M324.42,257.76h2.41v1.76h1.76v-1.79h2.47v1.79h1.76v-1.79h2.47s0,4.04,0,4.04c0,.63-.5,1.04-1.08,1.04h-8.66c-.58,0-1.12-.47-1.12-1.05v-3.99s0,0,0,0h0Z"/>
        <path id="cp27" data-name="cp2" class="st0" d="M345.7,257.76h2.41v1.76h1.76v-1.79h2.47v1.79h1.76v-1.79h2.47s0,4.04,0,4.04c0,.63-.5,1.04-1.08,1.04h-8.66c-.58,0-1.12-.47-1.12-1.05v-3.99s0,0,0,0h0Z"/>
        <path d="M339.66,260.91c-.05-1.26,1.76-1.27,1.74,0v3.08h-1.74v-3.08"/>
        <path id="cp36" data-name="cp3" d="M328.98,265.38c0-1.21,1.68-1.24,1.66,0v2.38h-1.66v-2.38"/>
        <path id="cp37" data-name="cp3" d="M350.31,265.38c0-1.21,1.68-1.24,1.66,0v2.38h-1.66v-2.38"/>
      </g>
      <g id="castle31" data-name="castle3">
        <g id="castle4" data-name="castle">
          <path class="st6" d="M439.9,288.62c-.27-11.07-8.13-13.69-8.18-13.73-.06-.04-8.48,2.82-8.46,13.83l16.64-.1"/>
          <path class="st0" d="M446.68,275.11l1.37,12.72-8.3.02c-.08-10.53-7.97-12.28-8.16-12.24-.18-.01-8,2.33-8.21,12.24h-8.32l1.5-12.82,30.12.08h0s0,0,0,0Z"/>
          <path class="st0" d="M448.6,287.88h-33.98c-.72,0-1.3.71-1.3,1.57s.59,1.57,1.3,1.57h33.98c.72,0,1.3-.7,1.3-1.57s-.59-1.57-1.3-1.57Z"/>
          <path class="st0" d="M436.25,287.82c-.04-6.64-4.54-8.52-4.56-8.52,0,0-4.7,1.94-4.73,8.52h9.29"/>
          <path class="st0" d="M447.88,269.81h-32.57c-.69,0-1.25.64-1.25,1.41s.56,1.41,1.25,1.41h32.57c.69,0,1.25-.63,1.25-1.41s-.56-1.41-1.25-1.41Z"/>
          <path class="st0" d="M447.2,272.66h-31.16c-.66,0-1.19.63-1.19,1.41s.54,1.41,1.19,1.41h31.16c.66,0,1.19-.63,1.19-1.41s-.54-1.41-1.19-1.41Z"/>
          <path class="st0" d="M437.13,251.43h-2.46v1.75h-1.79v-1.79h-2.52v1.79h-1.8v-1.79h-2.52v4.03c0,.63.51,1.04,1.1,1.04h8.85c.59,0,1.14-.48,1.14-1.06v-3.99s0,0,0,0h0Z"/>
          <path class="st0" d="M427.87,256.82l-.56,12.94,8.63-.03-.57-12.94-7.5.03"/>
          <path id="cp18" data-name="cp1" class="st0" d="M438.4,262.82l-.26,6.97h8.27s-.23-6.97-.23-6.97h-7.78,0,0Z"/>
          <path id="cp19" data-name="cp1" class="st0" d="M417.12,262.82l-.26,6.97h8.27s-.23-6.97-.23-6.97h-7.78,0,0Z"/>
          <path id="cp28" data-name="cp2" class="st0" d="M447.7,257.76h-2.41v1.76h-1.76v-1.79h-2.47v1.79h-1.76v-1.79h-2.47s0,4.04,0,4.04c0,.63.5,1.04,1.08,1.04h8.66c.58,0,1.12-.47,1.12-1.05v-3.99s0,0,0,0h0Z"/>
          <path id="cp29" data-name="cp2" class="st0" d="M426.43,257.76h-2.41v1.76h-1.76v-1.79h-2.47v1.79h-1.76v-1.79h-2.47s0,4.04,0,4.04c0,.63.5,1.04,1.08,1.04h8.66c.58,0,1.12-.47,1.12-1.05v-3.99s0,0,0,0h0Z"/>
          <path d="M432.46,260.91c.05-1.26-1.76-1.27-1.74,0v3.08h1.74v-3.08"/>
          <path id="cp38" data-name="cp3" d="M443.15,265.38c0-1.21-1.68-1.24-1.66,0v2.38h1.66v-2.38"/>
          <path id="cp39" data-name="cp3" d="M421.81,265.38c0-1.21-1.68-1.24-1.66,0v2.38h1.66v-2.38"/>
        </g>
        <g id="castle5" data-name="castle">
          <path class="st6" d="M439.9,381.5c-.27-11.07-8.13-13.69-8.18-13.73-.06-.04-8.48,2.82-8.46,13.83l16.64-.1"/>
          <path class="st0" d="M446.68,367.99l1.37,12.72-8.3.02c-.08-10.53-7.97-12.28-8.16-12.24-.18-.01-8,2.33-8.21,12.24h-8.32l1.5-12.82,30.12.08h0s0,0,0,0Z"/>
          <path class="st0" d="M448.6,380.76h-33.98c-.72,0-1.3.71-1.3,1.57s.59,1.57,1.3,1.57h33.98c.72,0,1.3-.7,1.3-1.57s-.59-1.57-1.3-1.57Z"/>
          <path class="st0" d="M436.25,380.7c-.04-6.64-4.54-8.52-4.56-8.52,0,0-4.7,1.94-4.73,8.52h9.29"/>
          <path class="st0" d="M447.88,362.69h-32.57c-.69,0-1.25.64-1.25,1.41s.56,1.41,1.25,1.41h32.57c.69,0,1.25-.63,1.25-1.41s-.56-1.41-1.25-1.41Z"/>
          <path class="st0" d="M447.2,365.54h-31.16c-.66,0-1.19.63-1.19,1.41s.54,1.41,1.19,1.41h31.16c.66,0,1.19-.63,1.19-1.41s-.54-1.41-1.19-1.41Z"/>
          <path class="st0" d="M437.13,344.31h-2.46v1.75h-1.79v-1.79h-2.52v1.79h-1.8v-1.79h-2.52v4.03c0,.63.51,1.04,1.1,1.04h8.85c.59,0,1.14-.48,1.14-1.06v-3.99s0,0,0,0h0Z"/>
          <path class="st0" d="M427.87,349.7l-.56,12.94,8.63-.03-.57-12.94-7.5.03"/>
          <path id="cp110" data-name="cp1" class="st0" d="M438.4,355.7l-.26,6.97h8.27s-.23-6.97-.23-6.97h-7.78,0,0Z"/>
          <path id="cp111" data-name="cp1" class="st0" d="M417.12,355.7l-.26,6.97h8.27s-.23-6.97-.23-6.97h-7.78,0,0Z"/>
          <path id="cp210" data-name="cp2" class="st0" d="M447.7,350.64h-2.41v1.76h-1.76v-1.79h-2.47v1.79h-1.76v-1.79h-2.47s0,4.04,0,4.04c0,.63.5,1.04,1.08,1.04h8.66c.58,0,1.12-.47,1.12-1.05v-3.99s0,0,0,0h0Z"/>
          <path id="cp211" data-name="cp2" class="st0" d="M426.43,350.64h-2.41v1.76h-1.76v-1.79h-2.47v1.79h-1.76v-1.79h-2.47s0,4.04,0,4.04c0,.63.5,1.04,1.08,1.04h8.66c.58,0,1.12-.47,1.12-1.05v-3.99s0,0,0,0h0Z"/>
          <path d="M432.46,353.79c.05-1.26-1.76-1.27-1.74,0v3.08h1.74v-3.08"/>
          <path id="cp310" data-name="cp3" d="M443.15,358.26c0-1.21-1.68-1.24-1.66,0v2.38h1.66v-2.38"/>
          <path id="cp311" data-name="cp3" d="M421.81,358.26c0-1.21-1.68-1.24-1.66,0v2.38h1.66v-2.38"/>
        </g>
        <g id="castle6" data-name="castle">
          <path class="st6" d="M403.68,478.18c7.67-7.99,3.99-15.41,3.98-15.48-.01-.07-7.98-4.03-15.77,3.75l11.8,11.73"/>
          <path class="st4" d="M418.05,473.47l-8.06,9.93-5.86-5.88c7.41-7.47,3.1-14.3,2.93-14.41-.12-.13-7.29-4.04-14.47,2.8l-5.86-5.91,10.16-7.97,21.17,21.43h0s0,0,0,0Z"/>
          <path class="st4" d="M410.34,483.83l-23.94-24.11c-.5-.51-1.42-.43-2.03.18s-.7,1.52-.19,2.03l23.94,24.11c.5.51,1.42.43,2.03-.18s.7-1.52.2-2.03Z"/>
          <path class="st4" d="M401.68,475.03c4.69-4.71,2.85-9.22,2.83-9.24,0,0-4.68-1.97-9.38,2.64l6.55,6.59"/>
          <path class="st4" d="M422.65,470.59l-22.95-23.11c-.48-.49-1.33-.44-1.88.11s-.61,1.39-.12,1.88l22.95,23.11c.48.49,1.33.44,1.88-.11s.61-1.39.12-1.88Z"/>
          <path class="st4" d="M420.15,472.11l-21.95-22.11c-.46-.47-1.29-.4-1.84.15s-.62,1.38-.16,1.84l21.95,22.11c.46.47,1.29.4,1.84-.15s.62-1.38.16-1.84Z"/>
          <path class="st4" d="M428.13,450.01l-1.74-1.74-1.24,1.23-1.26-1.27,1.27-1.26-1.78-1.78-1.26,1.25-1.27-1.28,1.27-1.26-1.78-1.79-2.86,2.85c-.45.45-.38,1.1.03,1.52l6.23,6.28c.42.42,1.14.48,1.56.07l2.83-2.8h0s0,0,0,0Z"/>
          <path class="st4" d="M417.77,447.24l-9.57,8.72,6.1,6.1,8.78-9.52-5.31-5.3"/>
          <path id="cp112" data-name="cp1" class="st4" d="M420.94,458.93l-5.13,4.73,5.83,5.87,4.79-5.08-5.48-5.52h0s0,0,0,0Z"/>
          <path id="cp113" data-name="cp1" class="st4" d="M405.95,443.84l-5.13,4.73,5.83,5.87,4.79-5.08-5.48-5.52h0s0,0,0,0Z"/>
          <path id="cp212" data-name="cp2" class="st4" d="M431.08,461.97l-1.7-1.7-1.24,1.23-1.24-1.25,1.27-1.26-1.74-1.74-1.26,1.26-1.24-1.25,1.27-1.26-1.74-1.75-2.86,2.85c-.45.44-.39,1.09.02,1.5l6.1,6.14c.41.41,1.12.46,1.54.05l2.83-2.81h0s0,0,0,0Z"/>
          <path id="cp213" data-name="cp2" class="st4" d="M416.09,446.88l-1.7-1.7-1.24,1.23-1.24-1.25,1.27-1.26-1.74-1.74-1.26,1.26-1.24-1.25,1.27-1.26-1.74-1.75-2.86,2.85c-.45.44-.39,1.09.02,1.5l6.1,6.14c.41.41,1.12.46,1.54.05l2.83-2.81h0s0,0,0,0Z"/>
          <path d="M418.11,453.38c.93-.85-.34-2.14-1.22-1.23l-2.19,2.17,1.22,1.23,2.19-2.17"/>
          <path id="cp312" data-name="cp3" d="M422.46,464.11c.87-.85-.3-2.06-1.17-1.18l-1.69,1.68,1.17,1.18,1.69-1.68"/>
          <path id="cp313" data-name="cp3" d="M407.43,448.97c.87-.85-.3-2.06-1.17-1.18l-1.69,1.68,1.17,1.18,1.69-1.68"/>
        </g>
      </g>
      <g id="quina">
        <path class="st7" d="M325.67,384.82h0c0,4.45,1.7,8.49,4.44,11.42,2.74,2.94,6.51,4.77,10.63,4.77s7.91-1.81,10.63-4.74c2.72-2.92,4.42-6.96,4.42-11.42v-21.59l-30.06-.02-.05,21.59"/>
        <path class="st10" d="M332.57,371.46h0M349.24,371.46h0M340.89,379.47h0M332.57,387.85h0M349.23,387.83h0"/>
      </g>
      <g id="quina1" data-name="quina">
        <path class="st7" d="M325.67,332.66h0c0,4.45,1.7,8.49,4.44,11.42,2.74,2.94,6.51,4.77,10.63,4.77s7.91-1.81,10.63-4.74c2.72-2.92,4.42-6.96,4.42-11.42v-21.59l-30.06-.02-.05,21.59"/>
        <path class="st10" d="M332.57,319.29h0M349.24,319.29h0M340.89,327.3h0M332.57,335.69h0M349.23,335.66h0"/>
      </g>
      <g id="quina2" data-name="quina">
        <path class="st7" d="M283.97,384.82h0c0,4.45,1.7,8.49,4.44,11.42,2.74,2.94,6.51,4.77,10.63,4.77s7.91-1.81,10.63-4.74c2.72-2.92,4.42-6.96,4.42-11.42v-21.59l-30.06-.02-.05,21.59"/>
        <path class="st10" d="M290.86,371.46h0M307.54,371.46h0M299.18,379.47h0M290.86,387.85h0M307.52,387.83h0"/>
      </g>
      <g id="quina3" data-name="quina">
        <path class="st7" d="M367.27,384.82h0c0,4.45,1.7,8.49,4.44,11.42,2.74,2.94,6.51,4.77,10.63,4.77s7.91-1.81,10.63-4.74c2.72-2.92,4.42-6.96,4.42-11.42v-21.59l-30.06-.02-.05,21.59"/>
        <path class="st10" d="M374.16,371.46h0M390.84,371.46h0M382.49,379.47h0M374.16,387.85h0M390.82,387.83h0"/>
      </g>
      <g id="quina4" data-name="quina">
        <path class="st7" d="M325.67,436.53h0c0,4.45,1.7,8.49,4.44,11.42,2.74,2.94,6.51,4.77,10.63,4.77s7.91-1.81,10.63-4.74c2.72-2.92,4.42-6.96,4.42-11.42v-21.59l-30.06-.02-.05,21.59"/>
        <path class="st10" d="M332.57,423.16h0M349.24,423.16h0M340.89,431.17h0M332.57,439.55h0M349.23,439.53h0"/>
      </g>
    </g>
  </g>
</svg>