<?xml version="1.0" encoding="UTF-8"?>
<svg id="Laag_1" xmlns="http://www.w3.org/2000/svg" version="1.1" xmlns:xlink="http://www.w3.org/1999/xlink" viewBox="0 0 760 760">
  <!-- Generator: Adobe Illustrator 29.5.1, SVG Export Plug-In . SVG Version: 2.1.0 Build 141)  -->
  <defs>
    <style>
      .st0 {
        fill: #005430;
      }

      .st1 {
        fill: #fff;
      }

      .st2 {
        fill: none;
      }

      .st3 {
        clip-path: url(#clippath);
      }
    </style>
    <clipPath id="clippath">
      <circle class="st2" cx="380" cy="380" r="379.98"/>
    </clipPath>
  </defs>
  <g class="st3">
    <path id="green" class="st0" d="M-269.86,809.42H1018.4V-49.42H-269.86v858.84Z"/>
    <g id="white">
      <g id="shahada">
        <path class="st1" d="M696.34,291.72c-.09-15.09-5.94-55.73-7.43-69.36-1.48-13.63-2.98-26-2.62-28.9.35-2.79,4.65,3.89,6.93,4.43,1.18-.24.65-4.45-1.49-8.06-1.45-2.45-6.38-11.6-9.37-16.96-1.41-2.54-1.72-4.01-2.4-4.32-.67-.31-6.12,10.68-5.52,11.89,1.49,2.23,2.51,3.3,2.74,7.24.24,3.94,2.27,32.1,4.87,53.45,1.96,16.1,6.25,50.79,6.4,72.36.04,7.04-.74,13.74-1.67,16.54-2.4,4.4-6.16,8.37-20.15,16.55-15.73,9.2-36.71,16.86-45.72,21.99-5.61,3.2-3.75,3.62,1.13,2.23,4.87-1.4,30.05-5.88,42.28-11.05,11.48-4.86,18.94-13,24.59-24.87,6.99-14.68,7.52-27.13,7.42-43.16"/>
        <path class="st1" d="M647.65,177.11c1.22-.47,11.28-.99,13.99-.43-1.78,2.54-13.85,8.18-13.9,9.21.33.7,8.34-1.29,10.86-2.39,1.65-.99,2.75-2.53,3.98-3.81,2.89-3.32,6.31-9.48,5.45-10.25-1.4-1.25-15.12-.47-16.93-.21-1.21.17-4.29,5.68-4.85,7.1-.55,1.41.19,1.25,1.4.78"/>
        <path class="st1" d="M668.21,266.54c2.1-7.1,2.62-15.72-.24-24.8-2.93-9.34-10.22-15.04-15.47-17.95l-.94,8.99s7.37,3.66,12.41,12.88c3.19,5.85,4.52,14.12,2,23.33-.42,2.29,1.22,1.03,2.24-2.45"/>
        <path class="st1" d="M590.27,311.64c1.89-6.4,2.35-14.16-.21-22.33-2.64-8.41-9.2-13.54-13.93-16.16l-.85,8.09s6.63,3.3,11.17,11.59c2.88,5.26,4.07,12.72,1.81,21.01-.38,2.05,1.09.92,2.02-2.21"/>
        <path class="st1" d="M319.68,189.18c3.03,5.55,4.29,13.41,1.91,22.16-.4,2.17,1.14.98,2.13-2.33,1.98-6.74,2.48-14.93-.24-23.56-2.79-8.88-9.71-14.28-14.7-17.05l-.88,8.54s7,3.48,11.78,12.23"/>
        <path class="st1" d="M137.02,192.05c2.55,5.97,2.72,14.04-1.4,22.54-.8,2.14,1.15,1.12,2.78-2.07,3.34-6.53,5.21-14.7,3.52-23.72-1.74-9.28-8.71-15.61-13.93-19.03l-2.37,8.48s7.37,4.39,11.39,13.81"/>
        <path class="st1" d="M187.51,325.58c3.24-6.01,4.59-10.06,6.03-17.17,1.26-6.26,1.34-13.5.89-20.86,9.69-3.95,21.24-10.51,25.12-10.99-2.65,9.11,3.68,18.95,16.48,17.66.98,10.31,1.82,19.36,2.33,24.73,1.04,11.01.89,24.87.85,27.28-.04,2.42,1.71,1.96,3.51-3.43,2.4-7.22,3.14-26.08,2.27-38.55-.21-3.12-.56-7.33-.99-12.12,8.3-3.84,9.68-11.25,12.78-14.41,2.8,9.81,18.21,11.14,22.96,9.04,5.9-2.61,7.83-7.29,9.35-18.17,1.52-10.87-2.91-15.25-4.49-16.44-.16,1.32-4.01,14.1-4.01,14.1,0,0,3.66,3.86,3.84,5.76-2.98,2.7-9.26,2.86-14.54,1.15-5.28-1.72-6.9-4.88-6.59-7,.31-2.13,2.29-4.06,2.36-6.66.06-2.59-1.18-1.84-3.3.45-2.11,2.3-3.48,4.36-6.4,9.3-2.39,4.03-6.27,8.96-13.12,10.36-1.13-11.85-2.42-24.45-3.28-32.37-.45-4.18-4.96-40.3-5.28-44.34-.28-3.52-.8-7.67-.71-9.62.09-1.55,1.06-.94,2.56.69,1.51,1.62,4.15,4.45,4.6,4.23,1.54-.75-.04-5.45-2.05-9.65-2.01-4.22-8.86-20.85-10.3-21.53-.74-.35-5.37,9.89-5.64,11.9.72,1.26,2.59,3.24,2.66,8.88.02,1.57,1.04,16.41,2.44,30.43,1.23,12.39,2.85,24.14,3.01,25.5,1.12,9.45,2.47,22.78,3.76,35.88-7.43-1.41-9.41-6.31-9.24-9.11.19-3.15,1.61-6.71.93-7.52-1.43-.86-9.95,3.9-21.82,9.02-3.34,1.44-7.1,2.98-11.08,4.44-1.04-8.93-2.4-17.42-2.95-23.91l-.07-.72c7.81-.5,14.2-4.45,17.11-8.2,3.63-4.69,6.18-14.35,6.42-21.76.25-7.41-5.73-20.96-7.16-25.26-1.43-4.31-2.18-7.3-2.3-8.79-.13-1.49,3.23,1.73,5.34,2.36,1.43.29.94-2.81-.81-4.94-1.74-2.12-11.13-16.38-11.79-15.38-.4.59-4.17,11.07-4.41,12.68,1.48.98,3.21,3.68,3.34,6.26.13,2.58,2.2,13.95,4.49,20.26,2.3,6.31,7.2,18.43,7.51,21.76-3.5,2.47-11.47,6.65-19.36,6.4-1.35-11.05-3.06-23.88-3.97-32.97-.35-3.51-.38-7.26-.32-9.22.04-1.55,1.16-1.34,2.7.26,1.54,1.59,3.91,3.91,4.4,3.75,1.06-.35.14-3.87-1.96-8.05s-10.43-21.86-11.9-22.52c-.74-.34-4.47,9.59-4.71,11.62.74,1.25,2.65,3.19,2.84,8.83.15,4.49,2.34,26.5,4.21,45.89-7.8-4.03-10.46-9.8-11.43-19.48-.67-6.75-.74-19.18-3.15-29.58-1.36-5.88-4.21-11.85-7.6-15.03-.81,1.95-4.41,13.95-4.41,13.95,1.18,3.44,4.83,15.04,4.71,25.09-.12,10.05-.91,19.87-12.17,26.64-11.25,6.77-28.13,4.08-32.3-6.48-4.17-10.57,5.1-37.07,4.98-43.33-.13-6.26-1.24-7.12-3.86-6.09-2.61,1.03-7.96,7.06-12.56,16.88-4.6,9.82-6.65,21.98-9.26,30.25-2.61,8.27-6.78,16.65-13.24,16.18-6.46-.46-9.94-6.37-11.93-14.92-1.99-8.56-.77-19.83-.23-22.72,1.35-7.24-1.78-5.75-3.69,5.61-1.18,7.01-2.36,18.2,1.81,29.91,4.16,11.71,11.25,16.08,17.47,14.58,6.22-1.49,11.68-16.07,13.61-22.62,1.93-6.54,10.54-35.59,15.42-37.01.68,3.27-3.79,13.83-5.22,26.17-1.43,12.34,1.9,28.92,17.57,31.79,15.67,2.87,26.3-7.29,30.15-14.34,3.86-7.06,5.66-14.47,6.09-18.2.5,9.47,6.96,24.25,19.51,28.47l1.29.37c.77,7.75,2.03,17.87,3.19,28.49-2.44.75-4.91,1.44-7.36,2.02-.31-1.02-.66-2.02-1.08-2.93-3.83-8.24-10.17-15.83-18.96-15.31-8.97.53-18.76,12.51-18.33,21.26.28,5.88,3.52,10.71,15.3,11.95,5.38.57,11.09-.03,16.99-1.32.83,2.43,1.36,4.85,1.42,7.05-3.73,4.36-34.62,27.66-57.74,29.9-23.12,2.24-30.18-9.89-30.41-22.05-.17-9.26,5.39-18.5,9.31-24.89,5.6-4.1,10.19-9.22,13.1-13.17.79.49,1.54.94,2.25,1.35,2.76,1.61,3.87,4.01,3.87,4.01.51-.78,2.89-5.06,1.96-7.15-.43-.51-2.52-1.8-5.03-3.33,2.64-6.58,2.6-13.14-.82-14.6-3.82-1.63-8.81,2.9-10.97,5.65-1.12,1.44-1.54,3.06-1.55,4.43-.02,1.76.81,3.35,2.86,4.76,2.04,1.39,3.93,2.65,5.71,3.79-5.05,5.31-17,13.08-24.3,17.65-.27-.67-1.34.04-2.78,1.73l-1.98,1.22c-5.83,3.57-19.81,11.4-22.56,13.32-2.75,1.92-1.03,1.57,0,1.15,1.94-1.05,4.49-2.32,7.35-3.72,4.05-1.98,8.77-4.23,13.38-6.48-1.36,2.31-2.78,5.02-4.03,7.97-5.5,12.99-14.39,39.91,4.84,56.1,18.4,15.5,50.04,9.61,76.27-6.51,26.24-16.12,31.9-21.78,36-27.64M101.98,261.55c-.91-.67-1.04-1.57-.29-2.19.94-.8,2.15-1.57,3.52-1.82,2.91-.54,4.07,2.8,2.9,8.01-2.21-1.35-4.49-2.77-6.13-3.99M162.15,283.51c-13.36.06-13.97-2.36-13.72-3.91.25-1.54,4.41-5.78,9.68-2.99,2.23,1.19,4.74,3.66,7.07,6.78-1.03.08-2.04.12-3.03.12M121.24,353.75c-25.24,6.89-49.86-3.78-51.35-24.91-1.14-16.13,4.74-28.29,8.54-35.14,3.62-1.79,7.04-3.53,9.86-5.09-6.61,10.64-10.47,24.89-7.89,36.96,2.92,13.67,14.82,21.96,34.96,19.29,19.94-2.64,46.9-21.61,54.55-28.76,2.33-2.58,3.87-4.91,5.96-9.65.86-1.95,2.07-4.52,2.52-7.42.29-1.89.45-3.91.49-5.97,2.34-.7,4.69-1.48,7.06-2.32.8,8.66,1.4,17.19,1.43,24.57-12.42,14.57-40.9,31.57-66.14,38.46"/>
        <path class="st1" d="M562.68,298.35c-.85-14.14-2.92-39.73-4.07-52.71-1.02-11.55-3.02-27.39-4.49-41.32-.37-3.51-.41-6.87-.37-8.82.04-1.54,1.59-.95,3.13.64s3.96,3.58,4.41,3.34c1.51-.78-.3-4.65-2.42-8.82-2.12-4.17-10.53-21.43-11.99-22.09-.74-.33-4.69,10-4.91,12.03.75,1.25,2.68,3.18,2.89,8.82.21,5.64,3.06,31.59,5.12,52.58,1.43,14.59,3.27,38.39,4.61,56.33-.07.03,1.27,17.06,1.41,18.98.82,11.02.4,24.88.31,27.29-.09,2.42,1.68,2,3.58-3.37,1.93-5.48,3.03-17.71,3.18-28.75l-.4-14.13Z"/>
        <path class="st1" d="M491.02,248.86c-2.59.79-6.65-1.95-6.34-7.68.28-5.18,2.5-10.04,3.36-13.1,1.18-4.23,1.18-8.3.19-5.99-2.24,5.16-6.42,15.14-7.28,21.91-.87,6.77,1.33,11.14,4.31,12.63,3.72,1.87,6.39-1.09,8.21-5.46,1.74-4.18,1.41-9.06.2-7.91-1.01,1.2-1.39,5.22-2.65,5.61"/>
        <path class="st1" d="M453.82,269.71c1.37-3.65,1.69-7.22.64-5.26-2.38,4.39-6.84,12.88-8.14,18.78-1.3,5.9.28,9.89,2.79,11.4,3.13,1.89,5.7-.53,7.65-4.25,1.86-3.56,1.96-7.87.81-6.94-.99.99-1.64,4.49-2.77,4.75-2.35.52-5.7-2.16-4.97-7.2.66-4.53,3-8.65,4-11.29"/>
        <path class="st1" d="M345.5,346.64c2.29-3.72,3.43-7.58,1.84-5.63-3.55,4.36-10.28,12.81-12.99,19.02-2.71,6.2-1.84,10.86.57,12.98,3.01,2.65,6.36.47,9.29-3.22,2.81-3.54,3.86-8.24,2.39-7.44-1.29.9-2.76,4.61-4.06,4.68-2.67.13-5.75-3.43-3.86-8.78,1.71-4.84,5.16-8.9,6.82-11.6"/>
        <path class="st1" d="M535.41,238c-2.63.66-6.52-2.29-5.87-8,.59-5.16,3.11-9.89,4.14-12.9,1.43-4.17,1.68-8.23.55-5.98-2.54,5.05-7.31,14.79-8.58,21.51-1.27,6.72.65,11.19,3.54,12.83,3.61,2.04,6.45-.77,8.52-5.04,1.99-4.08,1.96-8.97.67-7.88-1.08,1.15-1.69,5.14-2.98,5.46"/>
        <path class="st1" d="M534.61,308.13c3.6,2.04,6.45-.77,8.52-5.04,1.98-4.08,1.96-8.97.68-7.88-1.09,1.15-1.7,5.14-2.98,5.46-2.63.66-6.53-2.29-5.87-8,.59-5.16,3.1-9.89,4.14-12.9,1.43-4.17,1.68-8.24.55-5.98-2.55,5.05-7.31,14.79-8.58,21.5-1.27,6.72.65,11.19,3.54,12.84"/>
        <path class="st1" d="M580.61,218.55c1.73-5.04,2.03-9.96.66-7.24-3.08,6.1-8.85,17.89-10.39,26.03-1.54,8.13.8,13.54,4.3,15.53,4.36,2.47,7.8-.93,10.32-6.09,2.4-4.94,2.36-10.86.82-9.54-1.31,1.39-2.05,6.22-3.61,6.6-3.18.8-7.89-2.77-7.1-9.68.72-6.24,3.76-11.97,5.01-15.61"/>
        <path class="st1" d="M212.98,305.7c2.83-6.14,3.86-12.29,1.78-9.02-4.67,7.33-13.46,21.51-16.47,31.56-3.01,10.05-.78,17.11,3.36,20.01,5.16,3.6,9.94-.3,13.77-6.51,3.67-5.95,4.4-13.4,2.28-11.91-1.82,1.59-3.4,7.59-5.4,7.91-4.11.65-9.57-4.36-7.66-12.97,1.73-7.77,6.3-14.63,8.34-19.07"/>
        <path class="st1" d="M609.92,366.58c2.17-1.78,21.06-11.95,24.54-14.02,0,0,3.56-5.8,2.49-6.42-1.07-.62-7.97,5.65-12.26,5.83-4.29.17-10.17-2.98-10.36-5.56.56-1.95,5.72-4.88,7.59-5,1.87-.11,1.56,4.14,2.19,4.66.62.51,3.11-2.93,3.42-4.37.31-1.43.05-7.43-3.36-6.57-5.41,1.37-13.56,11.39-14.49,14.55-.94,3.16,4.1,5.91,7.78,7.41-.31.12-3.06,1.44-4.8,3.15,0,0-1.87,2.09-2.74,6.34"/>
        <path class="st1" d="M545.51,379.18c2.17-1.78,21.06-11.95,24.54-14.02,0,0,3.56-5.8,2.49-6.42-1.07-.62-7.97,5.65-12.26,5.83-4.29.17-10.17-2.98-10.36-5.56.56-1.95,5.72-4.88,7.59-4.99,1.87-.12,1.56,4.13,2.19,4.64.62.52,3.11-2.93,3.42-4.36.31-1.43.04-7.43-3.36-6.57-5.41,1.37-13.56,11.39-14.49,14.55-.94,3.15,4.1,5.9,7.77,7.4-.31.12-3.05,1.43-4.79,3.15,0,0-1.87,2.09-2.74,6.34"/>
        <path class="st1" d="M400.42,196.81c1.69,1.97,12.79,16.07,21.48,24.93,8.69,8.87,23.58,23.22,34.53,33.06,2.12,1.91,4.36,3.97,6.65,6.12,2.76,21.19,5.95,48.16,7.29,59.31,1.32,10.98,1.52,24.85,1.54,27.26.02,2.42,1.76,1.92,3.42-3.5,2.22-7.28,2.47-26.14,1.3-38.59-.73-7.69-2.45-22.1-4.12-35.39,6.46,6.38,12.57,12.72,16.68,17.46,7.56,8.7,13.93,15.27,17.8,24.62,2.74,6.62,2.47,11.89,3.59,12.93.97.9,2.05-7.02.85-14.7-1.94-12.47-4.61-17.76-20.62-35.57-6.11-6.81-13.3-13.92-20.33-20.57-.27-2.05-.52-3.95-.74-5.64-.56-4.17-5.98-40.17-6.41-44.21-.36-3.51-1-7.65-.95-9.6.04-1.56,1.03-.95,2.58.64,1.54,1.58,4.25,4.36,4.71,4.11,1.51-.78-.17-5.43-2.29-9.61-2.11-4.17-9.39-20.64-10.86-21.3-.74-.33-5.1,10-5.33,12.02.76,1.25,2.68,3.19,2.89,8.82.06,1.57,1.45,16.38,3.21,30.37,1.55,12.36,3.47,24.08,3.67,25.43v.11c-7.24-6.61-13.63-12.23-17.5-15.75-9.06-8.23-29.06-27.77-29.86-30.69-.18-.92,1.37-.36,4.23.1,2.87.46,5.41,1.44,4.96.03-.21-.66-1.31-2.3-4.04-3.99-2.74-1.69-9.75-6.08-14.96-9.18-5.23-3.1-7.81-5.7-8.89-4.96-.53.37-.06,10.98.25,12.31,1.31.11,3.6,1.65,5.29,3.62"/>
        <path class="st1" d="M414.69,177.72c2.14-.47,12.31-.21,16,.56-1.54,1.07-11.94,6.33-14,7.58-2.04,1.25-2.56,1.98-1.53,1.86,2.98-.83,9.7-1.86,12.91-3.53,3.03-1.42,8.21-8.35,10.22-10.94,2-2.58,2-3.88,1.49-4.57-2.05-1.12-15.3-2.24-21.69-.65-1.77,1.2-5.23,7.59-5.74,8.92-.51,1.34.19,1.25,2.33.78"/>
        <path class="st1" d="M471.22,176.88c1.73-.38,9.92-.17,12.89.45-1.24.87-9.62,5.1-11.27,6.12-1.66,1-2.07,1.59-1.24,1.49,2.4-.66,7.82-1.49,10.41-2.85,2.44-1.15,6.61-6.73,8.23-8.81,1.61-2.09,1.61-3.12,1.2-3.68-1.65-.91-12.32-1.81-17.47-.53-1.43.96-4.21,6.12-4.62,7.19-.42,1.07.15,1,1.87.62"/>
        <path class="st1" d="M517.16,176.29c1.73-.38,9.92-.17,12.88.45-1.24.87-9.61,5.1-11.27,6.11-1.65,1.01-2.06,1.6-1.24,1.5,2.4-.66,8.24-1.5,10.83-2.85,2.45-1.15,5.34-6.73,6.96-8.82,1.62-2.08,1.62-3.12,1.2-3.67-1.65-.91-11.48-1.81-16.62-.54-1.43.97-4.21,6.12-4.63,7.2s.15,1,1.88.62"/>
        <path class="st1" d="M488.5,198.67c-2.72,4.28.69,7.74,1.93,11.2-1.68,1.53-4.26.13-5.12-1.21-1.83-2.76-1.22-8.38-3.38-9.25-.55,1.52-.91,3.2-.91,3.2,0,0,1.64,3.85,1.23,6.39-.26,1.54-1.62,3.33-3.41,3.37-4.78.12-2.42-6.95-4.27-10.96-.38.98-.65,2.03-1.09,2.95.34,1.04.52,2.51.58,3.35.11,1.68-.02,3.49.26,4.92.4,2.03,1.52,3.37,3.24,3.5,3.57.28,5.19-2.61,5.73-4.98.62,2.42,5.33,5.08,7.65,2.11,3.07-3.91.62-7.27-.96-10.95-1.14-2.72-.81-4.51-1.49-3.66"/>
        <path class="st1" d="M354.47,187.31c.25,1.76,1.15,2.97,2.63,3.15,3.05.39,4.6-2.04,5.17-4.05.4,2.11,4.35,4.59,6.49,2.13,2.83-3.25.87-6.24-.31-9.48-.85-2.4-.48-3.92-1.11-3.22-2.55,3.57.23,6.7,1.14,9.74-1.52,1.25-3.67-.06-4.36-1.25-1.45-2.45-.66-7.27-2.47-8.11-.55,1.29-.94,2.72-.94,2.72,0,0,1.23,3.38.75,5.55-.29,1.32-1.54,2.81-3.1,2.77-4.11-.09-1.75-6.09-3.16-9.61-.36.82-.65,1.73-1.08,2.49.25.92.34,2.18.34,2.92.03,1.45-.17,2.99,0,4.25"/>
        <path class="st1" d="M451.78,353.32c.46-.73,1.47-2.73,1.22-4.1s-1.93-7.07-5.18-8.5c-3.23-1.43-5.68,1.57-7.23,5.73l-1.07-.03c-.25.62-.58,1.54-.83,3.2-.36,2.4-1.04,3.95-5.16,7.69-3.47,3.13-14.69,10.65-21.97,14.19-7.28,3.54-12.53,6.6-14.46,7.53-1.93.91-1.36,1.25.56.68,1.92-.57,11.59-3.69,15.44-5.27,3.85-1.6,8.55-4.23,14.22-7.91,6.3-4.09,10.07-8.18,11.34-11.8.9-2.58,1.13-3.62,1.13-3.62,0,0,2.37,1.4,6.39,2.32,4,.92,5.14.62,5.61-.11M446.35,345.22c1.78.68,2.87,2.62,3.19,3.8-2.05.05-5.81-.99-7.42-1.72.96-1.87,2.64-2.68,4.23-2.08"/>
        <path class="st1" d="M409.11,357.33c-5.59-.78-19.68-2.92-23.12-11.1,2.89-4.22,16.22-9.56,32.91-14.56,16.69-4.99,34.14-11.46,38.83-14.59,1.03-.35,3.02-.24,3.02-.24.84-2.42,5.03-10.91,5.29-12.68-4.67.26-33.42,2.38-46.2,3.06-12.78.69-37.4.52-45.6.43,5.03-3.62,16.97-10.68,34.03-16.7,2.21-.78,4.26-1.49,6.17-2.13,1.42,2.53,2.47,5.03,2.69,7.21,1.09-1.12,1.9-4.82,1.63-8.62,9.95-3.18,15.07-4.23,17.28-4.82,1.4-1.81,3.87-9.12,4.24-14.44-1.49-2.71-6.14-6.08-10.28-8.98-5.7-3.98-11.86-7.46-18-5.94-8.39,2.06-10.08,17.48-8.12,20.75.62,1.03,2.1,2.86,3.85,5.12-6.13,2.41-12.55,5.25-18.2,8.22-12.59,6.63-26.65,13.89-30.75,20.87l-1.18.57c-.33.66-2.92,11.46-3.3,12.62,2.62-.09,22.18-.05,35.8-.48,13.61-.43,25.52-.87,30.18-.87-6.9,1.63-25,8.36-30.2,12.31-5.2,3.97-8.47,9.99-8.56,20.33-4.85-1.9-13.86-6.24-21.54-16.63-8.56-11.58-6.79-23.49-10.22-39.11-4.98-22.68-15.61-41.82-22.23-47.68-2.23,8-2.52,14.04-2.52,14.04,0,0,8.3,18.34,12.5,30.05,4.2,11.71,7.79,23.25,7.61,25.83-3.46,7.58-23.93,23.47-40.99,32.77-16.18,8.82-30.43,9.77-35.48,3.49-.99-1.23-1.67-2.68-2.05-4.32,2.2-1.03,4.4-2.06,6.66-3.09,14.55-6.63,40.38-20.57,46.43-27.89,6.53-8.87,6.44-21.36,2.61-28.51-3.81-7.14-9.8-15.42-10.26-18.34-.36-1.38,3.89.56,6.39.69,1.22-.09.61-1.73-2-4.31-2.09-2.06-10.15-8.74-13.23-11.35-.77-.66-1.35-.4-1.51.3-.6,2.67-1.83,8.38-2.3,11.2l.33,1.42c.89.53,1.91,1.12,2.4,2.59.7,2.09,3.14,7.93,7.14,15.29,4.01,7.36,9.81,15.49,10.37,19.59-4.71,6.01-28.48,18.81-51.62,29.36,1.43-4.44,3.69-9.45,6.68-15.03.85-.94,1.63-2.11,2.35-3.42,2.31-4.22,2.53-9.38,1.13-8.29-1.2,1.16-2.06,5.34-3.43,5.63-2.81.58-6.76-2.7-5.76-8.7.9-5.41,3.79-10.3,5.04-13.43,1.73-4.33,2.21-8.61.89-6.28-2.95,5.2-8.49,15.27-10.19,22.3-1.69,7.03.11,11.83,3.07,13.69,1.11.71,2.17.93,3.18.79-2.03,3.86-4.54,8.61-6.37,14.26-9.31,4.17-18.36,7.89-25.86,10.57-26.95,9.65-46.15,15.33-59.58,19.55l-.53.24c.99-3.19.85-5.92-.2-5.1-1.2,1.16-2.06,5.35-3.43,5.63-2.81.58-6.76-2.7-5.77-8.7.9-5.41,3.8-10.29,5.05-13.42,1.73-4.32,2.2-8.61.89-6.28-2.96,5.2-8.49,15.27-10.19,22.3-1.7,7.03.1,11.83,3.07,13.69,3.69,2.32,6.84-.53,9.26-4.93l.85-1.81c.84,0,2.25-.2,4.37-.67,6.16-1.38,21.54-3.62,42.7-6.38,15.67-2.04,26.48-6.34,36.94-11.13-.05,1.16-.06,2.33,0,3.55.57,14.36,9.98,18.41,22.85,15.72,12.41-2.61,29.72-13.99,40.1-21.67,10.82-8,17.06-15.16,18.65-17.65,2.89-6.12,3.68-12.87,3.87-16.06.94,8.78,1.71,20.93,10.01,31.35,7.65,9.59,23.31,22.97,52.78,23.34.1-3.51-1.31-14.45-1.31-14.45M407.16,268.36c4.22-4.73,13.22-1.64,19.98,4.36-3.46.81-8.16,2.26-13.35,4.11-3.08-3.72-6.52-7.3-6.63-8.48"/>
        <path class="st1" d="M241.49,203.45c1.91-.87,7.77-3.51,14.08-7.18,6.3-3.65,12.21-8.07,15.11-11.01,1.11-1.13,2.1-2.01,2.73-3.06,1.89.78,3.19,1.59,4,1.91,1.22.47,2.85,1.15,3.91-2.32,1.05-3.47-.35-5.71-2.41-8.38-1.74-2.24-4.51-5.61-6.76-6.45-1.91-.71-2.81,3.54-2.52,3.44h1.27l.25.12c-2.62,1.32-4.65,5.44-4.86,6.89-.21,1.57.09,2.73,3.85,3.7l1.51.45c-3.14,3.72-8.99,7.57-12.98,10.29-5.66,3.88-13.69,8.73-15.97,10.12-2.29,1.39-2.09,1.83-1.21,1.49M275.49,176.13l.2-1.86c2.65,3.02,4.61,6.6,4.41,7.11-1.22.1-2.73-1.03-5.38-2.16.29-.9.54-1.89.76-3.1M267.89,176.13c-.02-.57,1-2.14,3.16-3,2.15-.87,3.11,1.55,3.29,4.49l-.64,1.18-1.94-.67c-2.05-.6-3.44-.94-3.87-2"/>
        <path class="st1" d="M382.59,260.23c3.11-2.05,11.64-8.21,16.48-12.25,3.37-2.81,7.32-6.94,10.01-10.43,1.69,1.09,3.26,2.06,4.69,2.9,2.76,1.61,3.87,4.01,3.87,4.01.51-.78,2.89-5.07,1.96-7.15-.56-.68-3.95-2.66-7.42-4.79,1.76-3.95,4.18-10.78.71-13.18-2.97-2.03-7.97,1.33-10.29,5.69-1.91,3.61-2.16,6.67,1.49,9.18,1.03.71,2.01,1.37,2.98,2.01-3.68,4.03-10.46,9.99-15.29,14.04-5.99,5.02-11.66,9.94-12.65,11.11l-.29.46c-1.31-3.65-.95-5.9-1.93-4.69-4.2,6.59,1.06,11.92,2.98,17.25-2.59,2.35-6.55.19-7.88-1.86-2.83-4.26-1.89-12.9-5.2-14.23-.85,2.33-1.41,4.93-1.41,4.93,0,0,2.52,5.92,1.88,9.83-.4,2.36-2.49,5.13-5.24,5.18-7.36.19-3.73-10.69-6.57-16.86-.58,1.51-.99,3.13-1.68,4.53.52,1.62.81,3.87.88,5.17.19,2.58-.02,5.36.41,7.58.61,3.12,2.34,5.19,4.99,5.38,5.49.45,7.99-4.01,8.82-7.65.94,3.72,8.21,7.81,11.78,3.25,4.73-6.03.94-11.19-1.47-16.86l-.29-.74c.34.12,1.6-.43,3.67-1.8M404.05,226.29c1.82-3.37,5.65-3.66,6.8-1.89.91,1.41.99,4.15-.38,7.05-3.38-2.12-6.39-4.2-6.41-5.15"/>
        <path class="st1" d="M262.86,238.77c-6.46-.46-9.94-6.38-11.93-14.93-1.99-8.55-.77-19.83-.23-22.72.54-2.89-2.51-1.4-3.69,5.61-1.18,7-2.36,18.19,1.81,29.91,4.16,11.7,11.25,16.07,17.47,14.58,6.21-1.49,11.68-16.07,13.61-22.62,1.93-6.55,10.54-33.24,15.42-34.68.68,3.27-3.79,11.48-5.22,23.83-1.42,12.34,1.05,28.53,16.72,31.4,15.67,2.87,26.3-7.29,30.15-14.35,3.86-7.05,5.66-14.47,6.09-18.2.5,9.47,6.96,24.26,19.51,28.48,12.13,4.07,21.39.34,25.48-4.94,3.63-4.69,6.59-14.35,6.85-21.76.25-7.4-6.15-20.95-7.58-25.26-1.43-4.3-2.18-7.29-2.3-8.78-.12-1.49,3.24,1.73,5.35,2.36,1.43.29.93-2.81-.81-4.94-1.74-2.12-11.14-16.38-11.8-15.38-.4.59-4.17,11.08-4.41,12.69,1.49.98,3.21,3.68,3.34,6.26.12,2.58,2.61,13.95,4.91,20.26s6.77,18.43,7.09,21.76c-4.47,3.15-14.55,7.17-24.12,3.1-9.57-4.08-12.62-9.99-13.68-20.56-.67-6.75-.74-19.18-3.15-29.58-1.36-5.88-4.21-11.85-7.61-15.02-.8,1.95-4.41,13.95-4.41,13.95,1.18,3.44,4.83,15.04,4.72,25.09-.13,10.04-.92,19.87-12.18,26.64-11.25,6.77-27.28,4.07-31.45-6.49-4.17-10.56,5.1-34.33,4.98-40.58-.13-6.26-1.25-7.12-3.86-6.09-2.61,1.03-7.96,7.06-12.56,16.88-4.6,9.82-6.65,19.63-9.26,27.9-2.61,8.27-6.78,16.65-13.24,16.19"/>
        <path class="st1" d="M75.25,202.14c7.95-.58,14.67-6.6,16.41-8.21,1.74-1.61,2.68-4.02,1.43-3.1-9.2,8.21-21.51,8.44-22.2,7.06.31-1.38,3.55-3.62,8.28-6.77,2.87-1.92,5.43-3.72,7.34-6.26l.52.09c3.5.77,7.54,2.3,8.78,1.07,2.01-1.98,2.28-5.23.1-8.73-1.84-2.97-6.14-5.74-9.87-7.74-3.72-1.99-4.45,1.19-4.92,2.32-.46,1.05-.27,1.95.52,1.98-1.2,1.63-2.05,3.74-2.37,5.48-.2,1.12-.04,2.04.42,2.8.13.21.82,1.06,2.13,1.56l1.62.5c-2.79,2.57-6,4.59-7.68,5.61-3.04,1.84-6.65,5.05-7.77,8.38-1.12,3.33-.69,4.54,7.27,3.97M89.3,178.69l.31-1.7v-1.09c2.52,1.83,6.55,5.31,6.3,7.39-1.6-.36-4.64-1-7.53-1.75.37-.87.67-1.82.92-2.86M81.83,179.22c-1.85-1.48-.05-2.95,1.6-3.9,2.12-1.23,3.36-.21,4.45,3-.38.92-.91,1.82-1.54,2.68-1.65-.51-3.98-1.33-4.5-1.77"/>
        <path class="st1" d="M99.1,291.94c-2.29,1.98-3.17,8.44-2.71,8.82.46.39,7.61,2.8,8.72,3.32l.51-1.94c3.4,3.06,7.17,18.3,8.01,18.35.84.04,2.05-1.73,2.85-5.77.73-3.76,1.47-9.37,2.23-13.95.71-4.19,1.82-6.58,4.34-7.06,2.52-.47,4.39,2.76,5.04,4.96,0,0,1.77-4.22,2.14-6.85-.42-1.38-4.34-6.59-7.56-4.86-3.22,1.73-5.23,9.03-5.88,13.6-.65,4.56-1.16,10.21-1.95,11.12-.83-3.89-3.49-10.86-6.71-14.78-3.61-4.39-7.84-6-9.05-4.95"/>
        <path class="st1" d="M68.63,284.15c2.98-.82,9.7-1.85,12.91-3.53,3.03-1.42,8.2-8.35,10.21-10.94,2-2.58,2.01-3.88,1.5-4.57-2.05-1.12-15.3-2.24-21.69-.65-1.76,1.19-5.22,7.58-5.73,8.92-.52,1.33.19,1.25,2.33.78,2.14-.48,12.31-.22,15.99.55-1.53,1.08-11.93,6.33-13.99,7.58-2.05,1.25-2.56,1.98-1.54,1.85"/>
        <path class="st1" d="M684.58,321.15c-.31-7.75-4.1-19.64-18.53-37.89-4.98-6.3-11.99-14.5-19.38-22.9-.2-2.86-.41-5.48-.59-7.73-.97-11.56-4.25-35.14-5.66-49.08-.35-3.52-.37-7.26-.32-9.21.05-1.55,1.17-1.34,2.71.25,1.54,1.59,3.91,3.91,4.4,3.76,1.05-.36.14-3.88-1.96-8.05-2.09-4.18-10.01-21.08-11.46-21.74-.75-.33-4.48,9.59-4.71,11.62.74,1.25,2.65,3.19,2.84,8.83.2,5.64,3.6,38.95,5.56,59.94l.11,1.17c-11.05-12.34-21.45-23.58-25.74-28.14-.74-.79-1.56-1.69-2.43-2.65-.7-5.61-1.34-10.97-1.78-15.38-.36-3.51-.38-7.26-.32-9.21.04-1.55,1.16-1.34,2.7.26,1.54,1.59,3.91,3.91,4.4,3.75,1.05-.36.14-3.88-1.96-8.05-2.09-4.18-10.34-21.47-11.81-22.13-.74-.33-4.65,10.38-4.88,12.4.75,1.25,2.66,3.19,2.85,8.84.07,2.4.7,9.66,1.53,18.83-7.32-8.7-14.49-17.82-15-19.67-.18-.91,1.37-.35,4.23.11,2.85.46,5.53,1.32,5.07-.1-.22-.66-1.31-2.29-4.04-3.99-2.74-1.69-9.75-6.08-14.96-9.17-5.23-3.1-7.81-5.71-8.89-4.96-.53.37-.06,10.99.25,12.31,1.31.12,3.74,1.09,5.29,3.16,1.56,2.07,11.55,16.07,19.45,25.54,2.27,2.73,5.83,6.95,10,11.83.82,8.73,1.67,17.74,2.38,25.27,1.6,17.18,7.37,62.5,7.42,77.22-4.25,3.99-12.95,9.56-21.91,9.67-8.95.11-13.86-2.24-17.47-8.9-1.11-2.06-2.15-4.14-3.18-6.01-2.44-4.46-7.88-6.97-13.13-5.74l-.8.21-1.43.69c-3.55,1.86-7.23,4.98-10.82,9.81-6.21,8.39-10.18,17.49-14.77,25.37-4.79,8.21-8.46,13.71-16.86,12.4-5.91-.93-10.4-6-13.17-12.24,7.77-5.38,13.42-12.4,17.55-22.12,5.38-12.64,7.29-26.89,6.81-42.91-.46-15.08-7.33-50.56-9.15-64.15-1.81-13.6-4.41-24.77-4.11-27.67.28-2.8,4.74,3.8,7.03,4.29,1.17-.26.54-4.47-1.68-8.03-1.51-2.42-6.27-13.42-9.39-18.72-1.47-2.51-1.82-3.96-2.5-4.26-.67-.31-5.87,10.79-5.24,11.99,1.54,2.2,2.59,3.24,2.91,7.18.33,3.94,3.89,32.83,7,54.12,2.34,16.06,7.52,45.23,8.19,66.79.22,7.04-.78,12.09-1.65,14.91-2.23,4.32-5.88,9.12-18.67,18.23-1.98-12.87.17-23.33-1.7-24.3-2.11.23-2.45,6.23-2.69,13.63-.12,3.42.03,8.15.67,13.24-15.72,10.5-36.48,20.07-46.23,25.18-5.72,3-3.66,3.7,1.18,2.2,4.84-1.5,31.45-8.48,45.66-15.95l1.53-.85c.72,2.5,1.6,4.93,2.67,7.17,4.78,9.93,11.61,15.83,19.01,15.25,6.22-.48,10.73-7.14,14.67-15.08,3.98-8.04,10.7-23.31,17.3-28.99,2.53-2.19,5.15-3.92,7.7-4.96,0,0,4.5-1.5,8.65,1.2,1.49.98,2.6,2.37,3.3,3.93,1.63,3.58,3.57,8.13,7.52,11.94,6.96,6.71,18.16,5.32,26.56,1.42,8.39-3.9,12.67-9.99,14.53-17.23,3.18-12.38,2.67-25.06,2.07-36.33-.7-12.86-2.76-26-3.92-39.92-.38-4.48-1.11-10.7-1.95-17.46,8.18,9.44,16.67,19.02,21.82,24.26,1.78,1.81,3.65,3.82,5.58,5.94,1.54,21.08,3.02,47.45,3.8,58.51.77,11.03.27,24.89.18,27.3-.09,2.41,1.25,2,3.17-3.35,2.58-7.18,4.2-26.01,3.63-38.5-.34-7.42-1.08-20.95-1.88-33.74,6.35,7.54,12.37,15.16,16.29,20.3,6.97,9.13,13.37,19.98,15.61,26.75,2.23,6.78,2.48,8.79,2.92,9.99s2.36-3.74,2.05-11.48"/>
      </g>
      <path id="sword" class="st1" d="M566.87,578.98c-.63-1.8-2.56-3.12-4.86-3.12s-4.23,1.32-4.86,3.12h-21.83c-.22-2.42,0-4.86.68-7.23l45.08-.03,1.26,2.12c1.13,1.91,2.57,3.63,4.23,5.14h-19.68ZM596.71,558.03h-54.17c4.16-3,6.35-7.39,5.76-11.82-.37-2.8-3.14-4.88-6.52-5.17h-1.7c-4.11.4-7.09,3.36-6.65,6.61l.17,1.25.2,1.92c.22,2.41,0,4.84-.67,7.2H132.71c5.95,8.65,16.79,13.96,28.49,13.95l365.39-.22c-4.18,3.01-6.37,7.4-5.78,11.84.43,3.25,4.11,5.57,8.22,5.17,4.1-.4,7.08-3.36,6.65-6.62l-.17-1.25h21.47c.38,2.1,2.47,3.7,5.02,3.7s4.64-1.61,5.02-3.7h21.84v-.05c4.56,3.24,10.36,5.1,16.49,5.1,5.77,0,10.44-4.01,10.44-8.95v-2.59c0-9.04-8.55-16.37-19.09-16.37"/>
    </g>
  </g>
</svg>