<?xml version="1.0" encoding="UTF-8"?>
<svg id="Laag_1" xmlns="http://www.w3.org/2000/svg" version="1.1" xmlns:xlink="http://www.w3.org/1999/xlink" viewBox="0 0 760 760">
  <!-- Generator: Adobe Illustrator 29.5.1, SVG Export Plug-In . SVG Version: 2.1.0 Build 141)  -->
  <defs>
    <style>
      .st0 {
        fill: #0038a8;
      }

      .st1, .st2, .st3, .st4, .st5, .st6, .st7, .st8, .st9, .st10, .st11, .st12, .st13, .st14, .st15, .st16, .st17, .st18, .st19, .st20, .st21, .st22, .st23, .st24, .st25, .st26, .st27 {
        stroke: #7b3f00;
        stroke-width: .25px;
      }

      .st1, .st2, .st6, .st7, .st9, .st12, .st13, .st19, .st21, .st23, .st24, .st26, .st27 {
        fill: #fcd116;
      }

      .st1, .st3, .st4, .st6, .st7, .st8, .st11, .st12, .st13, .st18, .st21, .st22, .st26 {
        stroke-linecap: square;
      }

      .st1, .st10, .st22 {
        stroke-miterlimit: 77;
      }

      .st2 {
        stroke-miterlimit: 77;
      }

      .st3, .st4, .st5, .st8, .st11, .st28, .st18, .st22 {
        fill: #7b3f00;
      }

      .st3, .st12, .st25 {
        stroke-miterlimit: 77;
      }

      .st4, .st15, .st21 {
        stroke-miterlimit: 77;
      }

      .st29 {
        fill: #fff;
      }

      .st5, .st9, .st13, .st14 {
        stroke-miterlimit: 75.59;
      }

      .st6, .st16, .st18 {
        stroke-miterlimit: 77;
      }

      .st7, .st8, .st17 {
        stroke-miterlimit: 77;
      }

      .st30, .st10, .st14, .st15, .st16, .st17, .st20, .st25 {
        fill: none;
      }

      .st11, .st20, .st26 {
        stroke-miterlimit: 77;
      }

      .st19 {
        stroke-miterlimit: 77;
      }

      .st23 {
        stroke-miterlimit: 77;
      }

      .st24 {
        stroke-miterlimit: 15.12;
      }

      .st31 {
        clip-path: url(#clippath);
      }

      .st27 {
        stroke-miterlimit: 77;
      }
    </style>
    <clipPath id="clippath">
      <circle class="st30" cx="380" cy="380" r="379.98"/>
    </clipPath>
  </defs>
  <g class="st31">
    <path class="st29" d="M.25-15.47h1237.28v824.85H.25V-15.47Z"/>
    <path class="st0" d="M458.5,76.18h779.03v91.65H458.5v-91.65ZM458.5,259.48h779.03v91.65H458.5v-91.65ZM.25,442.78h1237.28v91.65H.25v-91.65ZM.25,626.08h1237.28v91.65H.25v-91.65Z"/>
    <g>
      <g>
        <g>
          <path class="st13" d="M218.98,258.47l15.19,22.66c-62.35,45.13-24.3,71.8-68.44,86.2,27.46-26.82-3.61-30.93,19.5-86.85"/>
          <g>
            <g>
              <path class="st21" d="M190.36,237.99l-5.29,26.74c-75.97-12.18-67.93,33.59-109.37,12.57,38.39.47,20.18-24.78,76.06-47.93"/>
              <path id="A" class="st4" d="M190.36,237.99l-11.96-2.14.1.5c-31.95,7.83-49.27,21.06-62.85,31.1-6.8,5.05-12.66,9.34-19.02,11.64-4.21,1.56-8.73,2.11-13.2,1.59,33,11.7,30.8-27.33,101.63-15.96l5.29-26.74Z"/>
            </g>
            <path id="B" class="st15" d="M178.15,234.87c-64.4,15.76-70.49,53.75-102.45,42.44"/>
          </g>
          <path class="st9" d="M229.37,213.63l-21.38-21.38-96.25,139,139-96.25-21.38-21.38-117.62,117.62"/>
          <g>
            <g>
              <g>
                <path class="st7" d="M184.57,203.27l-22.65,15.17c-45.11-62.34-71.78-24.28-86.22-68.45,26.81,27.48,31.22-3.6,87.11,19.55"/>
                <path id="A1" data-name="A" class="st8" d="M184.57,203.27l-6.95-9.97-.29.43c-28.13-17.05-49.73-19.95-66.43-22.44-8.38-1.23-15.56-2.35-21.68-5.22-4.08-1.87-7.67-4.69-10.46-8.21,15.06,31.61,41.1,2.46,83.15,60.58l22.65-15.17Z"/>
              </g>
              <path id="B1" data-name="B" class="st17" d="M178.15,192.43c-56.68-34.39-87.85-11.84-102.45-42.44"/>
            </g>
            <g>
              <path id="C" class="st2" d="M229.38,213.65v-30.25l-166.34,30.25,166.34,30.25v-30.25H63.04"/>
              <path id="D" class="st28" d="M229.38,213.65v30.25-30.25H63.04l166.34,30.25"/>
            </g>
          </g>
          <g>
            <g>
              <g>
                <path class="st1" d="M205.03,174.63l-26.74-5.29c12.18-75.97-33.59-67.93-12.57-109.37-.47,38.39,26.1,23.23,49.25,79.12"/>
                <path id="A2" data-name="A" class="st22" d="M205.03,174.63l2.14-11.96-.5.1c-7.83-31.95-21.06-49.27-31.11-62.85-5.05-6.8-9.34-12.66-11.64-19.02-1.56-4.21-2.11-8.73-1.59-13.2-11.7,33,27.33,30.8,15.96,101.64l26.74,5.29Z"/>
              </g>
              <path id="B2" data-name="B" class="st10" d="M208.16,162.42c-15.76-64.4-53.75-70.49-42.44-102.46"/>
            </g>
            <g>
              <path id="C1" data-name="C" class="st23" d="M229.38,213.65l21.39-21.39L111.75,96.02l96.24,139.01,21.39-21.39-117.62-117.62"/>
              <path id="D1" data-name="D" class="st28" d="M229.38,213.65l-21.39,21.39,21.39-21.39-117.62-117.62,96.24,139.01"/>
            </g>
          </g>
          <g>
            <g>
              <g>
                <path class="st12" d="M239.75,168.84l-15.17-22.65c62.33-45.11,24.28-71.78,68.45-86.22-27.47,26.81,3.49,31.23-19.66,87.11"/>
                <path id="A3" data-name="A" class="st3" d="M239.75,168.84l9.97-6.95-.43-.29c17.05-28.13,19.95-49.73,22.44-66.43,1.23-8.38,2.35-15.56,5.22-21.68,1.87-4.08,4.69-7.67,8.21-10.46-31.61,15.06-2.46,41.1-60.58,83.15l15.17,22.65Z"/>
              </g>
              <path id="B3" data-name="B" class="st25" d="M250.6,162.42c34.39-56.68,11.84-87.85,42.44-102.45"/>
            </g>
            <g>
              <path id="C2" data-name="C" class="st27" d="M229.38,213.65h30.24l-30.24-166.34-30.24,166.34h30.24V47.31"/>
              <path id="D2" data-name="D" class="st28" d="M229.38,213.65h-30.24,30.24V47.31l-30.24,166.34"/>
            </g>
            <g>
              <g>
                <g>
                  <path class="st6" d="M268.4,189.3l5.29-26.74c75.97,12.18,67.92-33.59,109.37-12.57-38.38-.47-21.27,24.91-77.15,48.05"/>
                  <path id="A4" data-name="A" class="st18" d="M268.4,189.3l11.96,2.14-.1-.5c31.95-7.83,49.27-21.06,62.84-31.1,6.8-5.05,12.66-9.34,19.02-11.64,4.21-1.56,8.73-2.11,13.2-1.59-33-11.7-30.8,27.32-101.63,15.96l-5.29,26.74Z"/>
                </g>
                <path id="B4" data-name="B" class="st16" d="M280.6,192.43c64.4-15.76,70.49-53.75,102.45-42.44"/>
              </g>
              <g>
                <path id="C3" data-name="C" class="st19" d="M229.38,213.65l21.39,21.39,96.23-139-139,96.23,21.39,21.39,117.62-117.62"/>
                <path id="D3" data-name="D" class="st28" d="M229.38,213.65l-21.39-21.39,21.39,21.39,117.62-117.62-139,96.23"/>
              </g>
            </g>
          </g>
          <g>
            <g>
              <g>
                <path class="st26" d="M274.19,224.02l22.65-15.17c45.11,62.33,71.79,24.28,86.23,68.45-26.81-27.47-31.86,3.28-87.75-19.87"/>
                <path id="A5" data-name="A" class="st11" d="M274.19,224.02l6.95,9.97.29-.43c28.13,17.05,49.74,19.95,66.44,22.44,8.38,1.23,15.56,2.35,21.68,5.22,4.08,1.87,7.67,4.69,10.46,8.21-15.06-31.61-41.1-2.46-83.16-60.58l-22.65,15.17Z"/>
              </g>
              <path id="B5" data-name="B" class="st20" d="M280.61,234.87c56.69,34.39,87.85,11.84,102.46,42.44"/>
            </g>
            <g>
              <path id="C4" data-name="C" class="st27" d="M229.38,213.65v30.24l166.35-30.24-166.35-30.24v30.24h166.35"/>
              <path id="D4" data-name="D" class="st28" d="M229.38,213.65v-30.24,30.24h166.35l-166.35-30.24"/>
            </g>
          </g>
          <g>
            <g>
              <g>
                <path class="st1" d="M253.72,252.67l26.74,5.29c-12.18,75.97,33.59,67.93,12.57,109.37.47-38.39-24.8-20.61-47.94-76.5"/>
                <path id="A6" data-name="A" class="st22" d="M253.72,252.67l-2.14,11.96.5-.1c7.83,31.95,21.06,49.27,31.11,62.85,5.05,6.8,9.34,12.66,11.64,19.02,1.56,4.21,2.11,8.73,1.59,13.2,11.7-33-27.33-30.8-15.96-101.64l-26.74-5.29Z"/>
              </g>
              <path id="B6" data-name="B" class="st10" d="M250.6,264.88c15.76,64.4,53.75,70.49,42.44,102.46"/>
            </g>
            <g>
              <path id="C5" data-name="C" class="st23" d="M229.38,213.65l-21.39,21.39,139.01,96.24-96.24-139.01-21.39,21.39,117.62,117.62"/>
              <path id="D5" data-name="D" class="st28" d="M229.38,213.65l21.39-21.39-21.39,21.39,117.62,117.62-96.24-139.01"/>
            </g>
          </g>
        </g>
        <path class="st5" d="M219.03,258.47l-10,6.93.45.25c-17.02,28.11-19.94,49.73-22.42,66.46-1.24,8.36-2.38,15.54-5.25,21.67-1.88,4.08-4.69,7.66-8.21,10.44,31.57-15.04,2.47-41.07,60.57-83.13l-15.14-22.61Z"/>
        <g>
          <path class="st14" d="M208.14,264.9c-34.39,56.66-11.83,87.84-42.46,102.43"/>
          <path class="st9" d="M229.37,213.63h-30.24l30.24,166.37,30.24-166.37h-30.24v166.37"/>
        </g>
      </g>
      <g>
        <path class="st28" d="M229.37,213.63h30.24-30.24v166.37l30.24-166.37"/>
        <path class="st28" d="M229.37,213.63l21.38,21.38-21.38-21.38-117.62,117.62,139-96.25"/>
      </g>
      <circle class="st24" cx="229.37" cy="213.63" r="55.47" transform="translate(11.53 439.01) rotate(-88.94)"/>
      <g>
        <path class="st28" d="M270.2,191.46c-3.51,4.01-5.54-3.02-18.16-3.02s-14.6,7.57-16.63,6.04c-2.03-1.53,10.59-10.59,14.6-11.08,7.39.53,14.43,3.35,20.14,8.07M255.55,196.02c2.13,2.49,1.83,6.24-.66,8.37-.68.58-1.49,1-2.36,1.23-3.51,0-10.09-6.04-7.08-10.09"/>
        <path class="st28" d="M238.97,200.52c.49-6.04,5.54-7.08,13.61-7.08s11.58,6.04,14.6,7.57c-3.51,0-6.53-5.05-14.6-5.05s-8.07,0-13.61,5.05M240.51,202c2.03-3.02,4.55,3.02,10.09,3.02,4.37.15,8.66-1.27,12.07-4.01,3.51-2.52-5.05,6.04-10.59,6.04s-13.11-3.02-11.58-5.05M201.17,195.47c-2.52.99-6.53,6.04,0,9.6-5.05-3.51-.99-8.56,0-9.6Z"/>
        <path class="st28" d="M257.63,195.52c.99.99,5.05,6.04,0,9.6,6.53-3.51,2.52-8.56,0-9.6ZM221.36,217.2c-4.55.99-3.02,7.57-7.08,8.07s-6.04,5.05-5.54,4.55c2.52-2.03,8.07-3.51,12.07-3.51s5.05,2.52,8.56,2.52,4.55-2.52,8.56-2.52,9.6,1.53,12.07,3.51c.49.49-1.53-4.01-5.54-4.55s-2.52-7.08-7.08-8.07c0,2.03,1.53,1.53,2.03,4.55,0,2.52-4.55,2.52-5.54,0,.99,4.01-2.03,4.01-4.55,4.01s-5.54,0-4.55-4.01c-.99,2.52-5.54,2.52-5.54,0,.49-3.02,2.03-2.52,2.03-4.55h.1ZM205.72,234.32c-4.01,3.02-5.05,4.55-5.54,8.07.81-1.46,1.72-2.87,2.72-4.21l-.69-.3.84.1,2.67-3.66Z"/>
        <path class="st28" d="M203,237.98l-.05.1c.64.15,1.29.2,1.98.2l-1.93-.3ZM204.93,238.28c2.67.49,5.3,1.16,7.87,2.03,2.82-.2,6.73-.94,16.58-.94s13.76.69,16.58.94c2.57-.86,5.2-1.54,7.87-2.03-5.54,0-12.96-3.96-16.38-3.96-4.01,0-5.05.99-8.07.99s-4.01-.99-8.07-.99c-3.41,0-10.84,3.96-16.38,3.96h0ZM253.82,238.28c.69,0,1.39-.05,1.98-.2l-.05-.1s-1.93.3-1.93.3Z"/>
        <path class="st28" d="M255.75,237.98l.84-.1-.69.3c1,1.34,1.91,2.74,2.72,4.21-.49-3.51-1.53-5.05-5.54-8.07l2.67,3.66Z"/>
        <path class="st28" d="M255.9,238.13c-5.29,1.98-7.13,2.33-9.95,2.13-4.8,1.53-8.71,3.12-16.58,3.12s-11.78-1.58-16.58-3.12c-2.82.2-4.65-.15-9.9-2.18,15.79,6.83,14.1,9.3,26.47,9.3s10.69-2.47,26.52-9.25ZM202.9,238.08c-.2-.15-.49-.2-.74-.25l.74.25ZM255.9,238.08l.74-.25c-.25.1-.49.15-.79.2l.05.05Z"/>
        <g>
          <path class="st28" d="M188.53,191.46c3.53,4.03,5.55-3.03,18.15-3.03s14.62,7.56,16.64,6.05-10.59-10.59-14.62-11.09-15.63,3.53-20.17,8.07M203.16,196c-3.53,3.03-.5,9.58,3.03,9.58s10.08-6.05,7.06-10.08"/>
          <path class="st28" d="M219.8,200.54c-.5-6.05-5.55-7.06-13.61-7.06s-11.6,6.05-14.62,7.56c3.53,0,6.56-5.04,14.62-5.04s8.07,0,13.61,5.04M218.28,202.05c-2.02-3.03-4.54,3.03-10.08,3.03s-8.57-1.51-12.1-4.03,5.04,6.05,10.59,6.05,13.11-3.03,11.6-5.04"/>
        </g>
        <path class="st28" d="M229.37,251.98c-2.52,0-9.06,1.53,0,1.53s2.52-1.53,0-1.53"/>
      </g>
    </g>
  </g>
</svg>