<?xml version="1.0" encoding="UTF-8"?>
<svg id="Laag_1" xmlns="http://www.w3.org/2000/svg" version="1.1" xmlns:xlink="http://www.w3.org/1999/xlink" viewBox="0 0 760 760">
  <!-- Generator: Adobe Illustrator 29.5.1, SVG Export Plug-In . SVG Version: 2.1.0 Build 141)  -->
  <defs>
    <style>
      .st0 {
        fill: #b31942;
      }

      .st1 {
        fill: #fff;
      }

      .st2 {
        fill: none;
      }

      .st3 {
        fill: #0a3161;
      }

      .st4 {
        stroke: #fff;
        stroke-miterlimit: 10;
        stroke-width: 50px;
      }

      .st5 {
        clip-path: url(#clippath);
      }
    </style>
    <clipPath id="clippath">
      <circle class="st2" cx="380" cy="380" r="379.98"/>
    </clipPath>
  </defs>
  <g class="st5">
    <path class="st0" d="M-260.26-5.79h1561.67v821.93H-260.26"/>
    <path class="st4" d="M-260.26,89.05h1561.67M1301.4,215.5H-260.26M-260.26,341.95h1561.67M1301.4,468.4H-260.26M-260.26,594.85h1561.67M1301.4,721.3H-260.26"/>
    <path class="st3" d="M-260.26-5.79H364.4v442.58H-260.26"/>
    <g>
      <g id="s18">
        <g id="s9">
          <g id="s5">
            <g id="s4">
              <path id="s" class="st1" d="M-208.21,13.18l14.87,45.75-38.92-28.28h48.1l-38.92,28.28,14.87-45.75Z"/>
              <path id="s1" data-name="s" class="st1" d="M-208.21,101.69l14.87,45.75-38.92-28.28h48.1l-38.92,28.28,14.87-45.75Z"/>
              <path id="s2" data-name="s" class="st1" d="M-208.21,190.21l14.87,45.75-38.92-28.28h48.1l-38.92,28.28,14.87-45.75Z"/>
              <path id="s3" data-name="s" class="st1" d="M-208.21,278.73l14.87,45.75-38.92-28.28h48.1l-38.92,28.28,14.87-45.75Z"/>
            </g>
            <path id="s4" data-name="s" class="st1" d="M-208.21,367.24l14.87,45.75-38.92-28.28h48.1l-38.92,28.28,14.87-45.75Z"/>
          </g>
          <g id="s41" data-name="s4">
            <path id="s5" data-name="s" class="st1" d="M-156.15,57.44l14.87,45.75-38.92-28.28h48.1l-38.92,28.28,14.87-45.75Z"/>
            <path id="s6" data-name="s" class="st1" d="M-156.15,145.95l14.87,45.75-38.92-28.28h48.1l-38.92,28.28,14.87-45.75Z"/>
            <path id="s7" data-name="s" class="st1" d="M-156.15,234.47l14.87,45.75-38.92-28.28h48.1l-38.92,28.28,14.87-45.75Z"/>
            <path id="s8" data-name="s" class="st1" d="M-156.15,322.98l14.87,45.75-38.92-28.28h48.1l-38.92,28.28,14.87-45.75Z"/>
          </g>
        </g>
        <g id="s91" data-name="s9">
          <g id="s51" data-name="s5">
            <g id="s42" data-name="s4">
              <path id="s9" data-name="s" class="st1" d="M-104.1,13.18l14.87,45.75-38.92-28.28h48.1l-38.92,28.28,14.87-45.75Z"/>
              <path id="s10" data-name="s" class="st1" d="M-104.1,101.69l14.87,45.75-38.92-28.28h48.1l-38.92,28.28,14.87-45.75Z"/>
              <path id="s11" data-name="s" class="st1" d="M-104.1,190.21l14.87,45.75-38.92-28.28h48.1l-38.92,28.28,14.87-45.75Z"/>
              <path id="s12" data-name="s" class="st1" d="M-104.1,278.73l14.87,45.75-38.92-28.28h48.1l-38.92,28.28,14.87-45.75Z"/>
            </g>
            <path id="s13" data-name="s" class="st1" d="M-104.1,367.24l14.87,45.75-38.92-28.28h48.1l-38.92,28.28,14.87-45.75Z"/>
          </g>
          <g id="s43" data-name="s4">
            <path id="s14" data-name="s" class="st1" d="M-52.04,57.44l14.87,45.75-38.92-28.28H-27.99l-38.92,28.28,14.87-45.75Z"/>
            <path id="s15" data-name="s" class="st1" d="M-52.04,145.95l14.87,45.75-38.92-28.28H-27.99l-38.92,28.28,14.87-45.75Z"/>
            <path id="s16" data-name="s" class="st1" d="M-52.04,234.47l14.87,45.75-38.92-28.28H-27.99l-38.92,28.28,14.87-45.75Z"/>
            <path id="s17" data-name="s" class="st1" d="M-52.04,322.98l14.87,45.75-38.92-28.28H-27.99l-38.92,28.28,14.87-45.75Z"/>
          </g>
        </g>
      </g>
      <g id="s181" data-name="s18">
        <g id="s92" data-name="s9">
          <g id="s52" data-name="s5">
            <g id="s44" data-name="s4">
              <path id="s18" data-name="s" class="st1" d="M.02,13.18l14.87,45.75L-24.04,30.65H24.07L-14.85,58.93.02,13.18Z"/>
              <path id="s19" data-name="s" class="st1" d="M.02,101.69l14.87,45.75-38.92-28.28H24.07l-38.92,28.28L.02,101.69Z"/>
              <path id="s20" data-name="s" class="st1" d="M.02,190.21l14.87,45.75-38.92-28.28H24.07l-38.92,28.28L.02,190.21Z"/>
              <path id="s21" data-name="s" class="st1" d="M.02,278.73l14.87,45.75-38.92-28.28H24.07l-38.92,28.28L.02,278.73Z"/>
            </g>
            <path id="s22" data-name="s" class="st1" d="M.02,367.24l14.87,45.75-38.92-28.28H24.07l-38.92,28.28L.02,367.24Z"/>
          </g>
          <g id="s45" data-name="s4">
            <path id="s23" data-name="s" class="st1" d="M52.07,57.44l14.87,45.75-38.92-28.28h48.1l-38.92,28.28,14.87-45.75Z"/>
            <path id="s24" data-name="s" class="st1" d="M52.07,145.95l14.87,45.75-38.92-28.28h48.1l-38.92,28.28,14.87-45.75Z"/>
            <path id="s25" data-name="s" class="st1" d="M52.07,234.47l14.87,45.75-38.92-28.28h48.1l-38.92,28.28,14.87-45.75Z"/>
            <path id="s26" data-name="s" class="st1" d="M52.07,322.98l14.87,45.75-38.92-28.28h48.1l-38.92,28.28,14.87-45.75Z"/>
          </g>
        </g>
        <g id="s93" data-name="s9">
          <g id="s53" data-name="s5">
            <g id="s46" data-name="s4">
              <path id="s27" data-name="s" class="st1" d="M104.13,13.18l14.87,45.75-38.92-28.28h48.1l-38.92,28.28,14.87-45.75Z"/>
              <path id="s28" data-name="s" class="st1" d="M104.13,101.69l14.87,45.75-38.92-28.28h48.1l-38.92,28.28,14.87-45.75Z"/>
              <path id="s29" data-name="s" class="st1" d="M104.13,190.21l14.87,45.75-38.92-28.28h48.1l-38.92,28.28,14.87-45.75Z"/>
              <path id="s30" data-name="s" class="st1" d="M104.13,278.73l14.87,45.75-38.92-28.28h48.1l-38.92,28.28,14.87-45.75Z"/>
            </g>
            <path id="s31" data-name="s" class="st1" d="M104.13,367.24l14.87,45.75-38.92-28.28h48.1l-38.92,28.28,14.87-45.75Z"/>
          </g>
          <g id="s47" data-name="s4">
            <path id="s32" data-name="s" class="st1" d="M156.18,57.44l14.87,45.75-38.92-28.28h48.1l-38.92,28.28,14.87-45.75Z"/>
            <path id="s33" data-name="s" class="st1" d="M156.18,145.95l14.87,45.75-38.92-28.28h48.1l-38.92,28.28,14.87-45.75Z"/>
            <path id="s34" data-name="s" class="st1" d="M156.18,234.47l14.87,45.75-38.92-28.28h48.1l-38.92,28.28,14.87-45.75Z"/>
            <path id="s35" data-name="s" class="st1" d="M156.18,322.98l14.87,45.75-38.92-28.28h48.1l-38.92,28.28,14.87-45.75Z"/>
          </g>
        </g>
      </g>
      <g id="s94" data-name="s9">
        <g id="s54" data-name="s5">
          <g id="s48" data-name="s4">
            <path id="s36" data-name="s" class="st1" d="M208.24,13.18l14.87,45.75-38.92-28.28h48.1l-38.92,28.28,14.87-45.75Z"/>
            <path id="s37" data-name="s" class="st1" d="M208.24,101.69l14.87,45.75-38.92-28.28h48.1l-38.92,28.28,14.87-45.75Z"/>
            <path id="s38" data-name="s" class="st1" d="M208.24,190.21l14.87,45.75-38.92-28.28h48.1l-38.92,28.28,14.87-45.75Z"/>
            <path id="s39" data-name="s" class="st1" d="M208.24,278.73l14.87,45.75-38.92-28.28h48.1l-38.92,28.28,14.87-45.75Z"/>
          </g>
          <path id="s40" data-name="s" class="st1" d="M208.24,367.24l14.87,45.75-38.92-28.28h48.1l-38.92,28.28,14.87-45.75Z"/>
        </g>
        <g id="s49" data-name="s4">
          <path id="s41" data-name="s" class="st1" d="M260.29,57.44l14.87,45.75-38.92-28.28h48.1l-38.92,28.28,14.87-45.75Z"/>
          <path id="s42" data-name="s" class="st1" d="M260.29,145.95l14.87,45.75-38.92-28.28h48.1l-38.92,28.28,14.87-45.75Z"/>
          <path id="s43" data-name="s" class="st1" d="M260.29,234.47l14.87,45.75-38.92-28.28h48.1l-38.92,28.28,14.87-45.75Z"/>
          <path id="s44" data-name="s" class="st1" d="M260.29,322.98l14.87,45.75-38.92-28.28h48.1l-38.92,28.28,14.87-45.75Z"/>
        </g>
      </g>
      <g id="s55" data-name="s5">
        <g id="s410" data-name="s4">
          <path id="s45" data-name="s" class="st1" d="M312.35,13.18l14.87,45.75-38.92-28.28h48.1l-38.92,28.28,14.87-45.75Z"/>
          <path id="s46" data-name="s" class="st1" d="M312.35,101.69l14.87,45.75-38.92-28.28h48.1l-38.92,28.28,14.87-45.75Z"/>
          <path id="s47" data-name="s" class="st1" d="M312.35,190.21l14.87,45.75-38.92-28.28h48.1l-38.92,28.28,14.87-45.75Z"/>
          <path id="s48" data-name="s" class="st1" d="M312.35,278.73l14.87,45.75-38.92-28.28h48.1l-38.92,28.28,14.87-45.75Z"/>
        </g>
        <path id="s49" data-name="s" class="st1" d="M312.35,367.24l14.87,45.75-38.92-28.28h48.1l-38.92,28.28,14.87-45.75Z"/>
      </g>
    </g>
  </g>
</svg>