<?xml version="1.0" encoding="UTF-8"?>
<svg id="Laag_1" xmlns="http://www.w3.org/2000/svg" version="1.1" viewBox="0 0 760 760">
  <!-- Generator: Adobe Illustrator 29.5.1, SVG Export Plug-In . SVG Version: 2.1.0 Build 141)  -->
  <defs>
    <style>
      .st0 {
        stroke-miterlimit: 25;
        stroke-width: 25px;
      }

      .st0, .st1 {
        stroke: #000;
      }

      .st1 {
        fill: #fff;
        stroke-miterlimit: 10;
      }

      .st2 {
        fill: #cd2e3a;
      }

      .st3 {
        fill: #0047a0;
      }
    </style>
  </defs>
  <circle class="st1" cx="380" cy="380" r="379.98"/>
  <g>
    <g>
      <path class="st0" d="M161.59,144.25l-83.21,124.81M109.58,289.86l83.21-124.81M223.99,185.85l-83.21,124.81M536.01,574.15l38.14-57.2M581.08,506.54l38.14-57.2M650.42,470.14l-38.14,57.2M605.35,537.74l-38.14,57.2M598.41,615.75l38.14-57.2M643.48,548.14l38.14-57.2"/>
      <path class="st0" d="M78.38,490.94l83.21,124.81M192.79,594.95l-38.14-57.2M147.72,527.34l-38.14-57.2M140.79,449.34l83.21,124.81M619.21,310.66l-38.14-57.2M574.15,243.06l-38.14-57.2M567.21,165.05l83.21,124.81M681.62,269.06l-38.14-57.2M636.55,201.46l-38.14-57.2"/>
    </g>
    <g>
      <path class="st2" d="M442.4,421.6c-34.46,51.7-104.31,65.67-156.01,31.2-51.7-34.46-65.67-104.31-31.2-156.01,45.95-68.93,139.08-87.56,208.01-41.6,68.93,45.95,87.56,139.08,41.6,208.01"/>
      <path class="st3" d="M255.19,296.79c-45.95,68.93-27.33,162.06,41.6,208.01,68.93,45.95,162.06,27.33,208.01-41.6,22.98-34.46,13.66-81.03-20.8-104.01-34.46-22.98-81.03-13.66-104.01,20.8-22.98,34.46-69.54,43.78-104.01,20.8-34.46-22.98-43.78-69.54-20.8-104.01"/>
    </g>
  </g>
</svg>