<?xml version="1.0" encoding="UTF-8"?>
<svg id="Laag_1" xmlns="http://www.w3.org/2000/svg" version="1.1" xmlns:xlink="http://www.w3.org/1999/xlink" viewBox="0 0 760 760">
  <!-- Generator: Adobe Illustrator 29.5.1, SVG Export Plug-In . SVG Version: 2.1.0 Build 141)  -->
  <defs>
    <style>
      .st0 {
        stroke: #000;
        stroke-miterlimit: 25;
        stroke-width: 25px;
      }

      .st1 {
        fill: none;
      }

      .st2 {
        fill: #cd2e3a;
      }

      .st3 {
        clip-path: url(#clippath);
      }

      .st4 {
        fill: #0047a0;
      }
    </style>
    <clipPath id="clippath">
      <circle class="st1" cx="380" cy="380" r="379.98"/>
    </clipPath>
  </defs>
  <g class="st3">
    <g>
      <g>
        <path class="st0" d="M148.28,129.89l-88.27,132.41M93.11,284.37l88.27-132.41M214.48,174.03l-88.27,132.41M545.52,585.97l40.46-60.69M593.33,514.25l40.46-60.69M666.89,475.63l-40.46,60.69M619.08,547.35l-40.46,60.69M611.72,630.11l40.46-60.69M659.54,558.39l40.46-60.69"/>
        <path class="st0" d="M60,497.7l88.27,132.41M181.38,608.04l-40.46-60.69M133.57,536.32l-40.46-60.69M126.21,453.56l88.27,132.41M633.79,306.44l-40.46-60.69M585.97,234.71l-40.46-60.69M578.62,151.96l88.27,132.41M700,262.3l-40.46-60.69M652.18,190.58l-40.46-60.69"/>
      </g>
      <g>
        <path class="st2" d="M446.21,424.14c-36.56,54.85-110.67,69.67-165.52,33.1-54.85-36.56-69.67-110.67-33.1-165.52,48.75-73.13,147.56-92.89,220.69-44.14,73.13,48.75,92.89,147.56,44.14,220.69"/>
        <path class="st4" d="M247.59,291.73c-48.75,73.13-28.99,171.93,44.14,220.69s171.93,28.99,220.69-44.14c24.38-36.56,14.5-85.97-22.07-110.34-36.56-24.38-85.97-14.5-110.34,22.07-24.38,36.56-73.78,46.45-110.34,22.07-36.56-24.38-46.45-73.78-22.07-110.34"/>
      </g>
    </g>
  </g>
</svg>